<?xml version="1.0" encoding="UTF-8" standalone="no"?>
<!DOCTYPE svg  PUBLIC '-//W3C//DTD SVG 1.1//EN'  'http://www.w3.org/Graphics/SVG/1.1/DTD/svg11.dtd'>
<svg xmlns="http://www.w3.org/2000/svg">
<defs>
<font id="Montez-Regular" horiz-adv-x="643">
<font-face underline-position="-103" font-weight="400" descent="-410" panose-1="2 0 5 3 0 0 0 2 0 4" units-per-em="2048" unicode-range="U+0020-2265" bbox="-315 -848 2204 1831" x-height="578" underline-thickness="102" font-family="Montez" ascent="1638" cap-height="1436"/>
<missing-glyph horiz-adv-x="2048"/>
<glyph glyph-name=".notdef" horiz-adv-x="2048"/>
<glyph glyph-name=".null" horiz-adv-x="0"/>
<glyph glyph-name="nonmarkingreturn" horiz-adv-x="2048"/>
<glyph glyph-name="space" horiz-adv-x="480" unicode=" "/>
<glyph glyph-name="exclam" horiz-adv-x="584" unicode="!" d="M232 1294q0 16 11 28t26 20t31 12t24 4q18 0 30 -8t11 -41q0 -38 -3 -107q-2 -69 -8 -156q-6 -86 -12 -186t-14 -200q-7 -100 -14 -192q-7 -94 -12 -168h-26q-8 146 -16 280t-14 257t-10 237t-4 220zM200 72q0 19 7 36q7 18 19 30t29 19t37 7q19 0 36 -7q18 -7 30 -19 t19 -30q7 -17 7 -36t-7 -36q-7 -18 -19 -30t-30 -19q-17 -7 -36 -7t-36 7q-18 7 -30 19t-19 30q-7 17 -7 36z"/>
<glyph glyph-name="quotedbl" horiz-adv-x="344" unicode='&quot;' d="M259 871q-11 25 -21 55t-20 62q-8 32 -13 60q-5 29 -5 52q0 10 2 27t8 33t19 28q12 12 32 11q32 1 45 -25q7 -14 7 -35q0 -16 -4 -35q-8 -35 -14 -65q-7 -30 -11 -57q-4 -28 -6 -54t0 -55zM89 871q-11 25 -21 55t-20 62q-8 32 -13 60q-5 29 -5 52q0 10 2 27t8 33t19 28 q12 12 32 11q32 1 45 -25q7 -14 7 -35q0 -16 -4 -35q-8 -35 -14 -65q-7 -30 -11 -57q-4 -28 -6 -54t0 -55z"/>
<glyph glyph-name="numbersign" horiz-adv-x="702" unicode="#" d="M277 494h148l-6 213h-126zM207 103l-10 323h-157l8 68h147l-6 213h-137l8 68h127l-8 304l145 21l-25 -325h118l-8 304l145 21l-25 -325h133l-8 -68h-131l-16 -213h143l-8 -68h-140l-25 -323h-40l-10 323h-155l-25 -323h-40z"/>
<glyph glyph-name="dollar" horiz-adv-x="882" unicode="$" d="M668 179q0 41 -12 75t-34 61q-22 28 -50 52q-29 24 -63 45l-9 -400q42 4 74 20t52 38q22 23 32 51t10 58zM194 911q0 -63 21 -111t56 -84t81 -65t95 -55l-13 644q-53 -17 -97 -47t-76 -71q-31 -41 -49 -94t-18 -117zM527 1300q28 3 59 3q52 0 104 -12t95 -38t70 -66 t27 -96q0 -48 -25 -89t-66 -71t-95 -47q-51 -16 -106 -16h-6h-12v21q52 5 90 23t64 46t38 63q12 36 12 77q0 40 -16 70t-44 51q-27 21 -62 32t-72 11q-29 0 -56 -3l-14 -697q52 -28 101 -58t87 -68t60 -90q23 -50 23 -118q1 -60 -23 -108t-64 -82t-90 -52q-52 -18 -107 -21 l-3 -176h-32l-4 177q-61 2 -108 22t-83 52q-35 32 -61 78q-26 44 -43 97l31 10q12 -40 34 -78t56 -68q33 -30 76 -49t97 -20l-9 437q-64 36 -132 73t-122 85t-90 113t-36 158q0 79 27 146q27 68 75 120t116 89q66 37 145 55l-4 185h102z"/>
<glyph glyph-name="percent" horiz-adv-x="1089" unicode="%" d="M1018 317q0 -49 -14 -105t-44 -104t-78 -80t-115 -31q-67 0 -115 30q-48 31 -78 75t-42 96q-14 52 -14 97q0 47 9 97t31 96t62 86q38 40 97 65l9 -16q-38 -28 -60 -66t-32 -80q-11 -41 -14 -85t-3 -83q-1 -35 7 -83t26 -90t50 -72q31 -30 78 -30q54 0 84 28t45 66 q14 38 17 80t3 70q0 38 -8 86q-7 48 -25 92q-18 42 -46 72t-71 29q-21 -1 -36 -9t-25 -22t-14 -30t-4 -32v-10t1 -9l-16 -1q-3 8 -3 16v18q0 24 8 48t24 44t38 34q22 13 52 13q54 0 94 -26q40 -27 67 -69t41 -96t14 -109zM996 1268q14 0 22 -5t7 -13q1 -6 -3 -13t-10 -14 t-10 -13q-6 -6 -9 -11q-37 -45 -75 -85t-75 -87q-97 -123 -185 -245t-174 -252t-170 -269t-174 -294l-31 17q67 132 143 270t154 272q80 134 163 261q83 126 165 234q18 23 46 58t58 70q32 35 64 65t57 44q7 2 15 6t22 4zM550 997q0 -49 -14 -105t-44 -104t-78 -80t-115 -31 q-67 0 -115 30q-48 31 -78 75t-42 96q-14 52 -14 97q0 47 9 97t31 96t62 86q38 40 97 65l9 -16q-38 -28 -60 -66t-32 -80q-11 -41 -14 -85t-3 -83q-1 -35 7 -83t26 -90t50 -72q31 -30 78 -30q54 0 84 28t45 66q14 38 17 80t3 70q0 38 -8 86q-7 48 -25 92q-18 42 -46 72 t-71 29q-21 -1 -36 -9t-25 -22t-14 -30t-4 -32v-10t1 -9l-16 -1q-3 8 -3 16v18q0 24 8 48t24 44t38 34q22 13 52 13q54 0 94 -26q40 -27 67 -69t41 -96t14 -109z"/>
<glyph glyph-name="ampersand" horiz-adv-x="885" unicode="&amp;" d="M334 1073q0 -75 8 -151t26 -154q3 2 9 8q41 38 73 86t52 102q22 54 33 110q11 57 11 114q0 19 -2 42q-2 24 -12 44q-8 20 -23 34t-40 14q-43 0 -69 -28t-41 -68t-20 -82t-5 -71zM444 -28q57 0 102 22t79 57q-49 56 -97 121q-48 66 -90 136t-80 146q-37 76 -65 152 q-49 -67 -81 -144t-32 -173q0 -63 18 -121t54 -102q34 -44 82 -68q48 -26 110 -26zM835 376q0 -104 -35 -193t-101 -152q29 -35 57 -69t57 -64l-7 -13q-35 25 -69 55t-69 65q-51 -39 -114 -61t-138 -22q-84 0 -152 24t-116 70t-72 111q-26 65 -26 146q0 71 18 129t50 108 t70 92t79 79q-27 85 -41 169t-14 166q0 36 6 78t18 82t34 78q20 38 48 66t66 46t85 18t83 -18t60 -46q24 -30 38 -70q13 -40 13 -85q1 -69 -25 -128t-66 -113t-91 -106q-50 -52 -100 -106q42 -170 114 -329t162 -292q27 42 41 88t15 89q0 40 -4 74q-5 34 -15 65t-28 60 t-45 59q-1 4 -3 6t-2 5q0 13 10 21t22 14q13 6 27 9t23 3q40 0 66 -20t42 -52t22 -68t7 -68z"/>
<glyph glyph-name="quotesingle" horiz-adv-x="174" unicode="&apos;" d="M89 871q-11 25 -21 55t-20 62q-8 32 -13 60q-5 29 -5 52q0 10 2 27t8 33t19 28q12 12 32 11q32 1 45 -25q7 -14 7 -35q0 -16 -4 -35q-8 -35 -14 -65q-7 -30 -11 -57q-4 -28 -6 -54t0 -55z"/>
<glyph glyph-name="parenleft" horiz-adv-x="583" unicode="(" d="M558 1355q-18 -7 -50 -33t-68 -75t-73 -119t-67 -165t-48 -216q-19 -121 -19 -269t19 -269t49 -216t67 -165q38 -70 74 -119t68 -75t50 -33l-7 -12q-29 9 -75 37t-97 76t-103 116q-52 70 -94 166t-68 218t-26 276t26 276t68 218t94 166t103 116q51 48 97 76t75 37z"/>
<glyph glyph-name="parenright" horiz-adv-x="583" unicode=")" d="M30 1367q29 -9 75 -37t97 -76t103 -116q52 -70 94 -166t68 -218t26 -276q0 -153 -26 -276q-26 -122 -68 -218t-94 -166t-103 -116q-51 -48 -97 -76t-75 -37l-7 12q19 7 51 33t68 75t73 119t67 165t49 215t19 270q0 148 -19 269t-49 216t-66 165q-37 70 -73 119 q-35 49 -67 75t-51 33z"/>
<glyph glyph-name="asterisk" horiz-adv-x="650" unicode="*" d="M315 926q0 -3 -7 -19t-18 -38l-24 -48q-12 -26 -24 -49q-12 -22 -21 -40t-11 -23q-6 -11 -17 -17t-22 -6t-23 6t-21 15q-11 9 -17 21t-6 22q0 23 16 36q5 4 19 18q15 14 33 32t38 36t38 34t31 26t17 10q8 0 14 -5t5 -11zM304 975q0 -7 -5 -13t-13 -6q-2 0 -18 5t-40 13 t-50 17q-28 9 -53 17t-44 16q-19 6 -24 8q-13 5 -20 17t-7 24t6 24q6 13 14 23t20 16t23 7q19 0 31 -13l174 -141q6 -3 6 -14zM546 750q0 -10 -6 -22t-17 -21q-10 -9 -22 -15t-22 -6q-11 0 -22 6t-17 17q-4 5 -12 23t-20 40t-24 48t-24 48q-11 22 -18 38t-7 18q-1 8 5 13 t14 5q4 0 17 -10t31 -26t38 -34t38 -36t33 -32q14 -14 19 -18q16 -13 16 -36zM382 1255q0 -7 -2 -27t-6 -46t-8 -54t-9 -55q-4 -25 -8 -45t-6 -27q-1 -6 -5 -10t-13 -4q-7 0 -11 4t-8 10q-2 7 -6 26t-9 45t-11 54t-9 53q-4 25 -7 44t-3 26q0 15 7 25t18 16q10 6 24 6 q14 2 27 2q17 0 31 -13t14 -30zM620 1073q0 -12 -7 -24t-20 -17q-5 -2 -23 -8t-44 -16q-26 -8 -54 -17t-52 -17l-39 -13q-16 -5 -17 -5q-8 0 -14 6t-5 13q0 11 7 14l174 141q12 13 30 13q12 -1 24 -7t20 -16t14 -23q6 -12 6 -24z"/>
<glyph glyph-name="plus" d="M336 293q-22 42 -38 102t-25 126q-35 -3 -67 -4t-57 -1q-21 0 -41 1t-34 7q-16 6 -25 20t-9 40q0 31 20 46t52 11q39 -5 76 -9t73 -6q-3 34 -4 64t-1 57q0 21 1 41t7 34q6 16 20 25t40 9q31 0 46 -20t11 -52q-5 -46 -9 -86t-7 -80q60 -2 118 -4q25 -1 50 -1l66 1l4 -18 q-43 -24 -109 -40t-136 -26q-2 -60 -4 -118q-1 -25 -1 -50q0 -33 1 -65z" unicode="+"/>
<glyph glyph-name="comma" horiz-adv-x="585" unicode="," d="M270 -120q6 14 10 30t6 30q0 14 -5 26t-18 18q-27 14 -45 36t-18 52q0 19 7 36q7 18 19 30t30 19q17 7 36 7q38 0 64 -27t28 -65q1 -7 1 -14q1 -32 -11 -60q-14 -34 -32 -61t-37 -43q-18 -16 -25 -21q-3 1 -5 3q-5 3 -5 4z"/>
<glyph glyph-name="hyphen" horiz-adv-x="550" unicode="-" d="M439 444q27 0 41 -19t15 -39v-8q1 -10 -1 -18q-2 -12 -12 -21q-9 -9 -25 -14t-43 -5h-75t-52 1t-51 1h-72q-20 0 -40 2t-36 9t-24 21q-9 14 -9 41t17 45t43 18h6t6 -1q75 -9 150 -11t162 -2z"/>
<glyph glyph-name="period" horiz-adv-x="584" unicode="." d="M200 72q0 19 7 36q7 18 19 30t30 19q17 7 36 7t36 -7q18 -7 30 -19t19 -30q7 -17 7 -36t-7 -36q-7 -18 -19 -30t-30 -19q-17 -7 -36 -7t-36 7q-18 7 -30 19t-19 30q-7 17 -7 36z"/>
<glyph glyph-name="slash" horiz-adv-x="788" unicode="/" d="M118 -204l-18 2l490 1530l124 -29z"/>
<glyph glyph-name="zero" horiz-adv-x="960" unicode="0" d="M915 643q0 -65 -11 -141q-10 -76 -34 -150q-24 -76 -60 -146t-88 -124q-50 -54 -115 -86t-146 -33q-79 -1 -141 29t-108 80t-78 115t-51 136q-20 71 -29 143t-9 136q1 68 7 140t22 143t40 139q26 68 64 128t90 107q52 48 119 80l6 -12q-68 -59 -111 -143t-68 -179 q-24 -94 -34 -191t-10 -181q0 -53 6 -119t22 -134t42 -134t67 -117t95 -82t126 -31q56 0 98 30t72 76q30 48 50 108t30 120q12 62 16 118t5 97q-1 44 -7 108q-6 63 -20 135t-38 143q-22 71 -56 127t-79 92t-103 36q-45 0 -77 -24q-31 -24 -51 -58q-20 -36 -28 -78 q-4 -25 -4 -49q0 -16 2 -30l-10 -2q-3 17 -5 35t-2 36q0 50 13 96t39 83q25 35 65 57t94 22q75 0 133 -34q57 -34 101 -89q44 -54 73 -120t44 -129q17 -68 25 -138t7 -141z"/>
<glyph glyph-name="one" horiz-adv-x="645" unicode="1" d="M645 117q-43 -35 -97 -61t-112 -45q-58 -18 -118 -27t-115 -9q-21 0 -43 4t-38 14t-28 27q-10 17 -10 43q0 9 3 21t9 22t14 16q9 6 21 7q9 0 13 -2q45 -13 92 -17t94 -6q-27 139 -34 282t-7 282q0 80 2 158t8 157q-19 -19 -46 -43t-57 -47t-60 -41t-56 -25l-10 15 q34 30 66 76t62 100q30 52 54 104q25 52 43 95q10 21 18 49t19 47q6 14 14 19t25 5q13 0 31 -6t35 -16t29 -23t12 -28v-7q-38 -138 -62 -278t-38 -283q-12 -142 -16 -290q-2 -69 -1 -140q0 -80 2 -162h20q30 0 63 2l66 4q33 4 65 10t60 13z"/>
<glyph glyph-name="two" horiz-adv-x="801" unicode="2" d="M753 -31q-81 21 -165 27t-165 6q-67 0 -135 -4t-133 -18h-14q-28 0 -44 20t-16 47q-1 27 13 43t34 26q20 9 44 12t46 3h10q86 48 160 117t127 153q55 84 85 179t30 194q0 45 -8 96q-8 52 -24 102t-41 96t-60 82t-79 56q-44 21 -99 21q-43 0 -81 -15t-68 -42 q-30 -28 -46 -64q-18 -36 -18 -78q0 -32 8 -60t20 -52q14 -24 32 -46t38 -45q12 -15 20 -27t7 -32q0 -15 -5 -31q-5 -15 -14 -29q-8 -14 -22 -23t-31 -9q-39 0 -64 28t-39 68t-20 82q-6 43 -6 72q0 59 13 114q13 56 40 104t67 88t95 66q33 16 69 24t74 9q52 1 98 -15t87 -44 q39 -28 71 -66t54 -84q24 -51 34 -107t9 -112q1 -117 -31 -227t-88 -210t-136 -186q-78 -86 -172 -151q58 -5 118 -17t118 -28q58 -18 112 -42t99 -54z"/>
<glyph glyph-name="three" horiz-adv-x="784" unicode="3" d="M717 242q0 -69 -29 -122q-28 -53 -74 -89q-46 -37 -104 -55t-114 -18q-45 0 -93 10t-88 34t-66 64t-26 100q1 46 17 82t44 63t64 45t76 28l6 -16q-47 -27 -79 -79t-32 -116q0 -41 13 -75t36 -60q24 -25 56 -39t71 -14q51 0 88 21t61 54q24 32 36 72t12 78q0 76 -21 132 t-59 95t-92 61t-121 29v41q61 9 116 33t97 65t66 99t24 133q0 60 -20 121t-55 111t-87 80q-52 32 -116 32q-42 0 -80 -16t-68 -42q-30 -28 -48 -65t-17 -80q-1 -33 7 -60t22 -52t31 -48q18 -23 38 -48q11 -15 19 -31t8 -38q0 -30 -20 -55t-54 -25q-40 0 -64 28t-38 67 t-20 82q-5 43 -5 73q1 77 25 151t70 132q46 57 114 93q66 36 149 36q75 0 139 -33t111 -87t74 -124t27 -143q0 -71 -24 -133t-67 -116q-43 -52 -103 -92t-133 -65q55 -13 109 -39t96 -65t69 -91q26 -52 26 -114z"/>
<glyph glyph-name="four" horiz-adv-x="849" unicode="4" d="M100 480q1 -1 4 -1q54 62 86 135t52 157q20 83 32 179t23 203q3 19 11 36t21 29t30 17t36 -1q19 -4 28 -18t13 -32t2 -37q-1 -20 -3 -38q-8 -79 -30 -163t-58 -169q-36 -83 -86 -163t-114 -147q44 -11 94 -19t101 -14q50 -6 102 -11q52 -4 99 -5q-8 88 -12 173t-4 161 q1 32 1 78t4 100t11 110q8 56 22 104q13 50 35 89t53 59q16 11 36 19t40 8q12 -1 21 -7t9 -20q0 -15 -6 -30q-26 -58 -44 -126t-30 -138t-19 -138t-11 -124q-4 -58 -5 -102t-1 -65q1 -27 1 -49v-40v-32q0 -15 1 -30q21 2 39 4t34 6q16 3 33 7t38 10l10 -20q-11 -5 -29 -13 t-38 -16t-43 -16q-22 -8 -44 -13q-1 -112 3 -220t15 -217l-18 -6q-37 91 -59 198t-36 221q-69 -15 -139 -21t-139 -5h-42q-26 1 -54 3t-56 8t-50 16t-36 28t-14 44q0 8 4 22t13 26t25 16q16 6 38 0z"/>
<glyph glyph-name="five" horiz-adv-x="853" unicode="5" d="M813 393q0 -87 -36 -165t-96 -137t-139 -93t-165 -35q-68 0 -130 21q-62 20 -109 60t-75 98t-28 130q1 76 33 146t86 121l12 -13q-19 -38 -29 -83t-10 -89q-1 -58 23 -120t66 -111q42 -51 96 -83q55 -32 118 -32q69 0 115 34q45 34 73 88q28 52 40 114t12 116 q0 76 -21 148t-63 129t-103 92q-62 35 -145 35q-48 0 -94 -12t-90 -31l-31 6l78 465q-12 21 -12 47q1 9 3 21t8 22t15 16t21 7q8 0 12 -2q57 -15 119 -19t121 -4q30 0 62 2t66 4q33 2 65 8t61 15l8 -17q-44 -35 -98 -62q-54 -26 -112 -44t-118 -27q-54 -8 -104 -8h-11h-14 l-104 -352q52 21 108 34t113 13q92 0 166 -38t128 -102q52 -64 80 -144q28 -82 29 -169z"/>
<glyph glyph-name="six" horiz-adv-x="881" unicode="6" d="M699 406q1 34 -3 78t-14 88t-26 88q-16 42 -42 74t-60 53q-36 20 -84 20q-50 1 -88 -19t-66 -53t-49 -75q-20 -42 -32 -88q-11 -46 -17 -92t-6 -83q0 -35 6 -77t18 -84t32 -81t48 -69t63 -48q36 -18 81 -18q44 0 78 20t62 51q26 33 45 73t31 83t18 85t5 74zM841 444 q1 -84 -25 -168t-75 -152t-121 -109q-72 -42 -164 -42q-74 0 -132 25t-104 67q-46 43 -78 99t-52 119t-30 129t-10 127q0 85 17 173t51 170t81 156q49 74 111 136q62 60 138 104t163 65l4 -18q-101 -45 -175 -123t-124 -173t-79 -201t-40 -210q11 50 37 94t64 78 q38 32 84 52t100 20q90 0 158 -34t112 -90q44 -57 67 -133q22 -76 22 -161z"/>
<glyph glyph-name="seven" d="M637 1297l-9 -30q12 3 28 5t29 5l8 -17q-35 -20 -76 -37q-49 -119 -105 -259t-106 -290q-48 -150 -80 -306t-32 -308q0 -18 1 -36t1 -34q0 -12 -5 -25t-22 -13q-10 0 -21 6t-21 13q-10 8 -19 17t-15 17q-19 24 -27 60t-8 68q0 90 18 181t47 182q30 92 70 182t84 178 q43 88 89 175q46 86 88 169q-96 -30 -196 -42t-200 -12q-23 0 -55 2q-31 2 -61 10q-30 9 -51 27t-21 51q0 26 18 46t43 21h9t10 -2q48 -13 101 -21t107 -12t106 -6q54 -2 104 -2h62t63 3l28 41z" unicode="7"/>
<glyph glyph-name="eight" horiz-adv-x="851" unicode="8" d="M610 203q0 48 -23 88q-23 39 -57 73t-76 62q-40 28 -74 51q-69 -49 -100 -110t-31 -146q0 -43 14 -81q13 -38 39 -66t62 -46q36 -16 82 -16q42 0 73 15t51 41t30 61t10 74zM694 975q0 57 -20 113t-58 101t-88 73t-111 28h-17t-16 -2q-118 -22 -178 -100t-59 -199 q0 -71 32 -129t81 -104q49 -47 106 -87t108 -77q110 68 165 160t55 223zM821 969q0 -78 -25 -138q-25 -59 -67 -107q-41 -48 -97 -86t-117 -75q38 -29 73 -61t62 -70q28 -38 44 -80q16 -43 16 -94q0 -60 -22 -112t-62 -88q-38 -38 -90 -60t-111 -21q-57 0 -109 17t-92 49 q-40 31 -62 79q-23 48 -23 109q-1 51 15 91t43 74q27 33 63 60t75 52q-57 36 -111 78t-98 92t-70 109q-26 60 -26 135q0 84 30 158t82 130t126 90q72 33 157 33q80 1 152 -25t126 -74t86 -114q32 -67 32 -151z"/>
<glyph glyph-name="nine" horiz-adv-x="881" unicode="9" d="M669 901q0 35 -6 77q-7 42 -19 84t-32 81t-46 69q-28 30 -64 48t-81 18q-43 0 -78 -20t-61 -50q-26 -32 -45 -73t-31 -83t-18 -84t-5 -75q-1 -35 3 -79t14 -88t26 -86t41 -76q25 -32 61 -52t83 -20q50 0 88 20t67 52q28 34 48 76t32 87t18 91t5 83zM831 760 q0 -86 -17 -173t-50 -169q-34 -82 -82 -158q-48 -74 -110 -135t-138 -105t-163 -65l-6 18q102 45 176 123q75 78 125 173t79 201t40 210q-13 -50 -39 -94t-63 -78q-37 -32 -83 -52t-100 -20q-90 0 -158 34t-113 90q-45 58 -67 134t-22 160q0 56 12 112t33 110q22 52 55 98 t76 78q44 34 96 54t115 19q75 0 133 -25t103 -67t77 -98t52 -119t30 -129t9 -127z"/>
<glyph glyph-name="colon" horiz-adv-x="584" unicode=":" d="M200 465q0 19 7 36t19 29t30 20q17 7 36 7t36 -7q18 -8 30 -20t19 -29t7 -36q0 -21 -7 -37t-19 -29t-30 -20q-17 -7 -36 -7t-36 7q-18 7 -30 20t-19 29t-7 37zM200 72q0 19 7 36q7 18 19 30t30 19q17 7 36 7t36 -7q18 -7 30 -19t19 -30q7 -17 7 -36q0 -20 -7 -36t-19 -30 q-12 -13 -30 -20q-17 -7 -36 -7t-36 7q-18 7 -30 20q-12 14 -19 30t-7 36z"/>
<glyph glyph-name="semicolon" horiz-adv-x="585" unicode=";" d="M270 -120q6 14 10 30t6 30q0 14 -5 26t-18 18q-27 14 -45 36t-18 52q0 19 7 36q7 18 19 30t30 19q17 7 36 7q38 0 64 -27t28 -65q1 -7 1 -14q1 -32 -11 -60q-14 -34 -32 -61t-37 -43q-18 -16 -25 -21q-3 1 -5 3q-5 3 -5 4zM200 465q0 19 7 36t19 29t30 20q17 7 36 7 t36 -7q18 -8 30 -20t19 -29t7 -36q0 -21 -7 -37t-19 -29t-30 -20q-17 -7 -36 -7t-36 7q-18 7 -30 20t-19 29t-7 37z"/>
<glyph glyph-name="less" d="M139 491q-26 17 -47 35t-21 43q0 11 5 23t13 21q9 9 19 15t22 5h8t9 -2q45 42 101 82q56 39 108 71t95 52q42 20 62 19q7 0 17 -4t20 -12q10 -9 16 -21t6 -29q0 -19 -12 -33t-33 -22q-94 -36 -173 -70t-154 -70q100 -82 188 -147t180 -121l-6 -18q-46 4 -104 24t-116 48 t-112 57q-54 30 -91 54z" unicode="&lt;"/>
<glyph glyph-name="equal" d="M603 496q-40 -22 -99 -38t-123 -24q-63 -10 -125 -14t-107 -4q-21 0 -41 1t-34 7q-16 6 -25 20t-9 40q0 31 20 46t52 11q139 -17 256 -23q89 -5 177 -4h54zM603 696q-40 -22 -99 -38t-123 -24q-63 -10 -125 -14t-107 -4q-21 0 -41 1t-34 7q-16 6 -25 20t-9 40q0 31 20 46 q16 12 39 12q6 0 13 -1q139 -17 256 -23q89 -5 177 -4h54z" unicode="="/>
<glyph glyph-name="greater" d="M75 326q45 28 89 56t88 58q44 32 90 69t99 84q-73 37 -152 71t-173 70q-28 11 -40 34q-5 10 -5 21q0 14 8 29q11 22 25 30q12 7 26 7q2 -1 5 -1q16 -2 34 -9q18 -8 37 -17q30 -15 66 -37q36 -21 75 -47q38 -26 76 -54t70 -59q19 7 36 1t30 -25q14 -21 14 -38 q1 -17 -9 -31t-26 -24q-16 -12 -34 -23q-36 -25 -88 -53t-110 -52q-58 -26 -116 -47t-109 -31z" unicode="&gt;"/>
<glyph glyph-name="question" horiz-adv-x="741" unicode="?" d="M376 275q-11 26 -15 52t-4 52q0 55 17 105t43 98q25 48 55 93t56 91t43 92t17 97q0 65 -21 119t-58 91t-88 57t-112 20q-43 0 -81 -16t-68 -42q-30 -28 -46 -65q-18 -37 -18 -80q0 -65 28 -114t70 -94q12 -14 20 -28t7 -33q-1 -30 -13 -52t-46 -22q-39 0 -66 26t-44 62 q-16 38 -24 78t-8 70q0 78 24 152t72 132q46 58 112 95q66 36 150 36q70 0 132 -26t109 -73t75 -113t27 -146q0 -80 -24 -142q-23 -62 -59 -115q-36 -52 -78 -100t-76 -98q-36 -50 -60 -108t-24 -131v-10t1 -10h-25zM287 72q0 19 7 36q8 18 20 30t29 19t36 7t36 -7t30 -19 t20 -30q7 -17 7 -36t-7 -36q-7 -18 -20 -30t-30 -19t-36 -7t-36 7t-29 19t-20 30q-7 17 -7 36z"/>
<glyph glyph-name="at" horiz-adv-x="1536" unicode="@" d="M1032 782q0 -12 -10 -22t-26 -10q-14 0 -30 9t-36 20t-44 20q-26 9 -60 9q-40 0 -76 -17t-65 -45q-30 -28 -54 -66q-24 -37 -41 -77q-17 -39 -26 -79t-9 -74q0 -36 8 -68t26 -57t46 -40t69 -15q45 0 88 19t80 45q0 57 12 111q12 55 33 103q20 48 45 90t50 72l26 -6 l-18 -48t-16 -52t-11 -62t-4 -75q-1 -45 7 -83t27 -68t51 -46q32 -17 80 -17q66 0 114 33t79 84t46 114t15 123q0 95 -30 175t-81 144t-119 110t-144 78t-154 48t-151 15q-129 1 -233 -45t-177 -126t-113 -186q-40 -108 -39 -231q-1 -139 41 -263t124 -224q82 -98 203 -166 q122 -68 284 -93l-6 -22q-173 0 -313 46t-240 133t-155 213t-55 286q0 102 30 201t83 187t127 163t160 129q86 55 183 85t198 30q82 0 163 -18q82 -18 154 -54t134 -86t108 -114t70 -140q26 -76 26 -164q0 -68 -13 -137t-38 -133t-61 -120t-80 -96q-46 -40 -100 -64 t-116 -24q-42 0 -76 12t-58 30t-41 44q-16 26 -23 54q-26 -26 -56 -49t-60 -41q-32 -18 -66 -28t-69 -10q-49 0 -89 17t-68 47t-44 71t-15 89q1 55 19 112t50 111q32 53 77 101q43 48 95 84t108 56t113 20q23 0 51 -6t52 -16t38 -26q16 -16 16 -34z"/>
<glyph glyph-name="A" horiz-adv-x="1144" unicode="A" d="M1059 1075q0 -23 -8 -54.5t-23.5 -61t-38.5 -50t-53 -20.5q-16 0 -20.5 11t-4.5 24q0 42 7 83t7 85q0 43 -7 84.5t-25.5 73.5t-52 51.5t-85.5 19.5q-75 0 -138.5 -35t-116 -95t-95 -139.5t-75.5 -168.5t-56.5 -182t-39 -180t-22.5 -162.5t-7 -129.5q0 -48 4.5 -102 t16 -106.5t30.5 -100.5t48 -84.5t69.5 -58t94.5 -21.5q79 0 140 31t108.5 83t82 119.5t60.5 139.5q-5 35 -8 70.5t-3 70.5q0 24 2 59.5t7 76t14 82t22 79t31 66t42 43.5q16 9 32.5 16.5t35.5 7.5q14 0 22.5 -6t8.5 -20q0 -9 -2.5 -17.5t-6.5 -17.5q-37 -96 -54 -197 t-17 -204q0 -36 4.5 -87t12.5 -108t20 -117t27.5 -114t34 -98t40.5 -70l-18 -6q-88 89 -147.5 200.5t-87.5 233.5q-47 -111 -114 -203q-30 -39 -67 -71.5t-79 -56.5t-88.5 -37t-97.5 -13q-74 0 -130.5 26t-97.5 69t-68.5 99t-43.5 116.5t-23 121.5t-7 113q0 116 21.5 245 t62.5 255.5t101.5 242t138.5 203.5t173 140t205 52q67 0 122.5 -21.5t95.5 -61t62 -94.5t22 -122z"/>
<glyph glyph-name="B" horiz-adv-x="1164" unicode="B" d="M135 365q1 -15 9 -27t22 -20q14 -10 30 -16q18 -6 37 -10q-1 34 -1 66t-1 64q-18 -2 -35 -6q-16 -4 -30 -12q-14 -6 -22 -16t-9 -23zM336 281q78 1 154 20t146 54q-68 33 -144 49t-151 21q-2 -36 -3 -72zM493 1133q-1 -9 -3 -17t-5 -16q-17 -40 -35 -78t-31 -82 q-31 -112 -49 -234t-27 -250q81 -2 170 -20t173 -53q64 38 116 88t90 111t58 131q19 64 18 133v14q0 115 -40 206t-104 154q-66 62 -150 96t-173 34q-62 0 -129 -23t-122 -64q-54 -41 -90 -99t-36 -128q0 -27 6 -49t14 -40q8 -17 14 -33t7 -31q1 -29 -19 -49t-48 -19 q-26 0 -41 14t-23 35q-8 20 -12 44q-2 24 -2 42q0 88 42 160t108 127q42 35 84 63t88 46q44 18 94 28t106 10q135 0 243 -40t183 -108q76 -68 116 -159t40 -194q0 -95 -29 -175t-79 -148q-50 -66 -118 -118t-147 -90q51 -28 95 -64t75 -80q32 -44 50 -97t18 -115 q0 -68 -27 -128t-73 -108q-47 -46 -107 -73t-127 -27q-39 0 -82 14t-82 39q-39 24 -72 55t-53 64l14 12q50 -44 116 -70t132 -26q52 8 92 36t68 68t42 90q14 48 15 97q1 99 -43 169t-113 116q-86 -34 -176 -51t-178 -19v-74q1 -120 5 -236q6 -152 16 -290l-19 -6 q-25 66 -43 141t-30 154t-20 159t-10 159q-24 3 -48 11t-44 20t-32 27q-12 16 -12 39t12 39q12 15 30 27q19 12 43 18t48 10q0 42 1 103q2 61 6 129t14 140q10 70 27 132q18 62 45 110t67 71q15 9 33 17t38 7q31 0 31 -28z"/>
<glyph glyph-name="C" horiz-adv-x="1130" unicode="C" d="M1150 1059q0 -72 -27 -135q-27 -64 -73 -116t-105 -94q-60 -42 -126 -70q-67 -28 -135 -44t-130 -16h-6v20q90 12 174 56t150 112t106 154t39 180q1 50 -13 92t-40 72t-67 45q-40 16 -93 16q-108 1 -194 -45t-153 -122t-115 -173q-48 -98 -80 -204q-32 -107 -47 -213 t-15 -197q0 -73 10 -147t30 -144q21 -70 54 -130q34 -60 80 -105t107 -71t139 -26q54 0 104 20t94 53t80 75t60 86l12 -6q-17 -62 -58 -122q-42 -60 -98 -106t-122 -76q-66 -28 -134 -28q-89 0 -161 28q-73 28 -129 76t-97 114t-68 142t-40 160t-13 167q0 110 23 230t68 236 q45 117 111 221t150 184t188 126t224 46q75 0 137 -22q63 -22 107 -62t68 -100t24 -137z"/>
<glyph glyph-name="D" horiz-adv-x="1237" unicode="D" d="M499 1133q-1 -11 -3 -19t-5 -16q-17 -44 -39 -86t-33 -88q-45 -172 -65 -318t-24 -278q-2 -57 -2 -113q0 -75 3 -147q6 -126 14 -258l-16 -7q-25 81 -43 167t-28 175t-15 178q-4 89 -4 173q-1 39 1 95t7 120t15 130t28 124t42 103q26 45 63 67q17 9 35 17t38 9 q31 0 31 -28zM1177 461q0 -101 -21 -203t-62 -194t-101 -172q-59 -80 -137 -138t-174 -92t-206 -33q-100 1 -178 27t-132 78t-84 128q-29 76 -29 175q0 35 3 70t11 69l16 2v-14v-7q-1 -89 25 -171q26 -86 80 -154q52 -68 130 -108q78 -41 181 -41q101 -1 179 39t137 106 q57 66 97 152t64 178t34 184t11 170q-1 78 -15 170t-44 186q-30 93 -74 180q-46 87 -108 154q-62 68 -142 108t-176 40q-37 0 -76 -12t-77 -34q-37 -22 -71 -51t-59 -63t-40 -72t-15 -76q0 -28 7 -50t15 -40l16 -36q7 -16 7 -33q1 -29 -19 -49t-48 -19q-23 0 -37 10 q-13 9 -21 25t-11 35t-3 37q0 43 12 86q12 44 32 84t46 76t53 69q66 75 149 119t185 43q125 0 223 -41q98 -42 174 -112q74 -70 126 -164t84 -197q32 -104 48 -213q15 -109 15 -211z"/>
<glyph glyph-name="E" horiz-adv-x="1041" unicode="E" d="M1091 1120q0 -72 -23.5 -128.5t-63.5 -100.5t-93.5 -76t-113.5 -54t-123.5 -34.5t-123.5 -17.5v18q66 23 136.5 61t128 89.5t95 117t37.5 144.5q0 86 -47 137t-135 51q-69 0 -137 -21.5t-130 -60t-115.5 -90.5t-92.5 -113.5t-61.5 -129t-22.5 -136.5q0 -75 31 -138 t81 -112t114 -82.5t130 -50.5v-18q-32 -13 -68 -35t-72.5 -51t-70 -65t-59.5 -76t-41.5 -83.5t-15.5 -88.5q0 -116 57.5 -176t173.5 -60q65 0 124.5 17.5t111 50t94.5 78.5t75 102l13 -6q-27 -72 -78 -137t-118 -114t-146.5 -77.5t-163.5 -28.5q-65 0 -120 19t-95 56 t-63 91.5t-23 126.5q0 143 85 251.5t253 180.5q-84 0 -153 27t-118.5 76.5t-76.5 118.5t-27 153q0 82 30 162t82.5 153t123 135t152 107.5t170 71.5t175.5 26q64 0 122 -13.5t101.5 -44t69 -80.5t25.5 -122z"/>
<glyph glyph-name="F" horiz-adv-x="1057" unicode="F" d="M1317 1354q-73 -56 -170 -96t-203 -68q-106 -27 -212 -40t-197 -13q-28 0 -71 3q-42 3 -92 9q-50 7 -102 17t-98 24t-83 35q-36 20 -54 45q-11 16 -23 38t-12 44q0 28 31 28q8 0 14 -1t14 -3q39 -12 73 -25t71 -24q121 -27 243 -41t248 -14q152 0 312 23t303 77z M590 1059q0 -7 -2 -15t-6 -14q-10 -26 -21 -51t-20 -51q-35 -112 -55 -252t-25 -292q23 -2 45 -4t45 -1q46 0 99 4q53 5 104 11q52 6 96 15t74 19l12 -12q-90 -56 -212 -86t-265 -41v-51q0 -138 9 -274q11 -160 32 -302l-17 -8q-29 66 -50 142t-37 157t-24 165 q-10 84 -16 166q-20 -1 -40 -1h-42q-18 -1 -42 1t-44 8q-21 6 -35 22q-14 14 -14 40q1 16 9 28t20 20t28 10q16 4 31 4q7 0 15 -1t16 -3q23 -2 46 -6t46 -7q-2 37 -2 75v73q0 33 1 79t5 97t14 103q8 52 23 97q15 46 38 82t56 56q17 9 37 17t37 9q31 0 31 -28z"/>
<glyph glyph-name="G" horiz-adv-x="1188" unicode="G" d="M1217 258q-13 0 -27 1t-28 1q-38 0 -89 -4t-110 -11q23 -81 23 -161q0 -89 -30 -167q-30 -79 -84 -137t-130 -92t-166 -34t-164 28t-131 77t-98 115t-67 141t-38 156t-13 160q-1 109 23 229t69 236t111 222t152 186t190 128t226 48q68 0 127 -16t103 -50t69 -85 q25 -52 25 -125q0 -56 -18 -106t-52 -94q-32 -44 -76 -78q-44 -36 -92 -60q-50 -24 -102 -37q-49 -12 -97 -12h-7h-15v20q65 13 123 47t102 84t70 112t25 130q1 101 -51 161t-156 60q-108 0 -194 -46t-152 -122t-115 -175t-79 -205q-30 -105 -44 -211t-15 -195q0 -69 9 -141 q8 -72 28 -141t52 -131t78 -108t108 -73t142 -27q61 0 116 22q54 22 96 60t66 91t25 116q0 51 -17 99t-47 88q-53 -8 -105 -18t-100 -22t-88 -24t-69 -25q-9 -6 -19 -6q-14 0 -18 12t-4 23q0 18 6 40t19 44q12 20 28 36t35 21q26 8 56 12q30 3 60 5t60 2h57q42 0 103 -2 t125 -10q64 -6 121 -18t90 -30z"/>
<glyph glyph-name="H" horiz-adv-x="1232" unicode="H" d="M451 1343q0 -9 -3 -17t-6 -17q-14 -45 -32 -88t-31 -88q-23 -79 -37 -185t-22 -228q-8 -120 -10 -248q-1 -51 -1 -101q0 -75 2 -148q81 -15 169 -27t173 -19q85 -9 159 -13t128 -4h39q-19 152 -26 302t-7 281q0 38 1 91q1 52 6 112t15 122t26 116q17 54 42 98t62 66 q18 10 39 20t43 10q32 0 32 -32q0 -10 -2 -19t-6 -18q-15 -45 -32 -87t-31 -87q-23 -71 -37 -163t-22 -195t-12 -213q-2 -82 -2 -164v-54q2 -108 6 -212q4 -103 11 -192q7 -90 15 -160t18 -114l-20 -8q-40 100 -68 217t-45 242q-62 -17 -143 -29q-80 -12 -164 -18t-162 -8 t-131 -3h-68q6 -130 16 -233t23 -162l-20 -8q-36 89 -62 192t-44 213q-29 2 -56 6t-53 11q-26 5 -48 23t-38 42q-15 23 -25 51t-10 54q0 14 6 28t25 15q14 0 26 -6q29 -13 67 -23t83 -20q-13 131 -19 258t-6 239q0 39 2 92t6 113t14 120q10 62 27 116t43 98t62 66 q16 12 38 22t44 10q15 0 24 -9t9 -26z"/>
<glyph glyph-name="I" horiz-adv-x="664" unicode="I" d="M459 -313q0 -35 -35 -35q-22 0 -42.5 11t-37.5 22q-5 3 -8.5 6.5l-7.5 7.5q-64 -8 -121 -13t-97 -5q-27 0 -59 2.5t-60.5 13t-47.5 31.5t-19 59q0 28 17.5 52t48.5 24q3 0 7 -1t7 -1q63 -14 132 -23.5t139 -15.5q-9 42 -13 87.5t-6 88.5q-1 32 -1 61q1 10 1 19v61 q0 73 2 160.5t6.5 183t12 196t18 200t25 194t33.5 178.5q-85 -12 -165 -28.5t-147 -36.5q-6 -2 -11 -2h-10q-15 0 -27.5 7t-20.5 18t-12.5 25t-4.5 28q0 30 14.5 50t37.5 33t52.5 19t59.5 9t57.5 3h48.5q31 0 72 -1.5t87 -5.5q5 18 11 34.5t12 32.5l21 -9q-4 -20 -9 -61 q52 -5 106 -11.5t103 -16.5t90 -22.5t68 -27.5l-10 -16q-25 3 -50.5 3.5t-49.5 0.5q-60 0 -128 -5t-140 -13q-5 -67 -10 -150.5t-8.5 -178.5t-5.5 -197t-2 -205.5t2 -204.5t7.5 -193t14 -172.5t20.5 -142.5q27 -1 53.5 -1.5t52.5 -0.5q53 0 107 2.5t106 13.5l10 -16 q-21 -15 -53.5 -28t-72 -25t-85 -22.5t-92.5 -18.5q3 -8 5 -15.5t2 -15.5z"/>
<glyph glyph-name="J" horiz-adv-x="1090" unicode="J" d="M991 289q1 -77 -13 -159t-42 -158t-71 -144t-102 -118t-135 -80q-76 -29 -167 -29q-89 -1 -173 25t-147 76q-65 50 -103 125q-38 74 -38 171q0 58 14 114t38 109q24 52 59 98t79 84l19 -10q-35 -69 -53 -141t-19 -148q0 -80 22 -158q23 -78 67 -138q44 -62 111 -100 t157 -38q74 0 128 24t90 64q38 40 62 94t36 114t16 123t5 122q0 124 -14 254t-38 262t-56 262t-68 254q-83 -26 -157 -53t-129 -51l-15 -5t-14 -1q-16 -1 -29 7t-22 20t-14 26t-5 28q0 22 8 38t22 30q14 13 30 22q17 9 35 15q49 17 115 29t137 17q-5 16 -9 31t-10 31l18 11 l24 -34t24 -35q52 3 100 5t86 2h57t65 -4q33 -2 64 -8t54 -16l-7 -17q-70 -2 -163 -20t-192 -46q64 -110 112 -230q48 -121 82 -245t52 -250t17 -251z"/>
<glyph glyph-name="K" horiz-adv-x="1227" unicode="K" d="M289 279q55 9 106 30q-23 31 -47 57t-56 42l-2 -64t-1 -65zM60 344q0 -18 11 -30t29 -21t37 -13q20 -4 38 -6q-4 78 -6 152q-19 -2 -39 -6t-36 -14t-24 -24q-10 -15 -10 -38zM497 1339q1 -9 -3 -18l-8 -18q-18 -42 -38 -82t-37 -82q-27 -70 -47 -151t-34 -170t-23 -184 t-13 -194q54 -11 99 -33t87 -54q80 49 148 123t124 161t102 182t80 187t58 176t39 149q4 22 19 44q16 22 36 40q20 17 44 29t47 12t33 -14t10 -35v-14q-11 -93 -41 -195q-29 -102 -75 -206t-108 -203t-136 -187t-161 -160t-184 -119q19 -17 39 -35t41 -38q89 -84 175 -171 t175 -169q90 -82 188 -154t212 -124q30 -14 67 -28t76 -23q40 -10 78 -16t71 -6q17 -1 33 1t33 7l4 -21q-43 -24 -92 -34t-100 -9q-39 -1 -83 5t-89 16t-87 26q-42 14 -77 31q-103 51 -201 121t-189 150q-91 81 -173 170t-148 181q-14 19 -28 39t-27 40q-60 -19 -125 -27 v-77q0 -115 4 -227q6 -149 16 -285l-22 -8q-26 65 -44 137t-31 148q-13 75 -21 153t-14 155q-22 3 -46 9t-44 18t-32 29q-12 18 -12 43q0 24 12 42t30 29q18 13 40 19t45 8v56q0 49 1 123q0 74 6 159t18 173t36 165q22 77 56 135t86 84q20 11 42 20t44 9q15 0 27 -7t12 -26z "/>
<glyph glyph-name="L" horiz-adv-x="921" unicode="L" d="M981 -68q-11 -72 -49 -126t-94 -88q-54 -34 -120 -51t-131 -17q-47 0 -97 12t-100 26t-100 26q-48 12 -92 12q-20 0 -44 -5t-46 -14t-42 -23q-19 -14 -30 -30l-16 8q4 42 22 77t44 61q28 26 64 40t77 15h19t20 -1q-42 100 -70 220t-43 244q-17 124 -23 247t-6 230 q0 36 2 84q2 47 6 101t14 108t27 102t42 86t61 59q20 11 40 20t42 9q14 0 24 -6t11 -23q-1 -9 -3 -17t-5 -15q-17 -36 -33 -70t-27 -70q-27 -87 -43 -189t-24 -213t-9 -229v-36q1 -100 5 -198q6 -116 15 -230q10 -114 24 -217q41 -5 85 -15l88 -20t91 -16q46 -7 94 -7 q45 -1 91 7t86 25q42 17 77 45t59 69z"/>
<glyph glyph-name="M" horiz-adv-x="1704" unicode="M" d="M2204 -464q-34 -25 -74 -34t-79 -9q-137 1 -243 41t-188 111q-80 71 -136 167t-94 207t-58 232t-27 241q-5 80 -5 159q0 39 2 77q4 116 13 215q-18 -27 -44 -86q-25 -59 -57 -138t-66 -173l-68 -188t-64 -186q-32 -92 -56 -167t-42 -127t-23 -71q-5 -12 -11 -30t-16 -35 t-22 -29t-28 -12q-18 1 -30 15t-20 34t-12 40t-6 32q-6 42 -11 106t-9 142t-5 166t-3 178t-2 176t-2 162v136v96q-22 -50 -52 -127t-66 -173t-74 -206t-76 -228q-38 -117 -72 -236t-62 -231q-4 -11 -8 -25t-11 -27t-17 -23t-26 -9q-14 0 -25 9q-11 10 -19 22t-12 26t-5 27 q-5 25 -9 55t-6 62t-4 62t-4 56q-12 137 -16 271t-4 270q0 134 4 266t14 267q3 40 9 88q5 48 23 91t52 72t91 29q14 0 24 -6t10 -23v-10q-9 -59 -18 -119t-19 -122q-24 -200 -40 -400t-17 -401q0 -79 3 -156t11 -155q69 214 121 379t93 289q39 124 67 212t47 146t30 94 t18 56t10 28q3 9 6 16q15 34 41 61t67 27q27 0 45 -14t28 -35t14 -46t3 -46q-2 -155 -9 -307t-12 -300q-5 -135 -5 -269q1 -13 1 -27q0 -147 13 -293q40 119 74 223q35 104 65 199t58 183t60 174q30 86 63 172t73 177q9 19 20 37t25 33t32 25t40 10q31 0 49 -20t28 -48 t12 -58q3 -30 3 -52q0 -92 -6 -204q-7 -112 -9 -231q-1 -40 0 -80q0 -81 3 -163q5 -123 27 -238t65 -215q43 -101 116 -175t181 -117t258 -43q22 0 44 4t42 12z"/>
<glyph glyph-name="N" horiz-adv-x="1181" unicode="N" d="M1681 -464q-32 -25 -72 -34t-82 -9q-149 0 -262 45t-196.5 123t-139.5 183.5t-90.5 227t-50.5 252.5q-16 130 -20 259q-1 45 -2 89q0 82 4 161q6 121 18 222q-58 -74 -110 -178t-96.5 -223t-82.5 -244.5t-68.5 -244.5t-54 -223t-39.5 -178q-2 -8 -4.5 -21t-8 -25 t-14.5 -20.5t-22 -8.5q-12 0 -23 7.5t-20 18t-15.5 23t-9.5 23.5q-30 97 -44 209t-20 226q-5 105 -6 208v19q0 113 1 214q0 112 3 224t11 224q3 40 8.5 89t22.5 91t49 70.5t88 28.5q14 0 23.5 -6.5t9.5 -22.5v-8q-13 -119 -24 -233.5t-19.5 -228.5t-13 -229.5t-4.5 -236.5 q0 -118 5 -236.5t17 -236.5q37 170 77.5 332t92.5 317.5t120 303.5t159 290q8 13 20.5 30.5t28 33t32.5 26.5t35 11q22 0 34.5 -20t18 -46.5t6.5 -53.5t1 -42q-7 -94 -16.5 -211t-12.5 -245q-1 -40 -1 -81q0 -88 4 -179q6 -132 30.5 -255.5t70.5 -232t121.5 -189.5t184 -128 t258.5 -47q21 0 43.5 3.5t42.5 12.5z"/>
<glyph glyph-name="O" horiz-adv-x="1204" unicode="O" d="M1149 496q0 -81 -14.5 -176.5t-44.5 -190.5t-76 -183.5t-109.5 -156t-145 -108.5t-182.5 -41q-100 0 -177.5 37.5t-135.5 100t-98 144.5t-64.5 171t-35.5 179t-11 170q0 85 8 175.5t27.5 180t51.5 175t79.5 160t112 135t149.5 100.5l8 -14q-60 -49 -105.5 -113 t-79 -137.5t-56.5 -154t-36.5 -162t-19.5 -162t-6 -154.5q0 -69 9.5 -152t31.5 -168t58 -165t88 -142t122 -99.5t160 -37.5q72 0 128.5 35.5t98.5 93.5t71 132t47 150t26 147.5t8 125.5q0 42 -4.5 99.5t-15 122.5t-26.5 134t-40 134.5t-55.5 123.5t-72.5 102t-91 69.5 t-111 25.5q-54 0 -92 -25.5t-61.5 -65.5t-34 -88.5t-10.5 -94.5v-13.5t2 -13.5l-15 -2q-3 22 -5.5 44.5t-2.5 45.5q0 62 16.5 120.5t49.5 103.5t83.5 72.5t118.5 27.5q95 0 167.5 -41t126 -108t89 -153.5t57.5 -177t31 -178.5t9 -159z"/>
<glyph glyph-name="P" horiz-adv-x="1180" unicode="P" d="M503 -324q0 -28 -31 -28q-20 0 -38 8t-33 16q-31 17 -55 50t-40 76q-16 44 -28 94t-18 102q-7 52 -11 103t-5 95q-28 11 -58 25q-30 13 -54 31t-38 38q-15 20 -15 44q1 18 9 32t28 15q17 1 32 -7t30 -20t31 -28t34 -31q0 103 7 217t25 228q19 114 49 224q30 109 77 201 l18 -6q-33 -173 -49 -347t-16 -347q0 -65 4 -127t10 -124q30 -12 67 -19t82 -7q75 0 141 23t120 63t97 96q42 54 71 118t44 132t15 138q0 68 -15 138q-14 70 -44 138q-30 66 -72 124t-98 102t-122 68q-66 26 -143 26q-63 0 -130 -23t-121 -65t-90 -99q-36 -58 -36 -127 q0 -26 6 -48t14 -40t14 -34t7 -31q1 -29 -19 -49t-48 -19q-26 0 -41 14t-23 35q-8 20 -12 44q-2 24 -2 42q0 88 42 160t108 127q42 35 84 63t88 46q44 18 94 28t106 10q130 0 240 -44t190 -124t124 -190t44 -240q0 -134 -48 -252t-132 -206t-200 -137q-116 -50 -253 -50 q-35 0 -71 4t-71 10q33 -226 120 -446q3 -9 5 -17t3 -16z"/>
<glyph glyph-name="Q" horiz-adv-x="1204" unicode="Q" d="M1149 496q0 -64 -9 -138q-10 -74 -28 -148q-18 -76 -46 -150t-68 -142q-38 -66 -88 -122t-110 -92q87 -58 186 -92t199 -33q97 0 173 62l10 -19q-63 -57 -139 -95t-162 -38q-123 0 -217 45t-163 120q-54 -14 -110 -14q-99 0 -177 38t-136 100t-98 144t-64 171t-36 179 q-11 90 -11 170q0 86 8 176q7 90 27 180t52 174q32 86 80 160t112 136q64 60 149 100l8 -14q-59 -49 -105 -113q-46 -63 -80 -137t-56 -154t-36 -162t-20 -162t-6 -155q0 -68 10 -150t30 -166q22 -83 56 -163t86 -142q50 -62 118 -100t156 -42q-52 74 -82 162t-36 179l12 6 q20 -93 80 -176t145 -148q51 23 91 69t71 104q29 58 51 123t35 131t19 126t6 107q0 41 -4 99t-16 123q-10 65 -26 134t-40 135t-56 123q-32 58 -72 102q-41 43 -91 69t-111 26q-54 0 -92 -26t-62 -65q-24 -41 -34 -89t-10 -94v-14t2 -13l-15 -2q-3 23 -5 45t-3 45 q1 63 17 121t49 103t83 73t119 27q95 0 167 -41t126 -108q54 -68 90 -154t57 -176q22 -90 31 -179q9 -88 9 -159z"/>
<glyph glyph-name="R" horiz-adv-x="1221" unicode="R" d="M346 158q31 0 61 4t59 11q-26 35 -54 63t-65 45q-1 -31 -1 -61v-62zM145 236q0 -14 9 -25t24 -19q16 -8 34 -15q18 -6 38 -10q-2 33 -4 67t-3 67q-17 0 -35 -2t-31 -9q-14 -8 -23 -20t-9 -34zM503 1133q-1 -9 -3 -17t-5 -16q-17 -40 -36 -78t-30 -82q-37 -150 -55 -303 t-25 -308q65 -14 117 -46t100 -76q94 40 172 100t133 138t85 173t30 203q0 61 -18 123t-48 121q-32 59 -76 111t-96 90q-54 38 -114 62q-60 22 -125 22q-63 0 -129 -23t-121 -65t-90 -99q-35 -58 -35 -127q0 -26 6 -48t14 -40t14 -34t7 -31q1 -29 -19 -49t-48 -19 q-26 0 -41 14t-23 35q-8 20 -12 44q-2 24 -2 42q0 88 42 159t108 128q42 36 84 63t88 46q46 18 95 28t105 10q80 0 154 -20t140 -57t120 -89t94 -116q38 -64 60 -138t22 -157q0 -121 -44 -223t-117 -182q-74 -80 -172 -140q-98 -58 -206 -91l21 -21t22 -21q60 -59 120 -125 t122 -131q63 -65 130 -125t142 -104q76 -46 160 -73t181 -27q17 0 33 2t32 6l5 -20q-44 -23 -93 -33t-100 -10q-106 -1 -193 21t-161 61t-137 93t-121 120q-58 64 -114 138t-114 152q-14 16 -26 34t-24 35q-36 -5 -72 -9t-70 -5q0 -122 6 -241t14 -234l-19 -6 q-41 106 -63 232t-32 254q-26 4 -51 11t-45 19t-34 32q-12 18 -12 44q0 24 12 42t32 28q20 12 42 18q23 6 46 9q-1 27 -1 55v54q1 41 1 102t4 130q4 68 15 140q9 72 27 135t46 112t67 72q15 9 33 17t38 7q31 0 31 -28z"/>
<glyph glyph-name="S" horiz-adv-x="1124" unicode="S" d="M1154 1098q0 -82 -40.5 -153t-105 -123t-143.5 -82q-74 -28 -146 -27h-10h-16v18q66 14 124.5 48.5t102 84.5t69 112t25.5 130q0 45 -11 85t-34 69t-58.5 46t-84.5 17q-70 0 -142 -21t-139 -59t-125.5 -90t-102 -114t-68.5 -132t-25 -143q0 -78 22.5 -134.5t61 -99 t89.5 -72.5t109 -54.5t118.5 -45.5t118.5 -45t109 -53.5t89.5 -70t61 -96t22.5 -130.5q0 -82 -33.5 -146t-88.5 -107.5t-126 -66t-146 -22.5q-81 0 -150 27.5t-124 74t-96 107t-66 125.5l15 8q30 -53 69 -104.5t88 -92t108.5 -65.5t129.5 -25q57 0 106 16t85 46t56.5 74 t20.5 100q0 82 -35 135t-92 90t-130 63t-149.5 52.5t-149.5 60t-130 84.5t-92 126.5t-35 185.5q0 100 31 188.5t85.5 162.5t128.5 132.5t159.5 99.5t178.5 62.5t187 21.5q67 0 126.5 -16t103 -49.5t69 -86.5t25.5 -126z"/>
<glyph glyph-name="T" horiz-adv-x="929" unicode="T" d="M572 1430q-4 -14 -8 -36t-7 -47q73 -6 151 -16q78 -9 154 -25t144 -36t123 -47l-8 -19q-109 14 -219 20t-219 5q-35 0 -71 -2t-71 -4q-8 -75 -16 -165q-9 -90 -15 -190t-10 -206t-7 -214q-1 -61 -1 -120v-88q2 -102 8 -196q6 -92 17 -171t28 -137q1 -8 5 -18t4 -19 q0 -15 -8 -25t-25 -10q-21 0 -43 12t-39 23q-30 20 -46 64t-23 95t-8 100t-1 81q-1 76 3 168q4 91 10 193t17 210q10 108 24 212q13 106 31 207t40 190q-74 -5 -148 -13t-142 -21q-70 -13 -134 -27t-117 -32q-12 -6 -26 -6q-29 0 -29 29q0 20 11 41t22 37q17 25 51 43t76 32 q44 14 92 24t95 16t87 10q40 2 66 2q30 0 63 -2t68 -3q16 50 33 89z"/>
<glyph glyph-name="U" horiz-adv-x="1230" unicode="U" d="M1165 1217q14 0 24.5 -6t10.5 -21q0 -18 -7 -37.5t-17 -39.5t-20 -39t-17 -36q-59 -151 -87 -310.5t-28 -324.5q0 -95 9 -194t30 -196.5t54.5 -191t82.5 -177.5l-20 -6q-97 103 -164 227.5t-102 261.5q-27 -88 -64 -174t-90.5 -154.5t-125 -110.5t-167.5 -42 q-73 0 -129 29.5t-98 79t-70.5 113t-46.5 131.5t-25.5 135.5t-7.5 123.5q0 143 22 288t65.5 284.5t108.5 270t152 245.5l21 -11q-37 -66 -67.5 -144t-54.5 -162.5t-42 -173t-29.5 -176.5t-17.5 -172t-6 -159q0 -46 2.5 -107.5t11.5 -127.5t27 -130t49 -114.5t77 -81.5 t111 -31q64 0 115 22.5t90 61.5t67.5 90.5t47.5 109.5t30.5 119t16.5 119q-6 58 -6 117q0 82 8.5 175.5t26 187.5t44.5 183.5t64 164.5q12 22 25.5 42t30 35.5t37.5 24.5t48 9z"/>
<glyph glyph-name="V" horiz-adv-x="1131" unicode="V" d="M587 -199q-3 7 -7 13t-7 15q-1 -1 -1 -3t-1 -4q-4 -15 -9 -32t-9 -35q-5 -17 -7 -35t-2 -33q0 -13 4 -27t21 -14q23 0 35 16t12 37q0 26 -10 52t-19 50zM194 1370q-16 -19 -26 -49t-15 -63t-7 -66t-1 -57q1 -135 25 -265t68 -254t104 -242t134 -229q21 -32 45 -70t46 -80 q12 37 24 73t23 65q28 81 62 176t72 195t82 204q42 102 88 198t96 181t103 152q15 19 37 41t46 40q25 18 52 30t54 12q11 0 23 -5t12 -18q0 -8 -4 -15t-9 -13q-220 -329 -398 -680t-324 -718q18 -45 30 -89t12 -86q0 -17 -4 -38q-4 -22 -12 -40q-9 -18 -24 -30t-37 -13 q-20 0 -32 10q-12 11 -18 25t-8 31t-2 32q-1 37 7 81t19 92q-19 28 -39 56l-40 56t-40 52q-18 25 -32 46q-67 96 -131 198t-114 208q-51 108 -81 222t-30 235q0 115 35 221t110 196z"/>
<glyph glyph-name="W" horiz-adv-x="1764" unicode="W" d="M654 610q0 -57 6 -121t20 -131q14 -68 34 -134t48 -128q17 53 29 109q12 55 20 109q7 54 11 102t4 86q0 58 -6 119t-17 111t-31 82t-48 32q-16 0 -28 -15t-18 -37q-8 -22 -13 -51t-7 -55t-4 -47v-31zM511 1358q-69 -84 -125 -182t-95 -208q-40 -112 -61 -238t-21 -271 q0 -69 5 -143q6 -74 18 -146t34 -136t55 -113q34 -49 82 -77t113 -29q60 -1 106 39t82 104q-32 66 -56 138t-38 144q-16 72 -24 144q-8 71 -7 134q-1 29 1 73q2 45 8 93t18 97t31 87t49 64q30 24 73 24q39 0 67 -24t49 -62q20 -38 33 -84q12 -48 20 -94t10 -88q2 -41 3 -67 q1 -57 -7 -124t-24 -139t-38 -144q-23 -72 -54 -139q30 -47 65 -87t77 -68t88 -44q47 -16 100 -15q81 1 144 31t109 82q45 52 77 122t51 149t27 163t8 165q0 115 -22 231t-62 224q-42 108 -104 207q-62 98 -142 179t-180 141t-217 94l20 24q138 -31 253 -97 q116 -66 208 -158t162 -205t116 -238t70 -258t23 -264q-1 -81 -13 -167t-39 -170q-27 -82 -69 -156t-103 -128q-59 -56 -139 -88t-180 -33q-65 0 -122 18q-57 19 -106 51q-48 32 -90 77t-76 99q-29 -43 -62 -79q-33 -35 -71 -61q-39 -26 -81 -40t-89 -14q-79 0 -137 34 t-100 88t-68 122t-42 139q-16 69 -21 135q-6 66 -6 114q-1 312 105 580t312 483z"/>
<glyph glyph-name="X" horiz-adv-x="1038" unicode="X" d="M1240 1372q6 0 12 -4t6 -12t-4 -17t-12 -18q-7 -9 -14 -17t-11 -14q-54 -62 -108 -120t-107 -121q-131 -155 -249 -317t-232 -330q137 -217 301 -411t352 -356l-12 -18q-102 61 -198 135t-188 160q-92 84 -176 178q-85 94 -161 191q-110 -164 -217 -327t-219 -325l-23 17 q102 176 204 348t210 346q-114 154 -203 313q-33 59 -67 129t-62 142q-28 74 -46 148t-18 145q0 16 4 42q4 27 14 51t24 42t36 18q12 0 20 -6t14 -17t8 -21q3 -10 5 -17q55 -215 145 -425t210 -412q94 146 190 286t201 278q15 22 39 52t52 62t59 65t63 61t61 51q30 22 56 33 q9 4 19 8t22 4z"/>
<glyph glyph-name="Y" horiz-adv-x="985" unicode="Y" d="M1085 1262q0 -39 -12.5 -80.5t-28.5 -75.5q-42 -97 -95.5 -186.5t-114.5 -176.5q-16 -22 -42.5 -52.5t-57.5 -65.5t-63 -73t-60 -75.5t-48.5 -72t-27.5 -62.5q-7 -25 -7 -52v-50q0 -24 1.5 -68.5t4 -99t7.5 -113.5t11.5 -112t16 -94.5t21.5 -61.5l4 -8t2 -9 q0 -7 -4.5 -11t-10.5 -6t-12 -2.5t-10 -0.5q-22 0 -42.5 4t-39.5 10q-30 10 -47 30t-26 45.5t-11 54t-2 55.5q0 51 4 112t10.5 123.5t15.5 123.5t19 114q-8 18 -29.5 46.5t-48 59t-51.5 58.5t-39 45q-48 58 -96.5 125t-87.5 140.5t-63.5 151.5t-24.5 158q0 59 19.5 112 t62.5 91q9 8 23 19.5t29.5 22t31.5 18t29 7.5q20 0 20 -22v-7t-2 -8q-11 -48 -17 -95t-6 -97q0 -114 26 -212t69 -189t98 -178.5t113 -178.5q37 56 80 119t86 130t83.5 137.5t71.5 142t49.5 143t18.5 141.5q0 26 -3.5 50t-11.5 47v8q0 15 12.5 24t29 14t34 7t27.5 2 q25 0 45.5 -4.5t35.5 -15.5t23 -29.5t8 -46.5z"/>
<glyph glyph-name="Z" horiz-adv-x="1087" unicode="Z" d="M1059 -127q-59 -41 -141 -75t-172 -60q-92 -25 -187 -39t-180 -14q-33 0 -75 3t-84 12q-42 8 -82 24t-70 40q-11 -10 -21 -18t-21 -18l-12 22q8 10 14 20t15 18q-17 20 -25 43t-8 52q0 13 6 22t19 9q5 0 10 -1t10 -3q15 -6 31 -12l32 -12q104 138 198 275t183 279 q58 96 114 186t106 182q49 92 93 190q44 97 77 204v1q-75 3 -152 3q-75 0 -155 -3t-160 -13q-81 -10 -161 -26q-80 -17 -156 -45q-5 -1 -10 -3t-11 -2q-17 0 -22 12t-5 27q0 23 8 47t19 45q11 23 35 41t55 30q30 12 66 20t71 12t66 6t53 2q50 0 109 -5t121 -15t126 -22 q64 -14 122 -31v1l1 2q1 6 3 16t6 17q4 8 10 14t16 6q11 0 22 -8q10 -8 20 -21t18 -30t14 -34q42 -16 79 -36l-6 -22q-15 2 -30 3l-30 2q1 -4 1 -7v-6q0 -52 -22 -116t-53 -130t-66 -124q-35 -60 -60 -103q-59 -100 -134 -210t-159 -220t-176 -215t-183 -195q80 -19 164 -24 t175 -5q134 0 268 14t262 42z"/>
<glyph glyph-name="bracketleft" horiz-adv-x="611" unicode="[" d="M722 -322q-35 -14 -90 -30q-54 -16 -116 -30t-124 -24q-62 -11 -111 -15l1 -3v-2l-21 -11q-4 10 -5 14q-8 -1 -14 -1h-13q-27 0 -54 4t-48 16t-35 32t-13 52q-1 12 3 26t11 25t17 18t26 7h11q17 -3 33 -6t34 -5q-16 87 -28 195t-20 224t-12 236t-6 234v89v127 q2 102 7 181q2 33 4 81t10 97q-4 -3 -8 -3t-8 -1q-4 -2 -15 -2q-15 -1 -26 7q-10 8 -18 20t-12 26t-3 27q0 39 20 61q19 22 49 33t64 14t65 3l28 12t28 6q12 0 18 -6t8 -16q44 -4 95 -10t100 -14q48 -8 92 -18t74 -18l-8 -16q-94 -14 -185 -30t-183 -36q-8 -54 -18 -110 t-18 -113q-15 -119 -26 -227q-12 -108 -18 -212t-8 -204q-2 -72 -2 -146v-58q2 -104 6 -213t11 -228q109 -17 219 -27t222 -18z"/>
<glyph glyph-name="backslash" horiz-adv-x="788" unicode="\" d="M74 1299l124 29l490 -1530l-18 -2z"/>
<glyph glyph-name="bracketright" horiz-adv-x="611" unicode="]" d="M-97 -308q111 8 219 18t218 26q7 168 11 324q3 104 3 208q0 52 -1 104q-2 156 -13 316t-33 337q-7 57 -17 113t-20 110q-90 20 -182 36t-185 30l-8 16q29 8 73 18t93 18t99 14t95 10q3 10 9 16t18 6q14 0 28 -6l28 -12q30 0 64 -3t64 -14t50 -33t20 -61q0 -13 -4 -27 t-10 -26q-8 -12 -19 -20t-26 -7q-11 0 -15 2q-10 2 -16 4q8 -49 10 -97t4 -81q3 -96 3 -218q-1 -19 -1 -41q0 -148 -8 -317t-24 -351t-45 -361q21 3 41 6t42 7h11q15 0 25 -7t18 -18q6 -11 10 -25t4 -26q0 -32 -14 -52t-34 -32q-21 -12 -48 -16t-54 -4h-14t-16 1 q-1 -3 -1 -7t-1 -7l-21 11v5q-49 4 -111 15q-62 10 -124 24t-116 30t-89 30z"/>
<glyph glyph-name="asciicircum" horiz-adv-x="655" unicode="^" d="M605 826l-12 -11l-265 210l-266 -210l-12 11l282 353z"/>
<glyph glyph-name="underscore" horiz-adv-x="500" unicode="_" d="M0 -150h500v-72h-500v72z"/>
<glyph glyph-name="grave" horiz-adv-x="500" unicode="`" d="M401 638q-98 46 -174.5 105.5t-138.5 144.5l128 86q17 -51 38 -94t45.5 -81.5t53 -74.5t59.5 -72z"/>
<glyph glyph-name="a" horiz-adv-x="735" unicode="a" d="M522 524q0 -11 -8 -19.5t-19 -8.5q-9 0 -19 5.5t-22.5 12.5t-29 12.5t-37.5 5.5q-49 0 -87.5 -30.5t-65 -75.5t-40.5 -96t-14 -92q0 -29 5 -56.5t17.5 -50t34.5 -36t56 -13.5q36 0 69 13.5t62 35.5q1 32 10.5 67.5t24.5 70t34.5 65.5t40.5 55l13 -8q-11 -34 -16 -70 t-5 -71q0 -36 6 -68t21 -55.5t41 -37t67 -13.5q50 0 92 23t74 58l8 -4q-18 -35 -47 -67t-64.5 -57.5t-75.5 -40.5t-79 -15q-55 0 -90 31.5t-48 79.5q-42 -42 -93.5 -70.5t-108.5 -28.5q-42 0 -74.5 15.5t-54.5 41.5t-33.5 61.5t-11.5 74.5q0 45 14.5 92.5t40 93.5t60.5 87 t76.5 72t87.5 49t94 18q11 0 27 -2.5t31 -8.5t25.5 -17t10.5 -28z"/>
<glyph glyph-name="b" horiz-adv-x="703" unicode="b" d="M722 1239q0 -69 -20 -137t-53 -130q-35 -64 -81 -122t-100 -106t-113 -88t-118 -65l-7 15q74 36 142 100t118 144q52 80 82 170q30 89 31 174q-1 17 -3 35t-10 33q-8 14 -20 24q-13 10 -34 10q-59 0 -109 -40q-51 -40 -91 -106t-71 -153q-31 -86 -52 -177t-31 -180 t-11 -163q1 -39 5 -87t16 -95t30 -93t46 -81t68 -57q39 -22 91 -21q33 0 57 13t38 35t21 50t7 57q0 45 -12 95t-38 91t-65 68t-92 27q-15 -1 -31 -3t-30 -7l-6 10q36 27 80 47t92 20q51 0 91 -22q39 -22 67 -57t42 -81t15 -91q1 -69 -23 -129t-66 -104t-100 -70 q-58 -25 -129 -25q-59 -1 -105 21t-80 58t-57 84t-37 100t-20 105t-6 101q0 88 16 192t46 208t76 202t108 173t139 120t170 45q65 0 96 -38t31 -99z"/>
<glyph glyph-name="c" horiz-adv-x="582" unicode="c" d="M682 143q-26 -43 -68 -77t-90 -56q-50 -24 -104 -36t-102 -13q-60 0 -112 18q-52 19 -90 53t-60 82t-21 111q-1 70 25 137t72 119q46 51 108 83t135 32q24 0 48 -5t44 -17q21 -12 33 -30q12 -19 12 -48q0 -28 -15 -50t-38 -36t-49 -22t-51 -13v14q15 4 31 11t30 18t24 26 t9 33q-1 13 -7 23t-16 16t-21 9q-12 3 -24 3q-51 0 -91 -22t-69 -60q-29 -37 -43 -83t-14 -93q0 -54 16 -96t47 -73q30 -30 73 -46t96 -16q34 -1 72 7t76 22q36 14 69 34t57 45z"/>
<glyph glyph-name="d" horiz-adv-x="876" unicode="d" d="M314 84q58 0 106 22t88 58q-18 38 -32 80t-24 86t-14 87q-6 44 -9 85q-12 14 -30 22t-44 8q-47 0 -83 -26t-62 -64q-25 -38 -38 -84t-13 -86q1 -38 9 -72t27 -60t49 -41t70 -15zM566 700v-84t2 -100t10 -108q6 -56 19 -108q42 82 77 178q34 96 60 198t40 202 q14 101 14 191q0 19 -2 55t-11 72t-27 62t-49 26q-24 0 -43 -22t-33 -60q-13 -38 -23 -86t-16 -100t-10 -103t-6 -95t-2 -74v-44zM976 143q-16 -33 -40 -59t-54 -46q-30 -18 -64 -28t-71 -10q-79 0 -133 38t-91 99q-27 -29 -59 -59t-70 -52q-36 -22 -75 -37q-39 -14 -78 -14 q-47 0 -84 19q-37 18 -63 50t-40 72t-14 85q0 66 30 133q30 68 78 122t111 88t131 34q20 0 35 -4v42q0 29 2 77q2 49 8 107q5 58 15 122t26 128t36 122q21 58 49 100q28 44 64 70t81 26q53 0 86 -31t52 -77q20 -46 26 -96q6 -51 6 -91q0 -53 -10 -121t-28 -144t-43 -157 q-25 -80 -54 -154q-29 -73 -63 -137t-67 -108q13 -39 31 -72t44 -57q25 -23 57 -37t73 -14q94 0 154 75z"/>
<glyph glyph-name="e" horiz-adv-x="588" unicode="e" d="M170 266h25q36 0 74 11.5t68.5 34t50.5 55.5t20 75q0 41 -17.5 68t-60.5 27q-44 0 -74.5 -26.5t-49.5 -65t-27.5 -81t-8.5 -75.5v-23zM688 143q-26 -38 -62.5 -71t-80 -57t-91 -38t-95.5 -14q-68 0 -127 17.5t-103 53.5t-69 90.5t-25 127.5q0 72 26.5 134.5t73 109 t109.5 73.5t135 27q34 0 63.5 -9.5t51.5 -28t34.5 -45.5t12.5 -62q0 -42 -17 -74t-45 -56t-63.5 -40t-74 -26t-76 -14.5t-68.5 -4.5h-24q13 -91 72 -139t163 -48q74 0 144.5 26t127.5 72z"/>
<glyph glyph-name="f" horiz-adv-x="524" unicode="f" d="M589 580q-18 -16 -49 -32t-70 -30q-40 -14 -84 -27t-88 -23v-88q0 -88 -1 -176q-3 -132 -13 -264t-32 -260q-22 -129 -60 -253h-25v1016q-25 -3 -46 -5t-37 -2q-20 0 -38 2t-34 12q-14 8 -23 23t-9 41q0 30 20 48t49 18t59 -2t59 -6v3q-1 71 3 157t18 171q14 86 39 167 q25 82 71 144t114 100t165 38q51 0 90 -18t65 -50t39 -74t13 -90q0 -52 -19 -102t-50 -94t-71 -80t-84 -62l-10 23q28 27 50 61t36 73t20 79t7 80q0 34 -8 70t-25 66t-45 48t-68 18q-57 0 -95 -31t-64 -80q-24 -49 -37 -111t-19 -124t-6 -117v-94v-90t1 -90q69 -1 143 5 t139 26z"/>
<glyph glyph-name="g" horiz-adv-x="628" unicode="g" d="M583 -307q0 -81 -19 -165t-60 -156q-42 -71 -106 -120t-155 -61q-9 -2 -17 -3t-18 -1q-55 0 -104 22q-50 21 -86 59t-57 88t-21 103q0 60 24 115q24 56 65 102t91 82t103 56l6 -13q-97 -52 -150 -143t-53 -201q0 -45 12 -87t38 -75q24 -31 62 -51t87 -20q69 0 115 36 t74 90t38 118q12 64 12 118q0 48 -6 94l-12 92t-13 91q-6 46 -6 94q1 34 3 70t9 73q-43 -52 -101 -88t-124 -37q-42 -1 -74 15t-54 42t-34 62t-12 74q0 46 14 94t40 94t61 86t77 70t87 48q46 18 94 18q25 0 49 -6t44 -20q20 -13 34 -33q12 -20 12 -48q0 -20 -9 -36 q-9 -17 -23 -29t-31 -22t-33 -17l-4 12q8 9 11 22t3 25q0 18 -6 36t-16 34t-26 26t-36 10q-51 0 -92 -28q-42 -28 -70 -69t-44 -91t-15 -94q-1 -29 5 -59t19 -54q13 -23 35 -39t58 -16q54 0 100 28t82 68q14 40 36 76t56 61l17 -12q-23 -37 -30 -84t-7 -92q0 -53 8 -106 t18 -107t17 -109q8 -55 8 -112z"/>
<glyph glyph-name="h" horiz-adv-x="825" unicode="h" d="M915 147q-17 -35 -41 -71t-55 -64q-30 -28 -66 -47q-36 -18 -77 -18q-45 -1 -78 23t-56 62t-38 89q-15 50 -25 103q-11 53 -17 106t-12 97q-32 -42 -58 -89q-26 -48 -50 -98t-47 -102t-49 -103q-6 -11 -12 -23t-14 -24q-8 -10 -19 -17t-26 -7q-13 0 -23 5t-16 13t-10 16 q-4 9 -6 17q-12 43 -22 108t-16 139t-10 150t-4 142q0 94 12 192t38 192t64 178q40 84 94 146q54 63 124 100t155 37q57 1 90 -33t33 -96q0 -92 -32 -178t-84 -164q-50 -78 -112 -148t-118 -128l-13 10q25 28 53 70t56 90t53 102t44 105q19 53 30 101t11 88q0 21 -4 40 q-4 20 -14 34t-26 22t-37 9q-45 0 -83 -34q-38 -33 -70 -91t-56 -134t-42 -159t-27 -168t-9 -162v-105t2 -111t10 -123q6 -65 18 -141q44 113 93 223t106 201q9 13 17 26t18 23t22 18q12 7 26 7q17 1 27 -9t16 -24q7 -14 9 -30t4 -29q4 -29 9 -75t12 -98t17 -106t28 -96 q16 -42 39 -69t55 -27q26 0 52 11t50 28t44 39t35 43z"/>
<glyph glyph-name="i" horiz-adv-x="464" unicode="i" d="M564 143q-22 -37 -54 -69t-70 -56t-80 -36q-42 -13 -87 -13q-55 0 -99 19q-44 18 -74 52t-44 80q-16 46 -16 99q0 58 17 110q17 51 47 97t70 84t87 68l12 -9q-49 -58 -79 -130t-31 -150q1 -45 11 -87t32 -73q22 -32 58 -51q35 -19 85 -19q59 0 113 25t96 63zM284 807 q0 -20 -9 -40q-9 -19 -23 -35t-34 -26q-19 -10 -39 -10q-25 0 -41 17t-16 43q0 20 9 40t23 34t34 24q18 10 38 10q26 0 42 -16t16 -41z"/>
<glyph glyph-name="j" horiz-adv-x="334" unicode="j" d="M324 -334q0 -78 -20 -158t-62 -146t-105 -113q-63 -46 -149 -58q-9 -2 -17 -3t-18 -1q-55 0 -104 22q-49 21 -85 59t-58 88q-21 50 -21 103q1 60 25 115q24 56 64 102t90 82t104 56l6 -13q-97 -52 -150 -143t-53 -201q1 -45 13 -87t37 -75q25 -31 63 -51t86 -20 q66 0 112 37t73 93t39 122t11 121q-1 75 -15 149t-31 148t-31 148t-15 153q0 52 7 107q8 55 26 105t50 92t83 68l8 -4q-24 -25 -40 -55q-15 -30 -25 -64t-14 -68t-3 -69q1 -89 19 -169t40 -156t42 -153q18 -77 18 -163zM299 807q0 -20 -9 -40q-10 -19 -24 -35t-32 -26 t-39 -10q-27 0 -41 17t-14 43q0 20 9 40t23 34t34 24q18 10 38 10q26 0 40 -16t15 -41z"/>
<glyph glyph-name="k" horiz-adv-x="748" unicode="k" d="M453 466q-50 0 -82 -32q-33 -32 -53 -78q-20 -48 -31 -105t-18 -108q47 19 91 47t76 60t51 70t19 79q0 27 -14 47t-39 20zM848 153q-20 -39 -46 -75t-60 -64t-76 -44t-95 -17q-95 0 -157 44t-104 123l-24 -8t-22 -8q-2 -17 -4 -31t-4 -26q-2 -13 -5 -28t-10 -28t-19 -21 t-33 -9q-30 1 -42 19t-19 40q-16 48 -28 116t-21 140t-14 144q-5 71 -5 126q0 66 4 140t14 148t28 148t44 141t64 125t89 99q23 19 53 33t58 14q12 0 28 -6t15 -20q0 -8 -8 -19q-143 -197 -207 -419t-64 -469q0 -103 10 -197t25 -197q3 51 11 111t22 118t34 112q21 54 52 94 q30 42 72 66t98 24q59 0 98 -34t39 -95q0 -34 -11 -67q-12 -32 -30 -62t-42 -56t-48 -45q-36 -28 -79 -54q16 -31 36 -59t44 -48q23 -20 53 -32t66 -12q32 0 62 10t58 28q26 18 50 42t43 49z"/>
<glyph glyph-name="l" horiz-adv-x="528" unicode="l" d="M179 727q-1 -22 -1 -54q0 -33 4 -71q2 -38 7 -82t13 -90q67 60 114 133t77 157q29 84 43 178t14 195v34t-4 45q-2 24 -8 48t-16 44t-24 32t-34 12q-38 0 -66 -38t-50 -95q-20 -58 -34 -128q-14 -71 -21 -135q-8 -64 -11 -115t-3 -70zM591 110q-32 -66 -90 -104t-132 -39 q-61 0 -109 37t-84 97q-36 59 -62 135t-42 154t-24 150t-8 127q0 66 7 145q7 80 23 160t42 156t62 134t84 94t110 36q53 0 86 -31t52 -77q20 -46 26 -96q6 -51 6 -91q0 -109 -26 -213t-70 -196t-104 -168t-129 -127q13 -67 33 -131t48 -112q28 -50 64 -80t84 -31q47 0 81 19 t63 56z"/>
<glyph glyph-name="m" horiz-adv-x="1144" unicode="m" d="M1234 143q-18 -35 -43 -69t-56 -60t-69 -42t-81 -15q-62 0 -101 42q-40 41 -64 109t-38 154t-24 172q-22 -42 -42 -86t-38 -93t-36 -101t-39 -107q-5 -13 -11 -27t-16 -28t-22 -22q-13 -9 -31 -9q-13 0 -23 6q-10 7 -18 15t-12 18q-6 10 -10 20q-20 45 -32 92t-20 97 t-15 106q-6 56 -12 119q-21 -50 -37 -94l-32 -88t-32 -92t-32 -103q-4 -13 -8 -27t-12 -27q-6 -12 -16 -20t-27 -8q-26 1 -38 17t-20 38q-12 30 -23 84t-20 116q-9 63 -14 130t-5 125q0 57 30 83t79 26h9t12 -2q7 -2 11 -4q4 -3 3 -8q-9 -70 -12 -133q-2 -47 -2 -93v-30 q1 -60 7 -116q6 -58 14 -118q18 57 34 109t34 103q18 52 38 104t45 110q13 30 27 42t38 12q30 0 46 -22t21 -50q8 -50 14 -104t13 -108t17 -106t26 -102q20 52 40 108t41 114q20 57 44 112t51 104q13 22 29 38t42 16q14 0 25 -6t19 -18q8 -10 13 -22t7 -26q6 -29 10 -75 t12 -98q8 -53 18 -105q11 -52 28 -94t41 -70q24 -27 58 -27q28 1 54 11t49 26q22 16 42 38t36 43z"/>
<glyph glyph-name="n" horiz-adv-x="815" unicode="n" d="M915 143q-19 -36 -40.5 -69t-48.5 -58t-61 -40t-78 -15q-50 0 -86 24.5t-61.5 65t-41 92.5t-25.5 106t-15 106.5l-9 94.5q-19 -15 -46 -57.5t-55 -99.5t-53.5 -124t-41.5 -132q-3 -14 -9.5 -29t-16 -27.5t-22.5 -21t-29 -8.5q-26 0 -37.5 18t-16.5 41q-29 127 -40.5 243 t-11.5 232q0 28 9.5 48.5t25.5 34t38 20t46 6.5h9.5t12.5 -1.5t10 -4.5t3 -8q-25 -126 -25 -256v-10q1 -136 14 -261q11 50 32.5 113.5t50 128t62 123t68.5 98.5q17 19 34.5 32.5t43.5 13.5q15 0 25 -6t16.5 -15t10 -20.5t5.5 -22.5q5 -29 10 -75t12.5 -98t18.5 -104.5 t28 -95t41 -69.5t57 -27q27 0 52.5 10.5t48.5 27t43 38t36 42.5z"/>
<glyph glyph-name="o" horiz-adv-x="662" unicode="o" d="M627 295q0 -70 -23 -130t-65 -104t-100.5 -69t-129.5 -25q-63 0 -113.5 23.5t-86.5 63.5t-55 93.5t-19 114.5q0 51 14.5 97t40.5 85.5t62 73t78 60.5l12 -9q-42 -49 -66 -108t-24 -125q0 -48 14.5 -97.5t42.5 -90.5t70 -67t96 -26q34 0 64 14t52.5 38t36 54.5t13.5 63.5 q0 32 -9.5 62.5t-26.5 57t-41 48t-52 35.5q-16 8 -30.5 12t-31.5 9q-7 1 -15 3.5t-15 6t-12 9.5t-5 15q0 18 13 33t31 26.5t38 18t35 6.5q51 0 90 -26t65 -66t39 -88t13 -92z"/>
<glyph glyph-name="p" horiz-adv-x="727" unicode="p" d="M692 354q0 -56 -22 -116t-59 -111q-39 -51 -91 -83t-114 -32q-22 0 -44 8t-42 22q-18 14 -30 34t-11 45q0 13 10 21t22 8q15 0 25 -15t24 -33q12 -18 30 -32q18 -15 46 -15q36 1 64 25t47 59t29 75t10 69q0 38 -10 75q-10 38 -30 66t-52 46t-74 17q-48 0 -82 -33 q-34 -32 -56 -84t-32 -116q-12 -64 -18 -126t-6 -116q-1 -53 -1 -84q0 -146 -8 -262t-22 -210t-33 -166t-41 -130h-25v478q0 220 -8 436t-8 436q0 22 10 38t24 26q16 10 36 14t41 4q6 0 20 -2t14 -12q0 -70 -1 -138t-3 -137q14 47 36 99t54 94t76 69t103 27q50 0 88 -20 t62 -53q26 -33 39 -76t13 -89z"/>
<glyph glyph-name="q" horiz-adv-x="648" unicode="q" d="M805 -723q-15 -25 -33 -47t-42 -40t-50 -28q-27 -10 -57 -10q-55 0 -95 18t-70 50t-50 72t-31 86q-12 46 -17 92q-5 47 -5 90q0 56 5 120q6 64 16 132t26 136t39 132q-42 -45 -95 -75t-112 -30q-42 -1 -74 15t-55 42q-21 26 -33 62t-12 74q0 46 14 94t40 94t60 86 q35 40 76 70t87 48t94 18q24 0 49 -6t45 -20q21 -13 33 -33t12 -48q0 -20 -9 -36q-9 -17 -23 -29t-30 -22q-17 -10 -32 -17l-6 12q8 9 12 22t4 25q0 18 -6 36t-16 34t-26 26t-36 10q-51 0 -92 -28q-42 -28 -70 -70t-44 -92t-15 -92q0 -29 5 -59q4 -30 18 -54q14 -23 36 -39 t58 -16q57 0 105 32t84 73q18 37 39 69t46 59l16 -12q-32 -59 -52 -130t-30 -147t-14 -150q-4 -75 -4 -142v-80t4 -104t14 -111q10 -56 32 -101q20 -46 53 -74t83 -28q34 0 62 16t47 46z"/>
<glyph glyph-name="r" horiz-adv-x="720" unicode="r" d="M820 143q-18 -40 -46 -72q-28 -33 -59 -55q-32 -22 -66 -34t-65 -13q-58 0 -98 20t-65 54t-36 80t-11 98q0 40 6 83t17 83q2 7 4 15t2 14q0 5 -6 8q-17 6 -36 12t-37 12q-18 7 -36 16q-16 9 -28 23q-1 -59 -20 -121q-18 -62 -50 -118t-74 -106q-42 -49 -89 -85l-10 10 q29 32 53 76t41 92t27 97t9 92q0 22 -4 42q-5 20 -9 37q-4 19 -8 35t-4 33q0 28 18 44t46 16q15 -1 23 -9t14 -20t14 -25t23 -22q19 -11 48 -16t61 -9l64 -8q31 -4 57 -14t42 -26t16 -44q0 -14 -2 -28t-8 -25q-12 -41 -20 -85t-9 -87q-1 -37 5 -67t21 -53q15 -22 40 -34 t64 -12q56 -1 98 27t74 73z"/>
<glyph glyph-name="s" horiz-adv-x="660" unicode="s" d="M610 215q0 -52 -19 -98t-53 -80t-79.5 -54t-98.5 -20q-35 0 -69 11t-62.5 31.5t-49.5 49.5t-30 64l23 6q26 -32 60.5 -53t78.5 -21q37 0 68.5 16t54 42t35 60.5t12.5 70.5q0 43 -12 71.5t-31.5 48t-43.5 34t-48.5 29.5t-47 34t-38.5 49q-1 -59 -20 -124t-51.5 -126 t-74.5 -114t-89 -89l-8 14q32 34 56 85t39.5 107.5t23 113.5t7.5 104q0 25 -5 49t-5 47q0 28 16.5 43t42.5 15q20 0 32 -9t22 -23.5t20 -33t25.5 -38t39 -38t60.5 -32.5q43 -16 82.5 -36.5t70 -48.5t48.5 -66.5t18 -90.5z"/>
<glyph glyph-name="t" horiz-adv-x="608" unicode="t" d="M712 143q-22 -37 -52 -69t-64 -56q-36 -24 -77 -38t-85 -13q-64 0 -114 22q-50 21 -86 59t-60 88t-38 104t-20 112q-6 57 -6 109q0 49 4 99t12 103q-30 -1 -60 -1h-59q-19 0 -43 1t-45 8t-35 21t-14 41q0 15 6 24t14 13q10 4 22 6t26 2q15 0 71 -5t135 -11q24 118 64 232 t90 208h14q-32 -109 -56 -220t-37 -225q73 -5 151 -9t151 -3q109 0 177 2t107 5q46 4 69 8l4 -17q-60 -15 -137 -27t-164 -22t-180 -16q-93 -7 -185 -11q-2 -21 -2 -41v-40q0 -48 4 -106t17 -116t33 -114t54 -98t80 -69q47 -26 111 -26q59 0 107 26t90 64z"/>
<glyph glyph-name="u" horiz-adv-x="742" unicode="u" d="M852 143q-17 -35 -46 -67t-65 -57.5t-76 -40.5t-79 -15q-54 0 -89.5 32.5t-52.5 78.5q-39 -39 -86 -64.5t-104 -25.5q-51 0 -90.5 18.5t-65.5 50.5t-39.5 74t-13.5 90q0 54 15 105.5t42 98t64 86.5t80 71l12 -9q-42 -60 -67 -132.5t-25 -147.5q0 -32 7 -68t23 -67 t42.5 -51.5t66.5 -20.5q34 0 65 11.5t60 31.5q-2 12 -3 23.5t-1 23.5q0 48 14 104t37 111.5t52.5 106t60.5 86.5l12 -9q-23 -77 -38 -159t-15 -162q0 -36 4.5 -69.5t19 -60t40.5 -42t69 -15.5q48 0 90 24.5t74 59.5z"/>
<glyph glyph-name="v" horiz-adv-x="682" unicode="v" d="M662 592q0 -51 -12 -117t-36 -136q-22 -69 -54 -137t-70 -121t-83 -85q-44 -32 -91 -33q-29 0 -54 27q-24 27 -44 64t-34 75t-22 59q-21 60 -37 120t-30 122q-1 4 -3 16t-6 23t-8 21t-8 10q-8 0 -20 -3t-23 -7t-21 -10l-18 -9l-8 10q12 12 33 28q21 15 44 29t47 24t42 9 q24 -1 40 -21t30 -54q12 -34 22 -82q10 -47 23 -99l8 -32q6 -23 15 -55q10 -32 20 -67t22 -63t22 -48q11 -19 21 -19q29 1 53 21t46 54t38 76q17 42 29 87q13 44 19 85t6 72q0 58 -12 116t-38 102t-64 69q-30 19 -69 19q-12 0 -25 -2l-3 9q31 13 63 20t64 7q86 0 136 -43 t50 -131z"/>
<glyph glyph-name="w" horiz-adv-x="1049" unicode="w" d="M1016 592q0 -56 -11 -124t-31 -138t-50 -136q-28 -66 -64 -118t-76 -82q-40 -31 -84 -31q-26 1 -50 31t-48 79q-22 49 -41 109t-35 119q-15 -55 -33 -115t-44 -110t-61 -81q-35 -32 -83 -32q-31 0 -57 29q-26 30 -46 74t-36 98t-28 106t-20 94t-12 62q-1 3 -3 15t-5 25 q-4 14 -8 24t-8 10q-18 0 -40 -10t-36 -19l-6 10q14 15 34 31t44 31q24 14 48 23t46 9q18 1 32 -15t25 -40q9 -24 17 -54t12 -58t8 -51q2 -23 4 -35q1 -8 5 -32t10 -58q5 -32 13 -68t17 -64q9 -30 19 -50t18 -19q28 -1 52 35t44 89t34 113q15 60 24 110q-10 40 -17 72 t-12 50q-2 4 -2 14q0 14 10 26t25 21t31 14t28 5q20 0 33 -18t21 -44q9 -24 13 -50t7 -40q1 -7 7 -39t14 -76q10 -43 20 -93t22 -92t22 -70q11 -28 20 -27q27 1 50 19q24 18 42 48t32 70t22 83q10 43 14 85t5 80q0 32 -4 68t-13 72q-10 36 -24 70t-34 58t-46 37t-59 9l-2 9 q26 13 55 20t60 7q86 0 128 -46t42 -128z"/>
<glyph glyph-name="x" horiz-adv-x="740" unicode="x" d="M624 512q0 -27 -26 -56t-62 -57q-36 -29 -76 -53t-71 -41q22 -42 44 -85q22 -44 51 -78t67 -56t92 -22q51 0 97 19t84 54l6 -4q-18 -36 -46 -67t-62 -54t-75 -36q-40 -13 -82 -13q-57 0 -101 21q-44 20 -78 56t-60 83t-50 99q-29 -30 -51 -65t-37 -71t-23 -72t-8 -67 q1 -39 7 -69t14 -48q8 -20 17 -30q8 -10 11 -12l-7 -9q-31 3 -60 21t-52 44t-37 58t-14 63q0 41 19 81t51 79q32 38 71 72q40 34 81 63q-22 46 -42 90t-40 77t-38 53t-36 20q-6 0 -16 -4l-20 -8q-10 -5 -18 -10t-12 -7l-6 10q12 15 32 32t43 31t47 22q24 9 45 9q30 1 56 -25 t48 -64q23 -38 41 -78q18 -42 33 -75q24 15 47 34t41 41t29 50q11 26 11 56q0 12 -3 24t-3 25q0 15 11 19t22 4q15 0 32 -5q16 -5 30 -15t23 -22q9 -14 9 -32z"/>
<glyph glyph-name="y" horiz-adv-x="682" unicode="y" d="M679 -303q0 -57 -11 -114t-32.5 -110.5t-53.5 -100t-73 -80.5t-91.5 -54t-109.5 -20q-55 0 -104 22t-85.5 59t-57.5 86.5t-21 104.5q0 60 24.5 115t64.5 101t90.5 81t103.5 55l6 -12q-97 -53 -150 -143t-53 -201q0 -45 12.5 -86.5t37.5 -73.5t62.5 -51.5t86.5 -19.5 q68 0 113 37t72 92.5t38.5 120.5t11.5 122q0 61 -9.5 120t-23 118t-27.5 118t-23 119q-21 -25 -45 -47.5t-51.5 -39t-58.5 -26t-65 -9.5q-51 0 -89.5 18.5t-64.5 50.5t-39.5 74t-13.5 90q0 54 15 106t42 98t64 86t80 70l12 -6q-43 -62 -67.5 -133.5t-24.5 -146.5 q0 -32 7 -69t22.5 -68t42 -51.5t65.5 -20.5q47 0 88 20.5t75 52.5q-3 37 -3 74q0 51 7 106t25.5 105.5t50.5 92t83 67.5l8 -4q-24 -25 -40 -55.5t-25.5 -63.5t-13 -67.5t-3.5 -67.5q0 -92 18.5 -171t41 -155t41 -152.5t18.5 -162.5z"/>
<glyph glyph-name="z" horiz-adv-x="648" unicode="z" d="M658 -246q0 -84 -26 -156t-78 -124q-50 -52 -123 -80q-73 -29 -165 -29q-18 1 -50 5t-64 14t-54 26q-24 16 -24 39q0 15 12 23t27 8q17 0 33 -12t34 -26q20 -14 46 -26t67 -12q62 0 106 26t72 67t41 92t13 102q1 65 -11 115t-38 90t-64 74q-40 34 -96 65l-7 7t-4 9 q0 3 22 29t49 64t49 84t22 91q-1 23 -7 49t-19 48t-33 36t-44 15q-32 0 -56 -17t-46 -46t-40 -69q-18 -41 -34 -87t-42 -90t-99 -101l-10 10q42 52 67 112q25 61 40 119t40 106t58 95q33 45 73 75t92 30q40 0 75 -18q36 -18 62 -48t41 -66q15 -37 15 -75q0 -39 -14 -77 t-34 -75q-22 -37 -49 -69t-53 -57q116 -53 172 -148t56 -217z"/>
<glyph glyph-name="braceleft" horiz-adv-x="600" unicode="{" d="M560 -583q-39 -12 -80 -12q-35 -1 -69 11q-35 12 -65 32t-55 47t-40 58q-33 61 -43 127t-10 133q0 79 8 157t8 156q0 40 -9 87t-29 87t-54 68t-82 30v35q48 3 82 31t54 69t29 88t9 87q0 78 -8 156t-8 157q0 68 10 133t41 127q16 31 41 58t55 47t64 32t69 11q22 -1 42 -5 t40 -10l-4 -16h-18q-20 0 -42 -6t-42 -17t-37 -26t-29 -33q-23 -38 -28 -84t-5 -92q-1 -78 5 -153t6 -150q0 -41 -2 -81t-13 -79q-11 -53 -34 -99t-57 -82t-80 -58t-103 -25q86 -5 142 -43t89 -96q32 -58 46 -132q14 -72 14 -145q0 -77 -6 -153t-7 -150q0 -46 5 -92t30 -86 q11 -18 28 -33t37 -26t42 -17t43 -6q5 0 9 1t9 1z"/>
<glyph glyph-name="bar" horiz-adv-x="328" unicode="|" d="M215 -421h-102v1822h102v-1822z"/>
<glyph glyph-name="braceright" horiz-adv-x="600" unicode="}" d="M42 -564q5 0 9 -1t9 -1q21 0 43 6t42 17t37 26t28 33q25 40 30 86t5 92q-1 74 -7 150t-6 153q0 73 14 145t46 132q33 58 89 96t142 43q-57 3 -103 25t-80 58t-57 82t-34 99q-11 39 -13 79t-2 81q0 75 6 150t5 153q0 46 -5 92t-28 84q-12 18 -29 33t-37 26t-42 17t-42 6 h-18l-4 16q20 6 40 10t42 5q34 1 68 -11t65 -32q30 -20 55 -47t41 -58q31 -62 41 -127t10 -133q0 -79 -8 -157t-8 -156q0 -40 9 -87t29 -88t54 -69t82 -31v-35q-48 -2 -82 -30t-54 -68t-29 -87t-9 -87q0 -78 8 -156t8 -157q0 -67 -10 -133t-43 -127q-15 -31 -40 -58t-55 -47 t-66 -32q-34 -12 -68 -11q-41 0 -80 12z"/>
<glyph glyph-name="asciitilde" d="M63 496q5 45 22 81q15 31 43 57t78 25q31 1 63 -9t65 -22t65 -20q32 -10 63 -10q24 0 44 10t36 20q18 13 33 31l5 -3q-6 -45 -24 -79q-14 -31 -44 -55t-80 -24q-32 0 -64 10t-65 20q-33 12 -65 22t-62 9q-22 -1 -42 -11t-34 -23q-17 -15 -30 -33z" unicode="~"/>
<glyph glyph-name="nonbreakingspace" horiz-adv-x="480" unicode=""/>
<glyph glyph-name="exclamdown" horiz-adv-x="584" unicode="" d="M352 -313q0 -16 -11 -28t-26 -20t-31 -12t-24 -4q-18 -1 -30 7t-11 42q0 38 3 107q2 69 8 156t12 187t14 198q8 100 14 193t12 168h26q8 -147 16 -281t14 -256t10 -236t4 -221zM384 909q0 -19 -7 -36t-19 -29t-29 -20q-17 -7 -37 -7q-19 0 -36 7q-18 8 -30 20t-19 29 t-7 36t7 36t19 29t30 20q17 7 36 7t36 -7q18 -8 30 -20t19 -29t7 -36z"/>
<glyph glyph-name="cent" horiz-adv-x="656" unicode="" d="M178 650q0 -47 11 -89q11 -41 33 -75t53 -58t72 -33l-15 508q-36 -15 -64 -42t-49 -61t-31 -74q-10 -38 -10 -76zM611 482q-43 -68 -97 -106t-116 -50l-8 -263h-32l-8 258h-12q-60 0 -112 23q-52 22 -90 62t-60 94t-21 115q1 62 21 118q20 57 56 101t88 74q50 30 110 42 l-7 247h102l-8 -242q39 -3 71 -13t56 -27t36 -39t12 -50q0 -29 -15 -52q-15 -22 -39 -38t-52 -24q-29 -8 -57 -7v14q38 4 66 32t28 76q0 13 -5 28t-17 29q-13 14 -33 22q-20 9 -52 11l-16 -528h1q51 1 101 27t99 77z"/>
<glyph glyph-name="sterling" horiz-adv-x="858" unicode="" d="M613 459q-15 3 -31 3h-32q-34 0 -76 -2t-86 -7q0 -39 -8 -75t-25 -74q-17 -36 -45 -74t-66 -79q42 1 82 -9t81 -21q39 -11 79 -21t81 -9q20 0 44 4q24 5 50 15t53 28t53 48l14 -7q-25 -61 -53 -101t-59 -65q-32 -25 -69 -35t-80 -11q-40 0 -74 10q-34 9 -67 21t-65 22 t-69 10q-29 0 -67 -6t-97 -33l-17 31q52 45 94 89t74 92q30 47 46 103t17 125q-1 2 -1 5v6q-53 -8 -101 -17t-85 -20q-5 -1 -13 -1q-21 0 -31 16t-10 33q0 28 20 43q20 16 46 22q27 6 56 6t49 1q11 -1 23 -1h26q-20 46 -53 92t-65 95t-54 104q-23 55 -23 122q-1 81 35 152 t97 124t143 84t175 31q66 0 120 -18q55 -18 93 -52t60 -82t21 -104q0 -80 -39 -136q-38 -56 -98 -94t-131 -57q-71 -20 -135 -26v16q52 16 104 41q52 24 94 62t68 88t27 118q-1 48 -17 86t-45 63t-69 37t-87 13q-55 1 -105 -21t-89 -64t-63 -106q-24 -62 -23 -143 q-1 -57 21 -112t50 -109t56 -106q27 -52 39 -104q33 -3 69 -7q36 -3 68 -9t58 -12t45 -15z"/>
<glyph glyph-name="currency" horiz-adv-x="594" unicode="" d="M86 905l113 -114q47 31 103 31l1 1q55 0 102 -29l102 102l67 -64l-104 -104q26 -45 26 -95v-7q-2 -54 -31 -101l105 -106l-64 -66l-109 109q-45 -24 -93 -24h-2q-50 0 -95 27l-119 -119l-66 66l119 118q-27 46 -29 96v7q0 47 24 90l-116 115zM386 553q15 15 23 35t8 42 t-8 42t-25 37q-16 15 -36 23t-41 8t-41 -8t-35 -23q-17 -17 -25 -37t-8 -42t8 -42t23 -35q17 -17 37 -25t42 -9q21 1 41 9t37 25z"/>
<glyph glyph-name="yen" horiz-adv-x="893" unicode="" d="M812 334q-20 2 -42 2t-43 1q-56 1 -119 -3t-129 -10q1 -44 1 -95t3 -99t9 -86t16 -56q5 -7 5 -13q1 -11 -11 -13l-18 -3q-17 0 -33 3t-30 8q-24 8 -37 24t-20 35q-6 20 -8 42t-2 43q0 43 4 94t9 104q-51 -7 -97 -15t-89 -16q-5 -1 -9 -1h-8q-28 0 -42 16t-14 32 q0 28 26 42t64 21q36 7 76 7h66h38q4 22 7 42t7 41q-2 5 -4 9t-6 9q-51 -7 -99 -15t-90 -16q-5 -1 -9 -1h-8q-28 -1 -42 15t-14 33q0 23 19 37t47 21t63 9q34 2 63 3q-15 17 -29 32t-22 26q-37 45 -75 97t-68 110t-49 118t-19 122q0 46 15 87t49 71q8 6 18 15t22 17t24 14 t23 6q16 0 16 -17q0 -8 -2 -12q-9 -37 -13 -74t-4 -75q0 -81 17 -151t45 -135t65 -127t77 -125h32t34 -1q43 63 90 135t87 146q40 75 66 151t26 150q-1 21 -3 39t-8 36v6q0 10 10 18t22 12t26 6t22 1q39 1 63 -15t24 -60q0 -30 -10 -62t-22 -59q-31 -75 -73 -145t-90 -137 q-14 -18 -35 -44t-45 -56t-47 -62q-24 -32 -43 -63q42 -2 85 -5t83 -8t74 -11t60 -16l-6 -19q-20 3 -42 3h-43q-55 0 -118 -4t-129 -9q-5 -9 -6 -18q-6 -19 -6 -41v-38v-19q45 -2 93 -5q48 -2 93 -8q44 -6 84 -13t68 -16z"/>
<glyph glyph-name="brokenbar" horiz-adv-x="328" unicode="" d="M215 -421h-102l20 764h60zM193 584h-60l-20 817h102z"/>
<glyph glyph-name="section" horiz-adv-x="893" unicode="" d="M659 337q1 49 -15 85t-42 61q-26 27 -61 45t-74 34t-80 34q-41 16 -79 37q-50 -31 -72 -71t-22 -86q0 -44 16 -76t42 -56t62 -42t76 -33q40 -16 84 -32q42 -16 82 -36q37 19 60 56t23 80zM764 388q0 -56 -34 -108t-101 -100q30 -20 56 -46q25 -26 45 -61q20 -34 31 -76 t11 -93q0 -80 -36 -148t-94 -116t-132 -76t-154 -27q-64 0 -122 13t-101 39t-68 66t-25 94q0 48 25 89t66 71t95 47q51 16 106 16h6h12v-21q-104 -9 -154 -65t-50 -138q0 -38 16 -70t44 -54t68 -34t86 -12q51 0 104 14t96 48q42 34 70 89q28 56 28 140q0 69 -24 117t-62 80 q-38 34 -88 57t-100 43q-52 20 -102 42q-50 20 -88 49t-62 70t-23 101q-1 41 13 75q14 35 36 63t50 51t57 43q-27 19 -51 45t-42 59t-30 73q-11 40 -11 89q0 80 31 149q32 69 84 119t122 80q70 29 149 29q51 0 103 -12t96 -38q43 -26 70 -66t27 -96q0 -48 -25 -89t-66 -71 t-95 -47q-51 -16 -106 -16h-6h-12v21q52 5 90 23q37 18 63 46t38 63q12 36 13 77q-1 40 -17 70t-43 51t-62 32t-72 11q-51 0 -99 -16t-86 -50q-38 -35 -60 -93t-23 -142q1 -69 23 -117t58 -84q36 -34 84 -58q46 -24 94 -46t96 -43q46 -22 82 -52q36 -29 60 -71 q22 -42 22 -102z"/>
<glyph glyph-name="dieresis" horiz-adv-x="500" unicode="" d="M460 792q0 -37 -24.5 -60.5t-59.5 -23.5q-33 0 -57.5 23.5t-24.5 60.5q0 16 6.5 31t18 26.5t26 18t31.5 6.5q18 0 33 -6.5t26.5 -18t18 -26.5t6.5 -31zM206 792q0 -37 -24.5 -60.5t-59.5 -23.5q-33 0 -57.5 23.5t-24.5 60.5q0 16 6.5 31t18 26.5t26 18t31.5 6.5 q18 0 33 -6.5t26.5 -18t18 -26.5t6.5 -31z"/>
<glyph glyph-name="copyright" horiz-adv-x="1509" unicode="" d="M165 619q0 -121 46 -229t126 -188q79 -80 187 -126t230 -46t230 46t187 126q81 80 127 188t46 229t-46 229t-127 188q-79 80 -187 126t-230 47q-122 -1 -230 -47t-187 -126q-80 -80 -126 -188t-46 -229zM80 619q0 93 24 179t68 162q44 74 106 136t136 106t160 68t180 24 q140 0 263 -53t215 -145t144 -214q53 -123 53 -263q0 -93 -24 -179t-68 -162q-43 -74 -105 -136t-137 -105q-75 -44 -161 -68t-180 -24q-140 0 -262 53q-122 52 -214 144t-145 214t-53 263zM1080 890q0 -82 -70 -128t-195 -46h-5l-10 24q91 4 136 43t45 105q-1 58 -37 90 t-93 32q-54 0 -100 -20t-84 -56q-37 -35 -67 -80t-50 -94q-20 -48 -30 -98t-11 -93q-1 -51 11 -103t41 -96q29 -42 79 -68t128 -27q53 1 92 13t68 32q30 20 50 42q20 23 37 43l15 -15q-15 -30 -42 -64q-28 -34 -66 -62t-87 -46t-108 -19q-89 0 -153 29t-106 77 q-42 47 -60 111q-20 64 -20 133q0 95 36 183t99 158q63 68 149 110t186 41q51 0 92 -10q41 -9 70 -29q28 -20 44 -48t16 -64z"/>
<glyph glyph-name="ordfeminine" horiz-adv-x="561" unicode="" d="M334 1259q0 -7 -5 -13t-12 -5q-6 -1 -12 3t-14 8q-9 4 -19 8t-23 3q-31 0 -55 -19t-41 -47t-26 -60t-9 -58q0 -18 3 -36t11 -32q8 -15 23 -23q14 -8 35 -8q24 0 44 8t38 23q0 20 6 42t16 44q10 21 21 41q12 20 26 35l9 -4q-7 -23 -10 -45t-3 -44q-1 -23 3 -43t14 -35 q10 -16 26 -24t42 -8q32 0 58 14t46 37l5 -3q-11 -22 -29 -42t-40 -36t-48 -26q-25 -10 -50 -9q-36 0 -58 20t-30 50q-26 -27 -58 -45t-68 -18q-28 0 -48 10t-34 26t-21 40q-7 22 -7 47q0 41 20 87t52 84q34 38 76 63t87 25q7 0 17 -2t20 -5q10 -4 16 -11t6 -17z"/>
<glyph glyph-name="guillemotleft" horiz-adv-x="618" unicode="" d="M432 315q0 -13 6 -32t18 -41q10 -22 24 -45q14 -24 27 -46q33 -53 76 -112l-18 -13q-77 62 -138 118q-27 24 -51 48t-44 48q-20 22 -30 42q-12 20 -12 33t12 33t30 42q20 22 44 47t51 49q61 55 138 118l23 -12q-44 -59 -78 -112q-15 -22 -29 -46t-25 -46q-12 -22 -18 -41 t-6 -32zM192 315q0 -13 6 -32t18 -41q10 -22 24 -45q14 -24 27 -46q33 -53 76 -112l-18 -13q-77 62 -138 118q-27 24 -51 48t-44 48q-20 22 -30 42q-12 20 -12 33t12 33t30 42q20 22 44 47t51 49q61 55 138 118l23 -12q-44 -59 -78 -112q-15 -22 -29 -46t-25 -46 q-12 -22 -18 -41t-6 -32z"/>
<glyph glyph-name="logicalnot" d="M112 741q85 -10 170 -17t174 -10q4 18 18 30t44 12q23 0 37 -12t17 -31q8 1 14 1h13l4 -18l-16 -8t-17 -8q-8 -76 -14 -154q-5 -66 -5 -140v-27l-17 -4q-38 64 -58 139t-23 151q-79 -17 -159 -23t-145 -6q-21 0 -41 1t-34 7q-16 6 -25 20t-9 40q0 31 20 46t52 11z" unicode=""/>
<glyph glyph-name="uni00AD" horiz-adv-x="550" unicode="" d="M439 444q27 0 41 -19t15 -39v-8q1 -10 -1 -18q-2 -12 -12 -21q-9 -9 -25 -14t-43 -5h-75t-52 1t-51 1h-72q-20 0 -40 2t-36 9t-24 21q-9 14 -9 41t17 45t43 18h6t6 -1q75 -9 150 -11t162 -2z"/>
<glyph glyph-name="registered" horiz-adv-x="1278" unicode="" d="M161 735q-1 -99 37 -186t103 -152t152 -103t186 -37q69 0 131 18t117 51h-11q-41 0 -72 12q-36 14 -62 39t-47 57t-41 66t-40 70q-20 34 -45 64q-17 -2 -27 -2t-28 -1q0 -27 -1 -67t-2 -84q-1 -29 -1 -56v-26q0 -40 3 -65l-18 -3q-9 22 -19 62t-18 84t-12 86q-6 42 -9 71 q-13 1 -26 5t-23 10t-16 13q-6 8 -7 19q0 10 6 18q5 8 15 12t22 8q12 2 23 3v50q1 21 1 49t4 58t11 60q8 30 22 54t36 38t54 15q7 0 17 -3t10 -10q0 -4 -2 -7t-4 -7q-8 -16 -18 -34t-14 -37q-8 -33 -14 -60t-10 -53t-5 -54q-2 -28 -3 -62q16 -3 28 -6l24 -8q10 -4 20 -10 l20 -12q51 12 88 28t61 42q23 26 35 60q12 35 12 83q0 41 -16 79t-47 68q-29 30 -71 48t-92 18q-26 0 -58 -7t-62 -22q-28 -15 -47 -37t-19 -52q0 -12 3 -22t7 -17q4 -8 7 -15t3 -14q0 -13 -10 -21t-23 -8q-15 0 -23 6t-14 15q-6 10 -7 20q-2 10 -2 18q0 42 22 78t59 61 t85 39t101 13q62 0 116 -18q54 -19 96 -51t66 -76t24 -99q0 -53 -22 -95t-60 -72q-37 -31 -85 -51t-100 -30q39 -39 71 -89t62 -98q32 -46 68 -80t81 -38q45 32 82 74t63 92t41 106q14 56 14 117q1 99 -37 186t-103 152t-152 103t-186 37q-99 1 -186 -37t-152 -103 t-103 -152t-37 -186zM80 735q0 115 44 217t120 178t177 120q102 44 218 44t218 -44q101 -44 177 -120t120 -178t44 -217q0 -116 -44 -218t-120 -178q-76 -75 -177 -119q-102 -44 -218 -44t-218 44q-101 44 -177 119q-76 76 -120 178t-44 218z"/>
<glyph glyph-name="macron" horiz-adv-x="500" unicode="" d="M65 831h370v-107h-370v107z"/>
<glyph glyph-name="degree" horiz-adv-x="431" unicode="" d="M126 1147q0 -38 26 -64t64 -26t64 26t26 64t-26 64t-64 26t-64 -26t-26 -64zM60 1147q0 33 12 61t34 49t50 33t60 13q32 -1 60 -13t50 -33t34 -49t12 -61t-12 -61t-34 -49t-50 -33t-60 -13q-32 1 -60 13t-50 33t-34 49t-12 61z"/>
<glyph glyph-name="plusminus" d="M603 227q-40 -21 -99 -37t-123 -26q-63 -10 -125 -13q-62 -4 -107 -4q-21 0 -41 1q-20 2 -34 8q-16 6 -25 20t-9 39q0 31 20 46t52 11q139 -16 256 -22q89 -5 177 -5h54zM342 354q-22 42 -38 102t-25 126q-35 -3 -67 -4t-57 -1q-21 0 -41 1q-20 2 -34 8q-16 6 -25 20 t-9 39q0 31 20 46t52 11q39 -4 76 -8t73 -7q-3 35 -4 65t-1 56q0 20 1 40t7 36t20 24q14 9 40 9q31 -1 46 -21t11 -51q-5 -45 -9 -85t-7 -81q60 -3 118 -5q25 -1 50 0l66 1l4 -18q-43 -24 -109 -40t-136 -26q-2 -60 -4 -118q-1 -25 -1 -50q0 -33 1 -65z" unicode=""/>
<glyph glyph-name="twosuperior" horiz-adv-x="536" unicode="" d="M500 478q-52 14 -106 17t-108 3q-22 0 -50 -2t-55 -4t-49 -5q-22 -2 -29 -2q-19 0 -29 12t-10 28q0 15 8 27t22 20t30 10q16 4 29 4h6q56 28 102 68t79 90q34 48 52 103t18 114q0 40 -10 86t-32 85t-60 65q-36 26 -90 26q-27 1 -51 -7q-23 -8 -41 -22t-28 -34t-11 -46 q1 -38 19 -66t45 -56q9 -8 13 -16t4 -19q0 -28 -16 -42t-38 -14q-26 0 -42 17t-26 41q-10 23 -12 49q-4 26 -4 43q0 43 14 86t44 78t74 57t101 22q53 0 95 -20t73 -56q30 -36 46 -82t16 -98q0 -68 -19 -134t-54 -124q-34 -58 -84 -110q-50 -50 -111 -89q77 -6 149 -26 t132 -56z"/>
<glyph glyph-name="threesuperior" horiz-adv-x="531" unicode="" d="M477 642q1 -41 -19 -73q-20 -31 -50 -53t-69 -33q-38 -11 -75 -11q-29 0 -60 6t-57 20t-43 39q-17 24 -17 60q1 27 11 49t28 38t42 26t50 17l3 -15q-29 -17 -47 -45t-18 -66q0 -51 28 -77t80 -26q34 0 56 11t36 29t21 40q6 22 6 45q0 91 -47 137t-135 53v33q40 4 74 18 t59 37q26 23 40 57t14 78q0 36 -11 71t-33 63t-52 45q-32 17 -74 17q-27 0 -51 -8t-42 -22q-19 -14 -29 -36q-10 -20 -10 -46q0 -39 19 -67t45 -57q8 -8 12 -18t5 -24q0 -18 -16 -33t-39 -15q-25 0 -41 16t-25 41q-8 23 -12 49t-4 44q0 46 16 90t46 80q30 35 73 56t97 21 q48 1 90 -19t73 -52t49 -75q18 -42 17 -86q1 -42 -15 -80q-16 -37 -44 -69t-68 -56t-86 -38q36 -8 72 -24t64 -39t46 -54t17 -69z"/>
<glyph glyph-name="acute" horiz-adv-x="500" unicode="" d="M88 652q31 36 59 72t53 74.5t46 81.5t38 94l128 -86q-62 -85 -138.5 -144.5t-174.5 -105.5z"/>
<glyph glyph-name="mu" horiz-adv-x="742" unicode="" d="M772 143q-8 -38 -23 -71t-38 -57t-53 -38t-67 -14q-58 1 -94 33t-53 78q-20 -20 -40 -38t-40 -32t-42 -22t-45 -8q-17 0 -37 6t-38 20t-34 38q-14 24 -21 64v-11q0 -37 -6 -77q-7 -46 -15 -89q-8 -44 -16 -82t-8 -65q0 -56 7 -96t16 -66t17 -37q8 -12 10 -13l-5 -10 q-35 0 -65 13t-52 37t-34 58t-13 76q0 36 18 70t39 70t37 74q13 32 13 68v13q-2 27 -8 49t-14 45q-6 23 -12 47t-6 55q0 54 14 103t41 93q26 44 62 82t79 69l12 -9q-42 -61 -67 -133t-25 -147q0 -32 7 -68t23 -67q16 -32 42 -52t67 -20q34 0 65 12t60 31q-2 11 -3 23t-1 24 q0 48 14 104t37 112t53 106t60 86l12 -9q-12 -38 -22 -81q-10 -44 -16 -88q-7 -44 -11 -88t-4 -83q-1 -51 9 -84t25 -51t33 -26q18 -7 34 -7q12 1 26 3t29 11t31 25t30 45z"/>
<glyph glyph-name="paragraph" horiz-adv-x="952" unicode="" d="M785 1246q-1 -9 -3 -18t-6 -19q-14 -40 -23 -90q31 -18 59 -41q28 -22 47 -50t31 -60t12 -68q0 -12 -2 -26t-10 -24q-7 -10 -19 -17t-31 -7q-22 0 -38 14t-16 37q0 19 6 39t7 46q-1 34 -15 64t-38 53q-12 -81 -18 -185t-8 -221q-1 -44 -1 -89q-1 -76 1 -152 q2 -124 8 -243q5 -120 12 -231t15 -202q7 -91 15 -156t14 -94l-21 -9q-29 79 -51 181t-38 216t-26 237q-10 122 -16 240q-6 119 -8 227t-2 196v56q0 9 -1 20q-1 30 1 64q2 46 6 98t16 99q-24 7 -48 13t-47 9q-17 -69 -27 -170t-12 -220q-2 -83 -3 -172q1 -38 1 -78 q2 -131 6 -260t12 -251t16 -221q8 -100 16 -172t16 -103l-21 -9q-17 45 -32 111t-29 144t-24 166q-12 86 -21 172t-16 169q-7 82 -11 151q-94 11 -164 48t-115 92q-47 55 -69 123t-22 141q0 52 18 108t56 104q40 50 106 90t161 60q27 6 58 9q14 42 36 69t55 27q35 0 35 -35 q-1 -9 -3 -18t-6 -19q-2 -7 -4 -13t-5 -13q47 -6 95 -21q14 52 38 86t60 33q35 0 35 -35z"/>
<glyph glyph-name="periodcentered" horiz-adv-x="584" unicode="" d="M200 630q0 19 7 36q7 18 19 30t30 19q17 7 36 7t36 -7q18 -7 30 -19t19 -30q7 -17 7 -36t-7 -36q-7 -18 -19 -30t-30 -19q-17 -7 -36 -7t-36 7q-18 7 -30 19t-19 30q-7 17 -7 36z"/>
<glyph glyph-name="cedilla" horiz-adv-x="500" unicode="" d="M242 -17h34l-16 -68q18 3 37 3q26 0 49 -7t40 -21t27 -34t10 -47q1 -31 -13 -54t-36 -39t-48 -22q-26 -8 -53 -8q-30 0 -57 8q-26 8 -50 22q-24 12 -42 28t-30 30l13 15q36 -26 66 -35t67 -9q38 -1 62 15t24 47q0 27 -22 40t-49 13q-13 0 -25 -2t-18 -4z"/>
<glyph glyph-name="onesuperior" horiz-adv-x="428" unicode="" d="M418 567q-30 -21 -64 -37t-72 -26t-76 -16q-39 -6 -75 -6q-14 0 -28 2t-25 9q-12 6 -18 16t-6 26q0 12 7 29t23 17q6 0 9 -1q29 -8 59 -10t61 -4q-17 84 -21 166t-5 166q0 48 1 94t5 95q-11 -13 -29 -27t-38 -28t-39 -24q-20 -11 -36 -15l-11 18q22 19 44 45t42 56t36 60 t29 55q5 11 9 23t8 23t12 19t20 7q8 1 22 -3t26 -10t22 -14t10 -17q0 -10 -6 -43t-14 -81q-8 -49 -18 -107t-19 -120t-15 -122t-5 -111q1 -27 1 -53t1 -52h13q38 0 78 4t77 14z"/>
<glyph glyph-name="ordmasculine" horiz-adv-x="433" unicode="" d="M403 1122q-1 -44 -15 -82t-40 -65t-64 -43q-36 -16 -81 -16q-40 0 -72 14q-33 14 -55 40t-34 60t-12 71q0 65 34 115t88 85l8 -6q-26 -31 -41 -68t-15 -79q0 -30 9 -62t27 -56q18 -26 43 -42q26 -16 61 -17q20 0 40 9t34 24t22 34t9 40q0 40 -23 76t-58 53q-8 3 -20 5 t-22 6q-11 4 -19 9t-8 14q0 11 8 21q7 10 19 16q12 8 24 12t22 4q32 0 56 -16t42 -42q16 -26 24 -56t9 -58z"/>
<glyph glyph-name="guillemotright" horiz-adv-x="618" unicode="" d="M186 315q0 13 -6 32t-18 41q-10 22 -24 44q-14 24 -28 47q-33 53 -75 112l18 13q76 -63 137 -118q26 -24 50 -49t44 -47t32 -42t12 -33t-12 -33t-32 -42q-20 -24 -44 -48t-50 -48q-61 -56 -137 -118l-23 12q44 58 78 112q15 22 29 46t25 46q12 22 18 41t6 32zM426 315 q0 13 -6 32t-18 41q-10 22 -24 44q-14 24 -28 47q-33 53 -75 112l18 13q76 -63 137 -118q26 -24 50 -49t44 -47t32 -42t12 -33t-12 -33t-32 -42q-20 -24 -44 -48t-50 -48q-61 -56 -137 -118l-23 12q44 58 78 112q15 22 29 46t25 46q12 22 18 41t6 32z"/>
<glyph glyph-name="onequarter" horiz-adv-x="1029" unicode="" d="M816 1294q14 0 20 -12t6 -20t-16 -40t-38 -70t-42 -72q-21 -36 -30 -54q-50 -94 -92 -180t-80 -170t-72 -169t-68 -176t-67 -191q-34 -100 -71 -212l-28 6q38 144 84 290t95 285t99 264t95 225q7 18 21 47t31 62t37 66t39 60q20 27 40 44t37 17zM418 567q-30 -21 -64 -37 t-72 -26t-76 -16q-39 -6 -75 -6q-14 0 -28 2t-25 9q-12 6 -18 16t-6 26q0 12 7 29t23 17q6 0 9 -1q29 -8 59 -10t61 -4q-17 84 -21 166t-5 166q0 48 1 94t5 95q-11 -13 -29 -27t-38 -28t-39 -24q-20 -11 -36 -15l-11 18q22 19 44 45t42 56t36 60t29 55q5 11 9 23t8 23t12 19 t20 7q8 1 22 -3t26 -10t22 -14t10 -17q0 -10 -6 -43t-14 -81q-8 -49 -18 -107t-19 -120t-15 -122t-5 -111q1 -27 1 -53t1 -52h13q38 0 78 4t77 14zM526 318q28 37 47 79q19 43 31 91t22 104q9 56 17 120q1 12 9 22t18 17t22 9t25 0q12 -3 18 -11q6 -9 8 -19q1 -10 1 -22 t-1 -23q-7 -47 -19 -97t-34 -99t-53 -95t-73 -85q57 -11 123 -19t126 -9q-5 53 -7 99t-3 91q1 19 1 47t2 60t7 66t14 62q9 30 23 54t34 35q12 7 24 11t26 5q8 1 18 -3t11 -13q0 -10 -4 -18q-25 -53 -39 -115t-21 -121q-7 -58 -9 -104t-2 -66v-53t1 -37q15 1 26 3t21 3 q10 3 22 5q11 2 25 5l6 -22q-15 -7 -43 -17t-57 -18q1 -68 3 -132t9 -130l-22 -4q-25 54 -39 118t-23 134q-45 -8 -90 -12t-90 -4h-45t-54 6t-46 18q-19 12 -19 36q1 6 3 16t8 18t16 13t25 1h1z"/>
<glyph glyph-name="onehalf" horiz-adv-x="1084" unicode="" d="M1038 -33q-52 14 -106 17t-108 3q-22 0 -50 -2q-28 -3 -55 -5t-49 -4t-29 -2q-19 0 -29 12t-10 28t8 28t22 18q14 8 30 12t29 3h6q56 29 102 69t79 88q34 48 52 104q18 55 18 114q0 40 -10 86t-32 85t-60 65q-36 26 -90 26q-27 0 -51 -8q-23 -8 -41 -21q-18 -15 -28 -35 t-11 -45q1 -39 19 -67t45 -55q9 -8 13 -16t4 -19q0 -28 -16 -42t-38 -14q-26 0 -42 17t-26 41t-12 50q-4 26 -4 42q0 43 14 86t44 78t74 57t101 22q53 -1 95 -21t73 -55q30 -35 46 -81t16 -99q0 -69 -19 -135t-54 -124q-34 -58 -84 -108t-111 -90q77 -6 149 -26t132 -56z M816 1294q14 0 20 -12t6 -20t-16 -40t-38 -70t-42 -72q-21 -36 -30 -54q-50 -94 -92 -180t-80 -170t-72 -169t-68 -176t-67 -191q-34 -100 -71 -212l-28 6q38 144 84 290t95 285t99 264t95 225q7 18 21 47t31 62t37 66t39 60q20 27 40 44t37 17zM418 567q-30 -21 -64 -37 t-72 -26t-76 -16q-39 -6 -75 -6q-14 0 -28 2t-25 9q-12 6 -18 16t-6 26q0 12 7 29t23 17q6 0 9 -1q29 -8 59 -10t61 -4q-17 84 -21 166t-5 166q0 48 1 94t5 95q-11 -13 -29 -27t-38 -28t-39 -24q-20 -11 -36 -15l-11 18q22 19 44 45t42 56t36 60t29 55q5 11 9 23t8 23t12 19 t20 7q8 1 22 -3t26 -10t22 -14t10 -17q0 -10 -6 -43t-14 -81q-8 -49 -18 -107t-19 -120t-15 -122t-5 -111q1 -27 1 -53t1 -52h13q38 0 78 4t77 14z"/>
<glyph glyph-name="threequarters" horiz-adv-x="1121" unicode="" d="M618 318q28 37 47 79q19 43 31 91t22 104q9 56 17 120q1 12 9 22t18 17t22 9t25 0q12 -3 18 -11q6 -9 8 -19q1 -10 1 -22t-1 -23q-7 -47 -19 -97t-34 -99t-53 -95t-73 -85q57 -11 123 -19t126 -9q-5 53 -7 99t-3 91q1 19 1 47t2 60t7 66t14 62q9 30 23 54t34 35 q12 7 24 11t26 5q8 1 18 -3t11 -13q0 -10 -4 -18q-25 -53 -39 -115t-21 -121q-7 -58 -9 -104t-2 -66v-53t1 -37q15 1 26 3t21 3q10 3 22 5q11 2 25 5l6 -22q-15 -7 -43 -17t-57 -18q1 -68 3 -132t9 -130l-22 -4q-25 54 -39 118t-23 134q-45 -8 -90 -12t-90 -4h-45t-54 6 t-46 18q-19 12 -19 36q1 6 3 16t8 18t16 13t25 1h1zM477 642q1 -41 -19 -73q-20 -31 -50 -53t-69 -33q-38 -11 -75 -11q-29 0 -60 6t-57 20t-43 39q-17 24 -17 60q1 27 11 49t28 38t42 26t50 17l3 -15q-29 -17 -47 -45t-18 -66q0 -51 28 -77t80 -26q34 0 56 11t36 29t21 40 q6 22 6 45q0 91 -47 137t-135 53v33q40 4 74 18t59 37q26 23 40 57t14 78q0 36 -11 71t-33 63t-52 45q-32 17 -74 17q-27 0 -51 -8t-42 -22q-19 -14 -29 -36q-10 -20 -10 -46q0 -39 19 -67t45 -57q8 -8 12 -18t5 -24q0 -18 -16 -33t-39 -15q-25 0 -41 16t-25 41 q-8 23 -12 49t-4 44q0 46 16 90t46 80q30 35 73 56t97 21q48 1 90 -19t73 -52t49 -75q18 -42 17 -86q1 -42 -15 -80q-16 -37 -44 -69t-68 -56t-86 -38q36 -8 72 -24t64 -39t46 -54t17 -69zM908 1294q14 0 20 -12t6 -20t-16 -40t-38 -70t-42 -72q-21 -36 -30 -54 q-50 -94 -92 -180t-80 -170t-72 -169t-68 -176t-67 -191q-34 -100 -71 -212l-28 6q38 144 84 290t95 285t99 264t95 225q7 18 21 47t31 62t37 66t39 60q20 27 40 44t37 17z"/>
<glyph glyph-name="questiondown" horiz-adv-x="741" unicode="" d="M364 695q11 -26 15 -52t4 -52q0 -55 -17 -105t-43 -98q-25 -48 -55 -93t-56 -91t-43 -93t-17 -96q0 -65 21 -119t58 -91t88 -57t112 -20q43 0 81 16t68 42q30 28 46 65q18 37 18 80q0 65 -28 114t-70 94q-12 14 -20 28t-7 33q1 30 13 52t46 22q39 0 66 -26t44 -62 q16 -38 24 -78t8 -70q0 -78 -24 -152t-72 -132q-46 -58 -112 -95q-66 -36 -150 -36q-70 0 -132 26t-109 73t-75 113t-27 146q0 80 24 142q23 62 59 115q36 52 78 100t76 98q36 50 60 108t24 131v10t-1 10h25zM453 898q0 -19 -7 -36q-8 -18 -20 -30t-29 -19t-36 -7 q-21 0 -37 7t-29 19t-20 30q-7 17 -7 36t7 36q7 18 20 30t29 19t37 7q19 0 36 -7t29 -19t20 -30q7 -17 7 -36z"/>
<glyph glyph-name="Agrave" horiz-adv-x="1144" unicode="" d="M1059 1075q0 -23 -8 -54.5t-23.5 -61t-38.5 -50t-53 -20.5q-16 0 -20.5 11t-4.5 24q0 42 7 83t7 85q0 43 -7 84.5t-25.5 73.5t-52 51.5t-85.5 19.5q-75 0 -138.5 -35t-116 -95t-95 -139.5t-75.5 -168.5t-56.5 -182t-39 -180t-22.5 -162.5t-7 -129.5q0 -48 4.5 -102 t16 -106.5t30.5 -100.5t48 -84.5t69.5 -58t94.5 -21.5q79 0 140 31t108.5 83t82 119.5t60.5 139.5q-5 35 -8 70.5t-3 70.5q0 24 2 59.5t7 76t14 82t22 79t31 66t42 43.5q16 9 32.5 16.5t35.5 7.5q14 0 22.5 -6t8.5 -20q0 -9 -2.5 -17.5t-6.5 -17.5q-37 -96 -54 -197 t-17 -204q0 -36 4.5 -87t12.5 -108t20 -117t27.5 -114t34 -98t40.5 -70l-18 -6q-88 89 -147.5 200.5t-87.5 233.5q-47 -111 -114 -203q-30 -39 -67 -71.5t-79 -56.5t-88.5 -37t-97.5 -13q-74 0 -130.5 26t-97.5 69t-68.5 99t-43.5 116.5t-23 121.5t-7 113q0 116 21.5 245 t62.5 255.5t101.5 242t138.5 203.5t173 140t205 52q67 0 122.5 -21.5t95.5 -61t62 -94.5t22 -122zM865 1434q-98 46 -174.5 105.5t-138.5 144.5l128 86q17 -51 38 -94t45.5 -81.5t53 -74.5t59.5 -72z"/>
<glyph glyph-name="Aacute" horiz-adv-x="1144" unicode="" d="M1059 1075q0 -23 -8 -54.5t-23.5 -61t-38.5 -50t-53 -20.5q-16 0 -20.5 11t-4.5 24q0 42 7 83t7 85q0 43 -7 84.5t-25.5 73.5t-52 51.5t-85.5 19.5q-75 0 -138.5 -35t-116 -95t-95 -139.5t-75.5 -168.5t-56.5 -182t-39 -180t-22.5 -162.5t-7 -129.5q0 -48 4.5 -102 t16 -106.5t30.5 -100.5t48 -84.5t69.5 -58t94.5 -21.5q79 0 140 31t108.5 83t82 119.5t60.5 139.5q-5 35 -8 70.5t-3 70.5q0 24 2 59.5t7 76t14 82t22 79t31 66t42 43.5q16 9 32.5 16.5t35.5 7.5q14 0 22.5 -6t8.5 -20q0 -9 -2.5 -17.5t-6.5 -17.5q-37 -96 -54 -197 t-17 -204q0 -36 4.5 -87t12.5 -108t20 -117t27.5 -114t34 -98t40.5 -70l-18 -6q-88 89 -147.5 200.5t-87.5 233.5q-47 -111 -114 -203q-30 -39 -67 -71.5t-79 -56.5t-88.5 -37t-97.5 -13q-74 0 -130.5 26t-97.5 69t-68.5 99t-43.5 116.5t-23 121.5t-7 113q0 116 21.5 245 t62.5 255.5t101.5 242t138.5 203.5t173 140t205 52q67 0 122.5 -21.5t95.5 -61t62 -94.5t22 -122zM636 1448q31 36 59 72t53 74.5t46 81.5t38 94l128 -86q-62 -85 -138.5 -144.5t-174.5 -105.5z"/>
<glyph glyph-name="Acircumflex" horiz-adv-x="1144" unicode="" d="M1059 1075q0 -23 -8 -54.5t-23.5 -61t-38.5 -50t-53 -20.5q-16 0 -20.5 11t-4.5 24q0 42 7 83t7 85q0 43 -7 84.5t-25.5 73.5t-52 51.5t-85.5 19.5q-75 0 -138.5 -35t-116 -95t-95 -139.5t-75.5 -168.5t-56.5 -182t-39 -180t-22.5 -162.5t-7 -129.5q0 -48 4.5 -102 t16 -106.5t30.5 -100.5t48 -84.5t69.5 -58t94.5 -21.5q79 0 140 31t108.5 83t82 119.5t60.5 139.5q-5 35 -8 70.5t-3 70.5q0 24 2 59.5t7 76t14 82t22 79t31 66t42 43.5q16 9 32.5 16.5t35.5 7.5q14 0 22.5 -6t8.5 -20q0 -9 -2.5 -17.5t-6.5 -17.5q-37 -96 -54 -197 t-17 -204q0 -36 4.5 -87t12.5 -108t20 -117t27.5 -114t34 -98t40.5 -70l-18 -6q-88 89 -147.5 200.5t-87.5 233.5q-47 -111 -114 -203q-30 -39 -67 -71.5t-79 -56.5t-88.5 -37t-97.5 -13q-74 0 -130.5 26t-97.5 69t-68.5 99t-43.5 116.5t-23 121.5t-7 113q0 116 21.5 245 t62.5 255.5t101.5 242t138.5 203.5t173 140t205 52q67 0 122.5 -21.5t95.5 -61t62 -94.5t22 -122zM515 1448q31 36 58 70.5t53 71t51.5 78t53.5 92.5h60q28 -51 53.5 -92.5t51.5 -78t53 -71t58 -70.5l-11 -14q-35 18 -63.5 36t-56 37.5t-55.5 41.5t-60 49q-32 -27 -60 -49 t-55.5 -42t-56.5 -37.5t-63 -35.5z"/>
<glyph glyph-name="Atilde" horiz-adv-x="1144" unicode="" d="M1059 1075q0 -23 -8 -54.5t-23.5 -61t-38.5 -50t-53 -20.5q-16 0 -20.5 11t-4.5 24q0 42 7 83t7 85q0 43 -7 84.5t-25.5 73.5t-52 51.5t-85.5 19.5q-75 0 -138.5 -35t-116 -95t-95 -139.5t-75.5 -168.5t-56.5 -182t-39 -180t-22.5 -162.5t-7 -129.5q0 -48 4.5 -102 t16 -106.5t30.5 -100.5t48 -84.5t69.5 -58t94.5 -21.5q79 0 140 31t108.5 83t82 119.5t60.5 139.5q-5 35 -8 70.5t-3 70.5q0 24 2 59.5t7 76t14 82t22 79t31 66t42 43.5q16 9 32.5 16.5t35.5 7.5q14 0 22.5 -6t8.5 -20q0 -9 -2.5 -17.5t-6.5 -17.5q-37 -96 -54 -197 t-17 -204q0 -36 4.5 -87t12.5 -108t20 -117t27.5 -114t34 -98t40.5 -70l-18 -6q-88 89 -147.5 200.5t-87.5 233.5q-47 -111 -114 -203q-30 -39 -67 -71.5t-79 -56.5t-88.5 -37t-97.5 -13q-74 0 -130.5 26t-97.5 69t-68.5 99t-43.5 116.5t-23 121.5t-7 113q0 116 21.5 245 t62.5 255.5t101.5 242t138.5 203.5t173 140t205 52q67 0 122.5 -21.5t95.5 -61t62 -94.5t22 -122zM549 1502q3 47 18 85q6 16 15 31.5t22 27.5t30 19.5t39 7.5q25 0 49 -11t47.5 -23.5t47.5 -23.5t48 -11q25 0 39.5 8.5t22.5 19.5q9 12 12 28h34q-5 -47 -21 -83 q-14 -32 -39.5 -57.5t-68.5 -25.5q-24 0 -49.5 11t-50 23.5t-46.5 23.5t-40 11q-24 0 -39 -10t-23 -21q-10 -13 -13 -30h-34z"/>
<glyph glyph-name="Adieresis" horiz-adv-x="1144" unicode="" d="M1059 1075q0 -23 -8 -54.5t-23.5 -61t-38.5 -50t-53 -20.5q-16 0 -20.5 11t-4.5 24q0 42 7 83t7 85q0 43 -7 84.5t-25.5 73.5t-52 51.5t-85.5 19.5q-75 0 -138.5 -35t-116 -95t-95 -139.5t-75.5 -168.5t-56.5 -182t-39 -180t-22.5 -162.5t-7 -129.5q0 -48 4.5 -102 t16 -106.5t30.5 -100.5t48 -84.5t69.5 -58t94.5 -21.5q79 0 140 31t108.5 83t82 119.5t60.5 139.5q-5 35 -8 70.5t-3 70.5q0 24 2 59.5t7 76t14 82t22 79t31 66t42 43.5q16 9 32.5 16.5t35.5 7.5q14 0 22.5 -6t8.5 -20q0 -9 -2.5 -17.5t-6.5 -17.5q-37 -96 -54 -197 t-17 -204q0 -36 4.5 -87t12.5 -108t20 -117t27.5 -114t34 -98t40.5 -70l-18 -6q-88 89 -147.5 200.5t-87.5 233.5q-47 -111 -114 -203q-30 -39 -67 -71.5t-79 -56.5t-88.5 -37t-97.5 -13q-74 0 -130.5 26t-97.5 69t-68.5 99t-43.5 116.5t-23 121.5t-7 113q0 116 21.5 245 t62.5 255.5t101.5 242t138.5 203.5t173 140t205 52q67 0 122.5 -21.5t95.5 -61t62 -94.5t22 -122zM971 1588q0 -37 -24.5 -60.5t-59.5 -23.5q-33 0 -57.5 23.5t-24.5 60.5q0 16 6.5 31t18 26.5t26 18t31.5 6.5q18 0 33 -6.5t26.5 -18t18 -26.5t6.5 -31zM717 1588 q0 -37 -24.5 -60.5t-59.5 -23.5q-33 0 -57.5 23.5t-24.5 60.5q0 16 6.5 31t18 26.5t26 18t31.5 6.5q18 0 33 -6.5t26.5 -18t18 -26.5t6.5 -31z"/>
<glyph glyph-name="Aring" horiz-adv-x="1144" unicode="" d="M689 1584q-1 -30 21 -52t52 -21q30 -1 52 21t21 52q1 30 -21 52t-52 21q-30 1 -52 -21t-21 -52zM608 1584q0 32 12 60t33 49t49 33t60 12t60 -12t49 -33t33 -49t12 -60t-12 -60t-33 -49t-49 -33t-60 -12t-60 12t-49 33t-33 49t-12 60zM1059 1075q0 -23 -8 -55 q-7 -32 -23 -60q-16 -30 -39 -50t-53 -21q-16 0 -20 11t-5 24q0 42 7 83t7 85q0 42 -7 84q-8 42 -26 74t-52 52t-85 19q-75 0 -139 -35t-116 -95q-52 -59 -94 -139t-76 -169q-32 -89 -56 -182t-40 -180t-22 -163q-7 -76 -7 -129q1 -48 5 -102q4 -55 16 -107t30 -100 q19 -48 48 -84q30 -36 70 -58t94 -22q79 0 140 31q60 31 108 83t82 120t61 139q-5 35 -8 71t-3 70q0 24 2 60t7 76t14 82t22 78q13 38 31 66t42 44l32 16t36 8q14 0 22 -6t9 -20q-1 -10 -3 -18t-6 -17q-37 -96 -54 -197t-17 -204q1 -36 5 -87t12 -108t20 -117t28 -114 t34 -98t40 -70l-18 -6q-88 88 -148 200t-87 234q-47 -111 -114 -203q-30 -39 -67 -71t-79 -57q-43 -24 -89 -37t-97 -13q-75 0 -131 26t-97 69t-69 99q-28 57 -43 117q-16 60 -23 121t-7 113q-1 116 21 245t63 255t101 242t139 204q78 88 173 140t205 52q67 0 123 -22 t95 -60q40 -40 62 -95t22 -122z"/>
<glyph glyph-name="AE" horiz-adv-x="1977" unicode="" d="M976 725q0 43 8 83t23 81q-17 0 -21 11t-5 24q0 42 7 83t7 85q0 42 -7 84q-8 42 -26 74t-52 52t-85 19q-75 0 -141 -35t-124 -95q-58 -59 -107 -139t-88 -169t-69 -182t-50 -180t-31 -163q-10 -76 -10 -129q1 -48 5 -102q4 -55 16 -107t30 -100q19 -48 48 -84 q30 -36 70 -58t94 -22q64 0 115 26t92 70t72 102t54 124q-7 46 -10 94t-3 98q0 24 2 60t7 76t14 82t22 78q13 38 31 66t42 44q16 8 33 16t38 8q-1 6 -1 12v13zM986 -362q-67 84 -108 174t-63 187q-24 -59 -59 -115q-34 -56 -82 -98q-48 -43 -110 -69t-139 -26q-74 0 -132 23 q-57 23 -101 62t-74 90t-50 107q-18 56 -26 114t-9 110q0 119 28 253q27 134 79 265t124 250t161 210q88 91 190 145t212 54q65 0 119 -20t94 -58t63 -90t26 -115q53 63 121 116t144 91t155 60q80 22 160 22q64 0 122 -14q57 -14 101 -44t70 -80t25 -122q1 -72 -23 -128 t-64 -101q-40 -44 -94 -76t-113 -54q-59 -23 -123 -35t-124 -17v18q66 23 136 61t128 90t96 116q38 66 37 145q0 86 -47 137t-135 51q-69 1 -137 -21t-130 -60t-116 -91q-54 -51 -92 -113q-40 -62 -62 -130t-22 -136q0 -75 31 -138t81 -112q50 -48 114 -82t130 -51v-18 q-32 -13 -68 -35t-72 -51t-70 -65t-60 -76t-42 -84t-15 -88q-1 -116 57 -176t174 -60q64 0 124 18t112 50t94 78q43 46 75 102l13 -6q-27 -72 -78 -137t-118 -114q-66 -49 -146 -77t-164 -29q-65 0 -120 19t-95 56q-40 38 -63 92t-23 126q0 144 85 252t253 180 q-69 0 -129 19t-107 54t-79 85t-48 111q-17 -43 -30 -85t-23 -92t-15 -110q-5 -62 -5 -145q0 -53 4 -125t14 -147q9 -75 27 -147t44 -124z"/>
<glyph glyph-name="Ccedilla" horiz-adv-x="1130" unicode="" d="M465 -243q-109 16 -187 69t-129 131q-51 77 -75 175t-24 205q0 110 23 230t68 236q45 117 111 221t150 184t188 126t224 46q75 0 137 -22q63 -22 107 -62t68 -100t24 -137q0 -72 -27 -135q-27 -64 -73 -116t-105 -94q-60 -42 -126 -70q-67 -28 -135 -44t-130 -16h-6v20 q90 12 174 56t150 112t106 154t39 180q1 50 -13 92t-40 72t-67 45q-40 16 -93 16q-108 1 -194 -45t-153 -122t-115 -173q-48 -98 -80 -204q-32 -107 -47 -213t-15 -197q0 -101 22 -195t72 -168q50 -72 130 -116t196 -44q54 0 104 20t94 53t80 75t60 86l12 -6 q-20 -60 -60 -120t-92 -107q-54 -47 -120 -76t-140 -29q-32 0 -60 3l-12 -54q18 3 37 3q26 0 49 -7t40 -21t27 -34t10 -47q1 -31 -13 -54t-36 -39t-48 -22q-26 -8 -53 -8q-30 0 -57 8q-26 8 -50 22q-24 12 -42 28t-30 30l13 15q36 -26 66 -35t67 -9q38 -1 62 15t24 47 q0 27 -22 40t-49 13q-13 0 -25 -2t-18 -4z"/>
<glyph glyph-name="Egrave" horiz-adv-x="1041" unicode="" d="M1091 1120q0 -72 -23.5 -128.5t-63.5 -100.5t-93.5 -76t-113.5 -54t-123.5 -34.5t-123.5 -17.5v18q66 23 136.5 61t128 89.5t95 117t37.5 144.5q0 86 -47 137t-135 51q-69 0 -137 -21.5t-130 -60t-115.5 -90.5t-92.5 -113.5t-61.5 -129t-22.5 -136.5q0 -75 31 -138 t81 -112t114 -82.5t130 -50.5v-18q-32 -13 -68 -35t-72.5 -51t-70 -65t-59.5 -76t-41.5 -83.5t-15.5 -88.5q0 -116 57.5 -176t173.5 -60q65 0 124.5 17.5t111 50t94.5 78.5t75 102l13 -6q-27 -72 -78 -137t-118 -114t-146.5 -77.5t-163.5 -28.5q-65 0 -120 19t-95 56 t-63 91.5t-23 126.5q0 143 85 251.5t253 180.5q-84 0 -153 27t-118.5 76.5t-76.5 118.5t-27 153q0 82 30 162t82.5 153t123 135t152 107.5t170 71.5t175.5 26q64 0 122 -13.5t101.5 -44t69 -80.5t25.5 -122zM862 1440q-98 46 -174.5 105.5t-138.5 144.5l128 86 q17 -51 38 -94t45.5 -81.5t53 -74.5t59.5 -72z"/>
<glyph glyph-name="Eacute" horiz-adv-x="1041" unicode="" d="M1091 1120q0 -72 -23.5 -128.5t-63.5 -100.5t-93.5 -76t-113.5 -54t-123.5 -34.5t-123.5 -17.5v18q66 23 136.5 61t128 89.5t95 117t37.5 144.5q0 86 -47 137t-135 51q-69 0 -137 -21.5t-130 -60t-115.5 -90.5t-92.5 -113.5t-61.5 -129t-22.5 -136.5q0 -75 31 -138 t81 -112t114 -82.5t130 -50.5v-18q-32 -13 -68 -35t-72.5 -51t-70 -65t-59.5 -76t-41.5 -83.5t-15.5 -88.5q0 -116 57.5 -176t173.5 -60q65 0 124.5 17.5t111 50t94.5 78.5t75 102l13 -6q-27 -72 -78 -137t-118 -114t-146.5 -77.5t-163.5 -28.5q-65 0 -120 19t-95 56 t-63 91.5t-23 126.5q0 143 85 251.5t253 180.5q-84 0 -153 27t-118.5 76.5t-76.5 118.5t-27 153q0 82 30 162t82.5 153t123 135t152 107.5t170 71.5t175.5 26q64 0 122 -13.5t101.5 -44t69 -80.5t25.5 -122zM633 1454q31 36 59 72t53 74.5t46 81.5t38 94l128 -86 q-62 -85 -138.5 -144.5t-174.5 -105.5z"/>
<glyph glyph-name="Ecircumflex" horiz-adv-x="1041" unicode="" d="M1091 1120q0 -72 -23.5 -128.5t-63.5 -100.5t-93.5 -76t-113.5 -54t-123.5 -34.5t-123.5 -17.5v18q66 23 136.5 61t128 89.5t95 117t37.5 144.5q0 86 -47 137t-135 51q-69 0 -137 -21.5t-130 -60t-115.5 -90.5t-92.5 -113.5t-61.5 -129t-22.5 -136.5q0 -75 31 -138 t81 -112t114 -82.5t130 -50.5v-18q-32 -13 -68 -35t-72.5 -51t-70 -65t-59.5 -76t-41.5 -83.5t-15.5 -88.5q0 -116 57.5 -176t173.5 -60q65 0 124.5 17.5t111 50t94.5 78.5t75 102l13 -6q-27 -72 -78 -137t-118 -114t-146.5 -77.5t-163.5 -28.5q-65 0 -120 19t-95 56 t-63 91.5t-23 126.5q0 143 85 251.5t253 180.5q-84 0 -153 27t-118.5 76.5t-76.5 118.5t-27 153q0 82 30 162t82.5 153t123 135t152 107.5t170 71.5t175.5 26q64 0 122 -13.5t101.5 -44t69 -80.5t25.5 -122zM512 1454q31 36 58 70.5t53 71t51.5 78t53.5 92.5h60 q28 -51 53.5 -92.5t51.5 -78t53 -71t58 -70.5l-11 -14q-35 18 -63.5 36t-56 37.5t-55.5 41.5t-60 49q-32 -27 -60 -49t-55.5 -42t-56.5 -37.5t-63 -35.5z"/>
<glyph glyph-name="Edieresis" horiz-adv-x="1041" unicode="" d="M1091 1120q0 -72 -23.5 -128.5t-63.5 -100.5t-93.5 -76t-113.5 -54t-123.5 -34.5t-123.5 -17.5v18q66 23 136.5 61t128 89.5t95 117t37.5 144.5q0 86 -47 137t-135 51q-69 0 -137 -21.5t-130 -60t-115.5 -90.5t-92.5 -113.5t-61.5 -129t-22.5 -136.5q0 -75 31 -138 t81 -112t114 -82.5t130 -50.5v-18q-32 -13 -68 -35t-72.5 -51t-70 -65t-59.5 -76t-41.5 -83.5t-15.5 -88.5q0 -116 57.5 -176t173.5 -60q65 0 124.5 17.5t111 50t94.5 78.5t75 102l13 -6q-27 -72 -78 -137t-118 -114t-146.5 -77.5t-163.5 -28.5q-65 0 -120 19t-95 56 t-63 91.5t-23 126.5q0 143 85 251.5t253 180.5q-84 0 -153 27t-118.5 76.5t-76.5 118.5t-27 153q0 82 30 162t82.5 153t123 135t152 107.5t170 71.5t175.5 26q64 0 122 -13.5t101.5 -44t69 -80.5t25.5 -122zM968 1594q0 -37 -24.5 -60.5t-59.5 -23.5q-33 0 -57.5 23.5 t-24.5 60.5q0 16 6.5 31t18 26.5t26 18t31.5 6.5q18 0 33 -6.5t26.5 -18t18 -26.5t6.5 -31zM714 1594q0 -37 -24.5 -60.5t-59.5 -23.5q-33 0 -57.5 23.5t-24.5 60.5q0 16 6.5 31t18 26.5t26 18t31.5 6.5q18 0 33 -6.5t26.5 -18t18 -26.5t6.5 -31z"/>
<glyph glyph-name="Igrave" horiz-adv-x="664" unicode="" d="M459 -313q0 -35 -35 -35q-22 0 -42.5 11t-37.5 22q-5 3 -8.5 6.5l-7.5 7.5q-64 -8 -121 -13t-97 -5q-27 0 -59 2.5t-60.5 13t-47.5 31.5t-19 59q0 28 17.5 52t48.5 24q3 0 7 -1t7 -1q63 -14 132 -23.5t139 -15.5q-9 42 -13 87.5t-6 88.5q-1 32 -1 61q1 10 1 19v61 q0 73 2 160.5t6.5 183t12 196t18 200t25 194t33.5 178.5q-85 -12 -165 -28.5t-147 -36.5q-6 -2 -11 -2h-10q-15 0 -27.5 7t-20.5 18t-12.5 25t-4.5 28q0 30 14.5 50t37.5 33t52.5 19t59.5 9t57.5 3h48.5q31 0 72 -1.5t87 -5.5q5 18 11 34.5t12 32.5l21 -9q-4 -20 -9 -61 q52 -5 106 -11.5t103 -16.5t90 -22.5t68 -27.5l-10 -16q-25 3 -50.5 3.5t-49.5 0.5q-60 0 -128 -5t-140 -13q-5 -67 -10 -150.5t-8.5 -178.5t-5.5 -197t-2 -205.5t2 -204.5t7.5 -193t14 -172.5t20.5 -142.5q27 -1 53.5 -1.5t52.5 -0.5q53 0 107 2.5t106 13.5l10 -16 q-21 -15 -53.5 -28t-72 -25t-85 -22.5t-92.5 -18.5q3 -8 5 -15.5t2 -15.5zM515 1495q-98 46 -174.5 105.5t-138.5 144.5l128 86q17 -51 38 -94t45.5 -81.5t53 -74.5t59.5 -72z"/>
<glyph glyph-name="Iacute" horiz-adv-x="664" unicode="" d="M459 -313q0 -35 -35 -35q-22 0 -42.5 11t-37.5 22q-5 3 -8.5 6.5l-7.5 7.5q-64 -8 -121 -13t-97 -5q-27 0 -59 2.5t-60.5 13t-47.5 31.5t-19 59q0 28 17.5 52t48.5 24q3 0 7 -1t7 -1q63 -14 132 -23.5t139 -15.5q-9 42 -13 87.5t-6 88.5q-1 32 -1 61q1 10 1 19v61 q0 73 2 160.5t6.5 183t12 196t18 200t25 194t33.5 178.5q-85 -12 -165 -28.5t-147 -36.5q-6 -2 -11 -2h-10q-15 0 -27.5 7t-20.5 18t-12.5 25t-4.5 28q0 30 14.5 50t37.5 33t52.5 19t59.5 9t57.5 3h48.5q31 0 72 -1.5t87 -5.5q5 18 11 34.5t12 32.5l21 -9q-4 -20 -9 -61 q52 -5 106 -11.5t103 -16.5t90 -22.5t68 -27.5l-10 -16q-25 3 -50.5 3.5t-49.5 0.5q-60 0 -128 -5t-140 -13q-5 -67 -10 -150.5t-8.5 -178.5t-5.5 -197t-2 -205.5t2 -204.5t7.5 -193t14 -172.5t20.5 -142.5q27 -1 53.5 -1.5t52.5 -0.5q53 0 107 2.5t106 13.5l10 -16 q-21 -15 -53.5 -28t-72 -25t-85 -22.5t-92.5 -18.5q3 -8 5 -15.5t2 -15.5zM286 1509q31 36 59 72t53 74.5t46 81.5t38 94l128 -86q-62 -85 -138.5 -144.5t-174.5 -105.5z"/>
<glyph glyph-name="Icircumflex" horiz-adv-x="664" unicode="" d="M459 -313q0 -35 -35 -35q-22 0 -42.5 11t-37.5 22q-5 3 -8.5 6.5l-7.5 7.5q-64 -8 -121 -13t-97 -5q-27 0 -59 2.5t-60.5 13t-47.5 31.5t-19 59q0 28 17.5 52t48.5 24q3 0 7 -1t7 -1q63 -14 132 -23.5t139 -15.5q-9 42 -13 87.5t-6 88.5q-1 32 -1 61q1 10 1 19v61 q0 73 2 160.5t6.5 183t12 196t18 200t25 194t33.5 178.5q-85 -12 -165 -28.5t-147 -36.5q-6 -2 -11 -2h-10q-15 0 -27.5 7t-20.5 18t-12.5 25t-4.5 28q0 30 14.5 50t37.5 33t52.5 19t59.5 9t57.5 3h48.5q31 0 72 -1.5t87 -5.5q5 18 11 34.5t12 32.5l21 -9q-4 -20 -9 -61 q52 -5 106 -11.5t103 -16.5t90 -22.5t68 -27.5l-10 -16q-25 3 -50.5 3.5t-49.5 0.5q-60 0 -128 -5t-140 -13q-5 -67 -10 -150.5t-8.5 -178.5t-5.5 -197t-2 -205.5t2 -204.5t7.5 -193t14 -172.5t20.5 -142.5q27 -1 53.5 -1.5t52.5 -0.5q53 0 107 2.5t106 13.5l10 -16 q-21 -15 -53.5 -28t-72 -25t-85 -22.5t-92.5 -18.5q3 -8 5 -15.5t2 -15.5zM165 1509q31 36 58 70.5t53 71t51.5 78t53.5 92.5h60q28 -51 53.5 -92.5t51.5 -78t53 -71t58 -70.5l-11 -14q-35 18 -63.5 36t-56 37.5t-55.5 41.5t-60 49q-32 -27 -60 -49t-55.5 -42t-56.5 -37.5 t-63 -35.5z"/>
<glyph glyph-name="Idieresis" horiz-adv-x="664" unicode="" d="M459 -313q0 -35 -35 -35q-22 0 -42.5 11t-37.5 22q-5 3 -8.5 6.5l-7.5 7.5q-64 -8 -121 -13t-97 -5q-27 0 -59 2.5t-60.5 13t-47.5 31.5t-19 59q0 28 17.5 52t48.5 24q3 0 7 -1t7 -1q63 -14 132 -23.5t139 -15.5q-9 42 -13 87.5t-6 88.5q-1 32 -1 61q1 10 1 19v61 q0 73 2 160.5t6.5 183t12 196t18 200t25 194t33.5 178.5q-85 -12 -165 -28.5t-147 -36.5q-6 -2 -11 -2h-10q-15 0 -27.5 7t-20.5 18t-12.5 25t-4.5 28q0 30 14.5 50t37.5 33t52.5 19t59.5 9t57.5 3h48.5q31 0 72 -1.5t87 -5.5q5 18 11 34.5t12 32.5l21 -9q-4 -20 -9 -61 q52 -5 106 -11.5t103 -16.5t90 -22.5t68 -27.5l-10 -16q-25 3 -50.5 3.5t-49.5 0.5q-60 0 -128 -5t-140 -13q-5 -67 -10 -150.5t-8.5 -178.5t-5.5 -197t-2 -205.5t2 -204.5t7.5 -193t14 -172.5t20.5 -142.5q27 -1 53.5 -1.5t52.5 -0.5q53 0 107 2.5t106 13.5l10 -16 q-21 -15 -53.5 -28t-72 -25t-85 -22.5t-92.5 -18.5q3 -8 5 -15.5t2 -15.5zM621 1649q0 -37 -24.5 -60.5t-59.5 -23.5q-33 0 -57.5 23.5t-24.5 60.5q0 16 6.5 31t18 26.5t26 18t31.5 6.5q18 0 33 -6.5t26.5 -18t18 -26.5t6.5 -31zM367 1649q0 -37 -24.5 -60.5t-59.5 -23.5 q-33 0 -57.5 23.5t-24.5 60.5q0 16 6.5 31t18 26.5t26 18t31.5 6.5q18 0 33 -6.5t26.5 -18t18 -26.5t6.5 -31z"/>
<glyph glyph-name="Eth" horiz-adv-x="1237" unicode="" d="M704 484q-20 2 -42 2t-43 1q-63 0 -135 -4t-146 -12q-8 -88 -10 -171q-1 -36 0 -71q0 -47 1 -93q3 -82 7 -162t9 -164l-16 -7q-25 75 -42 157t-27 166t-16 168q-4 84 -5 165q-45 -6 -87 -13t-79 -15q-5 -1 -9 -1h-8q-28 0 -42 16t-14 32q0 28 26 42t64 21q36 7 76 7h66h7 q1 44 3 100t10 114q6 58 16 116t28 108t42 90q24 39 57 59q17 9 35 17t38 9q31 0 31 -28q-1 -11 -3 -19t-5 -16q-17 -44 -39 -86t-33 -88q-27 -105 -45 -198t-28 -180q46 -2 98 -5t100 -8t92 -13t74 -17zM1177 461q0 -101 -21 -203t-62 -194t-101 -172q-59 -80 -137 -138 t-174 -92t-206 -33q-100 1 -178 27t-132 78t-84 128q-29 76 -29 175q0 35 3 70t11 69l16 2v-14v-7q-1 -89 25 -171q26 -86 80 -154q52 -68 130 -108q78 -41 181 -41q101 -1 179 39t137 106q57 66 97 152t64 178t34 184t11 170q-1 78 -15 170t-44 186q-30 93 -74 180 q-46 87 -108 154q-62 68 -142 108t-176 40q-37 0 -76 -12t-77 -34q-37 -22 -71 -51t-59 -63t-40 -72t-15 -76q0 -28 7 -50t15 -40l16 -36q7 -16 7 -33q1 -29 -19 -49t-48 -19q-23 0 -37 10q-13 9 -21 25t-11 35t-3 37q0 43 12 86q12 44 32 84t46 76t53 69q66 75 149 119 t185 43q125 0 223 -41q98 -42 174 -112q74 -70 126 -164t84 -197q32 -104 48 -213q15 -109 15 -211z"/>
<glyph glyph-name="Ntilde" horiz-adv-x="1181" unicode="" d="M1681 -464q-32 -25 -72 -34t-82 -9q-149 0 -262 45t-196.5 123t-139.5 183.5t-90.5 227t-50.5 252.5q-16 130 -20 259q-1 45 -2 89q0 82 4 161q6 121 18 222q-58 -74 -110 -178t-96.5 -223t-82.5 -244.5t-68.5 -244.5t-54 -223t-39.5 -178q-2 -8 -4.5 -21t-8 -25 t-14.5 -20.5t-22 -8.5q-12 0 -23 7.5t-20 18t-15.5 23t-9.5 23.5q-30 97 -44 209t-20 226q-5 105 -6 208v19q0 113 1 214q0 112 3 224t11 224q3 40 8.5 89t22.5 91t49 70.5t88 28.5q14 0 23.5 -6.5t9.5 -22.5v-8q-13 -119 -24 -233.5t-19.5 -228.5t-13 -229.5t-4.5 -236.5 q0 -118 5 -236.5t17 -236.5q37 170 77.5 332t92.5 317.5t120 303.5t159 290q8 13 20.5 30.5t28 33t32.5 26.5t35 11q22 0 34.5 -20t18 -46.5t6.5 -53.5t1 -42q-7 -94 -16.5 -211t-12.5 -245q-1 -40 -1 -81q0 -88 4 -179q6 -132 30.5 -255.5t70.5 -232t121.5 -189.5t184 -128 t258.5 -47q21 0 43.5 3.5t42.5 12.5zM426 1433q3 47 18 85q6 16 15 31.5t22 27.5t30 19.5t39 7.5q25 0 49 -11t47.5 -23.5t47.5 -23.5t48 -11q25 0 39.5 8.5t22.5 19.5q9 12 12 28h34q-5 -47 -21 -83q-14 -32 -39.5 -57.5t-68.5 -25.5q-24 0 -49.5 11t-50 23.5t-46.5 23.5 t-40 11q-24 0 -39 -10t-23 -21q-10 -13 -13 -30h-34z"/>
<glyph glyph-name="Ograve" horiz-adv-x="1204" unicode="" d="M1149 496q0 -81 -14.5 -176.5t-44.5 -190.5t-76 -183.5t-109.5 -156t-145 -108.5t-182.5 -41q-100 0 -177.5 37.5t-135.5 100t-98 144.5t-64.5 171t-35.5 179t-11 170q0 85 8 175.5t27.5 180t51.5 175t79.5 160t112 135t149.5 100.5l8 -14q-60 -49 -105.5 -113 t-79 -137.5t-56.5 -154t-36.5 -162t-19.5 -162t-6 -154.5q0 -69 9.5 -152t31.5 -168t58 -165t88 -142t122 -99.5t160 -37.5q72 0 128.5 35.5t98.5 93.5t71 132t47 150t26 147.5t8 125.5q0 42 -4.5 99.5t-15 122.5t-26.5 134t-40 134.5t-55.5 123.5t-72.5 102t-91 69.5 t-111 25.5q-54 0 -92 -25.5t-61.5 -65.5t-34 -88.5t-10.5 -94.5v-13.5t2 -13.5l-15 -2q-3 22 -5.5 44.5t-2.5 45.5q0 62 16.5 120.5t49.5 103.5t83.5 72.5t118.5 27.5q95 0 167.5 -41t126 -108t89 -153.5t57.5 -177t31 -178.5t9 -159zM744 1392q-98 46 -174.5 105.5 t-138.5 144.5l128 86q17 -51 38 -94t45.5 -81.5t53 -74.5t59.5 -72z"/>
<glyph glyph-name="Oacute" horiz-adv-x="1204" unicode="" d="M1149 496q0 -81 -14.5 -176.5t-44.5 -190.5t-76 -183.5t-109.5 -156t-145 -108.5t-182.5 -41q-100 0 -177.5 37.5t-135.5 100t-98 144.5t-64.5 171t-35.5 179t-11 170q0 85 8 175.5t27.5 180t51.5 175t79.5 160t112 135t149.5 100.5l8 -14q-60 -49 -105.5 -113 t-79 -137.5t-56.5 -154t-36.5 -162t-19.5 -162t-6 -154.5q0 -69 9.5 -152t31.5 -168t58 -165t88 -142t122 -99.5t160 -37.5q72 0 128.5 35.5t98.5 93.5t71 132t47 150t26 147.5t8 125.5q0 42 -4.5 99.5t-15 122.5t-26.5 134t-40 134.5t-55.5 123.5t-72.5 102t-91 69.5 t-111 25.5q-54 0 -92 -25.5t-61.5 -65.5t-34 -88.5t-10.5 -94.5v-13.5t2 -13.5l-15 -2q-3 22 -5.5 44.5t-2.5 45.5q0 62 16.5 120.5t49.5 103.5t83.5 72.5t118.5 27.5q95 0 167.5 -41t126 -108t89 -153.5t57.5 -177t31 -178.5t9 -159zM515 1406q31 36 59 72t53 74.5t46 81.5 t38 94l128 -86q-62 -85 -138.5 -144.5t-174.5 -105.5z"/>
<glyph glyph-name="Ocircumflex" horiz-adv-x="1204" unicode="" d="M1149 496q0 -81 -14.5 -176.5t-44.5 -190.5t-76 -183.5t-109.5 -156t-145 -108.5t-182.5 -41q-100 0 -177.5 37.5t-135.5 100t-98 144.5t-64.5 171t-35.5 179t-11 170q0 85 8 175.5t27.5 180t51.5 175t79.5 160t112 135t149.5 100.5l8 -14q-60 -49 -105.5 -113 t-79 -137.5t-56.5 -154t-36.5 -162t-19.5 -162t-6 -154.5q0 -69 9.5 -152t31.5 -168t58 -165t88 -142t122 -99.5t160 -37.5q72 0 128.5 35.5t98.5 93.5t71 132t47 150t26 147.5t8 125.5q0 42 -4.5 99.5t-15 122.5t-26.5 134t-40 134.5t-55.5 123.5t-72.5 102t-91 69.5 t-111 25.5q-54 0 -92 -25.5t-61.5 -65.5t-34 -88.5t-10.5 -94.5v-13.5t2 -13.5l-15 -2q-3 22 -5.5 44.5t-2.5 45.5q0 62 16.5 120.5t49.5 103.5t83.5 72.5t118.5 27.5q95 0 167.5 -41t126 -108t89 -153.5t57.5 -177t31 -178.5t9 -159zM394 1406q31 36 58 70.5t53 71t51.5 78 t53.5 92.5h60q28 -51 53.5 -92.5t51.5 -78t53 -71t58 -70.5l-11 -14q-35 18 -63.5 36t-56 37.5t-55.5 41.5t-60 49q-32 -27 -60 -49t-55.5 -42t-56.5 -37.5t-63 -35.5z"/>
<glyph glyph-name="Otilde" horiz-adv-x="1204" unicode="" d="M1149 496q0 -81 -14.5 -176.5t-44.5 -190.5t-76 -183.5t-109.5 -156t-145 -108.5t-182.5 -41q-100 0 -177.5 37.5t-135.5 100t-98 144.5t-64.5 171t-35.5 179t-11 170q0 85 8 175.5t27.5 180t51.5 175t79.5 160t112 135t149.5 100.5l8 -14q-60 -49 -105.5 -113 t-79 -137.5t-56.5 -154t-36.5 -162t-19.5 -162t-6 -154.5q0 -69 9.5 -152t31.5 -168t58 -165t88 -142t122 -99.5t160 -37.5q72 0 128.5 35.5t98.5 93.5t71 132t47 150t26 147.5t8 125.5q0 42 -4.5 99.5t-15 122.5t-26.5 134t-40 134.5t-55.5 123.5t-72.5 102t-91 69.5 t-111 25.5q-54 0 -92 -25.5t-61.5 -65.5t-34 -88.5t-10.5 -94.5v-13.5t2 -13.5l-15 -2q-3 22 -5.5 44.5t-2.5 45.5q0 62 16.5 120.5t49.5 103.5t83.5 72.5t118.5 27.5q95 0 167.5 -41t126 -108t89 -153.5t57.5 -177t31 -178.5t9 -159zM428 1460q3 47 18 85q6 16 15 31.5 t22 27.5t30 19.5t39 7.5q25 0 49 -11t47.5 -23.5t47.5 -23.5t48 -11q25 0 39.5 8.5t22.5 19.5q9 12 12 28h34q-5 -47 -21 -83q-14 -32 -39.5 -57.5t-68.5 -25.5q-24 0 -49.5 11t-50 23.5t-46.5 23.5t-40 11q-24 0 -39 -10t-23 -21q-10 -13 -13 -30h-34z"/>
<glyph glyph-name="Odieresis" horiz-adv-x="1204" unicode="" d="M1149 496q0 -81 -14.5 -176.5t-44.5 -190.5t-76 -183.5t-109.5 -156t-145 -108.5t-182.5 -41q-100 0 -177.5 37.5t-135.5 100t-98 144.5t-64.5 171t-35.5 179t-11 170q0 85 8 175.5t27.5 180t51.5 175t79.5 160t112 135t149.5 100.5l8 -14q-60 -49 -105.5 -113 t-79 -137.5t-56.5 -154t-36.5 -162t-19.5 -162t-6 -154.5q0 -69 9.5 -152t31.5 -168t58 -165t88 -142t122 -99.5t160 -37.5q72 0 128.5 35.5t98.5 93.5t71 132t47 150t26 147.5t8 125.5q0 42 -4.5 99.5t-15 122.5t-26.5 134t-40 134.5t-55.5 123.5t-72.5 102t-91 69.5 t-111 25.5q-54 0 -92 -25.5t-61.5 -65.5t-34 -88.5t-10.5 -94.5v-13.5t2 -13.5l-15 -2q-3 22 -5.5 44.5t-2.5 45.5q0 62 16.5 120.5t49.5 103.5t83.5 72.5t118.5 27.5q95 0 167.5 -41t126 -108t89 -153.5t57.5 -177t31 -178.5t9 -159zM850 1546q0 -37 -24.5 -60.5 t-59.5 -23.5q-33 0 -57.5 23.5t-24.5 60.5q0 16 6.5 31t18 26.5t26 18t31.5 6.5q18 0 33 -6.5t26.5 -18t18 -26.5t6.5 -31zM596 1546q0 -37 -24.5 -60.5t-59.5 -23.5q-33 0 -57.5 23.5t-24.5 60.5q0 16 6.5 31t18 26.5t26 18t31.5 6.5q18 0 33 -6.5t26.5 -18t18 -26.5 t6.5 -31z"/>
<glyph glyph-name="multiply" d="M119 351q6 21 20 49t32 57q19 29 39 58t40 55q-14 12 -28 26t-30 26l-26 26t-22 21q-15 15 -28 29t-19 30q-4 10 -4 21q0 5 1 11q3 16 21 34q19 19 39 19q4 0 8 -1q25 -4 44 -29q26 -31 56 -67t53 -63q22 25 50 55t47 48q16 14 30 28t29 20t31 2t35 -21q22 -23 18 -47 t-29 -44q-36 -28 -74 -61t-69 -59q41 -46 88 -94t89 -88l-10 -16q-24 8 -53 22t-60 34t-62 42t-59 43q-46 -41 -94 -87t-88 -89z" unicode=""/>
<glyph glyph-name="Oslash" horiz-adv-x="1204" unicode="" d="M657 -293q73 -1 129 35t98 94t71 132t47 150t26 148t8 125q0 49 -6 119t-21 146q-14 78 -37 158t-57 150l-574 -1076q27 -40 60 -74t73 -57q40 -24 84 -37q46 -13 99 -13zM204 -370l-26 14l73 148q-53 64 -91 144t-62 167t-33 175q-10 88 -10 164q0 86 8 176q7 90 27 180 t52 174q32 86 80 160t112 136q64 60 149 100l8 -14q-59 -49 -105 -113q-46 -63 -80 -137t-56 -154t-36 -162t-20 -162t-6 -155q0 -59 7 -128t22 -141t39 -143t61 -132l553 1117q-46 70 -108 114t-142 44q-54 0 -92 -26t-62 -65q-24 -41 -34 -89t-10 -94v-14t2 -13l-15 -2 q-3 23 -5 45t-3 45q1 63 17 121t49 103t83 73t119 27q85 0 153 -34t119 -91l93 187l76 -45l-114 -214q42 -68 72 -149t48 -164t26 -163t7 -144q-1 -80 -15 -176t-44 -191t-76 -183t-110 -156t-144 -109q-82 -41 -183 -41q-96 0 -170 34t-131 91z"/>
<glyph glyph-name="Ugrave" horiz-adv-x="1230" unicode="" d="M1165 1217q14 0 24.5 -6t10.5 -21q0 -18 -7 -37.5t-17 -39.5t-20 -39t-17 -36q-59 -151 -87 -310.5t-28 -324.5q0 -95 9 -194t30 -196.5t54.5 -191t82.5 -177.5l-20 -6q-97 103 -164 227.5t-102 261.5q-27 -88 -64 -174t-90.5 -154.5t-125 -110.5t-167.5 -42 q-73 0 -129 29.5t-98 79t-70.5 113t-46.5 131.5t-25.5 135.5t-7.5 123.5q0 143 22 288t65.5 284.5t108.5 270t152 245.5l21 -11q-37 -66 -67.5 -144t-54.5 -162.5t-42 -173t-29.5 -176.5t-17.5 -172t-6 -159q0 -46 2.5 -107.5t11.5 -127.5t27 -130t49 -114.5t77 -81.5 t111 -31q64 0 115 22.5t90 61.5t67.5 90.5t47.5 109.5t30.5 119t16.5 119q-6 58 -6 117q0 82 8.5 175.5t26 187.5t44.5 183.5t64 164.5q12 22 25.5 42t30 35.5t37.5 24.5t48 9zM918 1338q-98 46 -174.5 105.5t-138.5 144.5l128 86q17 -51 38 -94t45.5 -81.5t53 -74.5 t59.5 -72z"/>
<glyph glyph-name="Uacute" horiz-adv-x="1230" unicode="" d="M1165 1217q14 0 24.5 -6t10.5 -21q0 -18 -7 -37.5t-17 -39.5t-20 -39t-17 -36q-59 -151 -87 -310.5t-28 -324.5q0 -95 9 -194t30 -196.5t54.5 -191t82.5 -177.5l-20 -6q-97 103 -164 227.5t-102 261.5q-27 -88 -64 -174t-90.5 -154.5t-125 -110.5t-167.5 -42 q-73 0 -129 29.5t-98 79t-70.5 113t-46.5 131.5t-25.5 135.5t-7.5 123.5q0 143 22 288t65.5 284.5t108.5 270t152 245.5l21 -11q-37 -66 -67.5 -144t-54.5 -162.5t-42 -173t-29.5 -176.5t-17.5 -172t-6 -159q0 -46 2.5 -107.5t11.5 -127.5t27 -130t49 -114.5t77 -81.5 t111 -31q64 0 115 22.5t90 61.5t67.5 90.5t47.5 109.5t30.5 119t16.5 119q-6 58 -6 117q0 82 8.5 175.5t26 187.5t44.5 183.5t64 164.5q12 22 25.5 42t30 35.5t37.5 24.5t48 9zM689 1352q31 36 59 72t53 74.5t46 81.5t38 94l128 -86q-62 -85 -138.5 -144.5t-174.5 -105.5z "/>
<glyph glyph-name="Ucircumflex" horiz-adv-x="1230" unicode="" d="M1165 1217q14 0 24.5 -6t10.5 -21q0 -18 -7 -37.5t-17 -39.5t-20 -39t-17 -36q-59 -151 -87 -310.5t-28 -324.5q0 -95 9 -194t30 -196.5t54.5 -191t82.5 -177.5l-20 -6q-97 103 -164 227.5t-102 261.5q-27 -88 -64 -174t-90.5 -154.5t-125 -110.5t-167.5 -42 q-73 0 -129 29.5t-98 79t-70.5 113t-46.5 131.5t-25.5 135.5t-7.5 123.5q0 143 22 288t65.5 284.5t108.5 270t152 245.5l21 -11q-37 -66 -67.5 -144t-54.5 -162.5t-42 -173t-29.5 -176.5t-17.5 -172t-6 -159q0 -46 2.5 -107.5t11.5 -127.5t27 -130t49 -114.5t77 -81.5 t111 -31q64 0 115 22.5t90 61.5t67.5 90.5t47.5 109.5t30.5 119t16.5 119q-6 58 -6 117q0 82 8.5 175.5t26 187.5t44.5 183.5t64 164.5q12 22 25.5 42t30 35.5t37.5 24.5t48 9zM568 1352q31 36 58 70.5t53 71t51.5 78t53.5 92.5h60q28 -51 53.5 -92.5t51.5 -78t53 -71 t58 -70.5l-11 -14q-35 18 -63.5 36t-56 37.5t-55.5 41.5t-60 49q-32 -27 -60 -49t-55.5 -42t-56.5 -37.5t-63 -35.5z"/>
<glyph glyph-name="Udieresis" horiz-adv-x="1230" unicode="" d="M1165 1217q14 0 24.5 -6t10.5 -21q0 -18 -7 -37.5t-17 -39.5t-20 -39t-17 -36q-59 -151 -87 -310.5t-28 -324.5q0 -95 9 -194t30 -196.5t54.5 -191t82.5 -177.5l-20 -6q-97 103 -164 227.5t-102 261.5q-27 -88 -64 -174t-90.5 -154.5t-125 -110.5t-167.5 -42 q-73 0 -129 29.5t-98 79t-70.5 113t-46.5 131.5t-25.5 135.5t-7.5 123.5q0 143 22 288t65.5 284.5t108.5 270t152 245.5l21 -11q-37 -66 -67.5 -144t-54.5 -162.5t-42 -173t-29.5 -176.5t-17.5 -172t-6 -159q0 -46 2.5 -107.5t11.5 -127.5t27 -130t49 -114.5t77 -81.5 t111 -31q64 0 115 22.5t90 61.5t67.5 90.5t47.5 109.5t30.5 119t16.5 119q-6 58 -6 117q0 82 8.5 175.5t26 187.5t44.5 183.5t64 164.5q12 22 25.5 42t30 35.5t37.5 24.5t48 9zM1024 1492q0 -37 -24.5 -60.5t-59.5 -23.5q-33 0 -57.5 23.5t-24.5 60.5q0 16 6.5 31t18 26.5 t26 18t31.5 6.5q18 0 33 -6.5t26.5 -18t18 -26.5t6.5 -31zM770 1492q0 -37 -24.5 -60.5t-59.5 -23.5q-33 0 -57.5 23.5t-24.5 60.5q0 16 6.5 31t18 26.5t26 18t31.5 6.5q18 0 33 -6.5t26.5 -18t18 -26.5t6.5 -31z"/>
<glyph glyph-name="Yacute" horiz-adv-x="985" unicode="" d="M1085 1262q0 -39 -12.5 -80.5t-28.5 -75.5q-42 -97 -95.5 -186.5t-114.5 -176.5q-16 -22 -42.5 -52.5t-57.5 -65.5t-63 -73t-60 -75.5t-48.5 -72t-27.5 -62.5q-7 -25 -7 -52v-50q0 -24 1.5 -68.5t4 -99t7.5 -113.5t11.5 -112t16 -94.5t21.5 -61.5l4 -8t2 -9 q0 -7 -4.5 -11t-10.5 -6t-12 -2.5t-10 -0.5q-22 0 -42.5 4t-39.5 10q-30 10 -47 30t-26 45.5t-11 54t-2 55.5q0 51 4 112t10.5 123.5t15.5 123.5t19 114q-8 18 -29.5 46.5t-48 59t-51.5 58.5t-39 45q-48 58 -96.5 125t-87.5 140.5t-63.5 151.5t-24.5 158q0 59 19.5 112 t62.5 91q9 8 23 19.5t29.5 22t31.5 18t29 7.5q20 0 20 -22v-7t-2 -8q-11 -48 -17 -95t-6 -97q0 -114 26 -212t69 -189t98 -178.5t113 -178.5q37 56 80 119t86 130t83.5 137.5t71.5 142t49.5 143t18.5 141.5q0 26 -3.5 50t-11.5 47v8q0 15 12.5 24t29 14t34 7t27.5 2 q25 0 45.5 -4.5t35.5 -15.5t23 -29.5t8 -46.5zM443 1445q31 36 59 72t53 74.5t46 81.5t38 94l128 -86q-62 -85 -138.5 -144.5t-174.5 -105.5z"/>
<glyph glyph-name="Thorn" horiz-adv-x="1180" unicode="" d="M511 1097q-51 0 -102 -15q-15 -63 -25 -129t-17 -141t-10 -161t-3 -190q0 -214 40 -413q26 -8 56 -12t67 -5q115 1 205 43t153 114t97 166t33 197q0 102 -34 200q-33 98 -97 175t-156 124t-207 47zM503 -324q0 -28 -31 -28q-20 0 -38 8t-33 16q-33 20 -59 58t-45 88 t-31 106q-12 57 -20 114q-30 12 -60 26t-53 32q-24 18 -39 38t-15 43q1 19 9 33t28 14q32 0 59 -24t60 -55q-3 42 -4 78t-1 63q0 132 8 242t23 204t36 173q21 80 47 154q-43 -19 -81 -47q-39 -28 -67 -64t-45 -76q-17 -42 -17 -89q0 -27 6 -49t14 -39t14 -33t7 -32 q1 -28 -19 -48t-48 -20q-26 0 -41 14t-23 35t-12 45q-2 24 -2 41q0 87 42 159t108 128q44 37 87 65t91 47q22 62 48 122t54 123l22 -8q-20 -59 -36 -112t-29 -106q32 8 65 12t70 4q130 -1 240 -37t190 -106t124 -172t44 -233q0 -135 -48 -245t-132 -188t-200 -120t-253 -42 q-28 0 -56 2t-56 8q33 -146 90 -289q3 -9 5 -17t3 -16z"/>
<glyph glyph-name="germandbls" horiz-adv-x="862" unicode="" d="M210 743q0 -164 2 -331v-70q0 -132 -6 -264q-8 -166 -30 -330t-71 -321h-25v1148q0 71 4 157t16 171q14 86 40 167q26 82 72 144t113 100q68 38 165 38q51 0 90 -18t65 -50t39 -74t13 -90q0 -65 -22 -112q-23 -48 -55 -84t-70 -64t-72 -52q-32 -26 -54 -52t-22 -57 q0 -41 31 -71t78 -56t101 -54t101 -68t78 -95t31 -134q0 -70 -24 -119t-62 -80q-38 -32 -84 -46t-88 -14q-46 0 -88 16t-76 41t-60 56t-42 62l21 16q24 -33 49 -59t52 -42q28 -18 58 -27t67 -9q33 0 61 12t48 32q20 22 32 52t11 69q0 61 -28 101t-70 68q-43 28 -91 52 q-48 22 -90 51t-70 70t-28 105q0 52 19 92t47 74t62 64t62 65t47 77t19 98q0 34 -8 70t-25 66t-45 48t-68 18q-57 0 -95 -31q-39 -31 -63 -80t-37 -111t-19 -124t-6 -117v-94z"/>
<glyph glyph-name="agrave" horiz-adv-x="735" unicode="" d="M522 524q0 -11 -8 -19.5t-19 -8.5q-9 0 -19 5.5t-22.5 12.5t-29 12.5t-37.5 5.5q-49 0 -87.5 -30.5t-65 -75.5t-40.5 -96t-14 -92q0 -29 5 -56.5t17.5 -50t34.5 -36t56 -13.5q36 0 69 13.5t62 35.5q1 32 10.5 67.5t24.5 70t34.5 65.5t40.5 55l13 -8q-11 -34 -16 -70 t-5 -71q0 -36 6 -68t21 -55.5t41 -37t67 -13.5q50 0 92 23t74 58l8 -4q-18 -35 -47 -67t-64.5 -57.5t-75.5 -40.5t-79 -15q-55 0 -90 31.5t-48 79.5q-42 -42 -93.5 -70.5t-108.5 -28.5q-42 0 -74.5 15.5t-54.5 41.5t-33.5 61.5t-11.5 74.5q0 45 14.5 92.5t40 93.5t60.5 87 t76.5 72t87.5 49t94 18q11 0 27 -2.5t31 -8.5t25.5 -17t10.5 -28zM525 648q-98 46 -174.5 105.5t-138.5 144.5l128 86q17 -51 38 -94t45.5 -81.5t53 -74.5t59.5 -72z"/>
<glyph glyph-name="aacute" horiz-adv-x="735" unicode="" d="M522 524q0 -11 -8 -19.5t-19 -8.5q-9 0 -19 5.5t-22.5 12.5t-29 12.5t-37.5 5.5q-49 0 -87.5 -30.5t-65 -75.5t-40.5 -96t-14 -92q0 -29 5 -56.5t17.5 -50t34.5 -36t56 -13.5q36 0 69 13.5t62 35.5q1 32 10.5 67.5t24.5 70t34.5 65.5t40.5 55l13 -8q-11 -34 -16 -70 t-5 -71q0 -36 6 -68t21 -55.5t41 -37t67 -13.5q50 0 92 23t74 58l8 -4q-18 -35 -47 -67t-64.5 -57.5t-75.5 -40.5t-79 -15q-55 0 -90 31.5t-48 79.5q-42 -42 -93.5 -70.5t-108.5 -28.5q-42 0 -74.5 15.5t-54.5 41.5t-33.5 61.5t-11.5 74.5q0 45 14.5 92.5t40 93.5t60.5 87 t76.5 72t87.5 49t94 18q11 0 27 -2.5t31 -8.5t25.5 -17t10.5 -28zM296 662q31 36 59 72t53 74.5t46 81.5t38 94l128 -86q-62 -85 -138.5 -144.5t-174.5 -105.5z"/>
<glyph glyph-name="acircumflex" horiz-adv-x="735" unicode="" d="M522 524q0 -11 -8 -19.5t-19 -8.5q-9 0 -19 5.5t-22.5 12.5t-29 12.5t-37.5 5.5q-49 0 -87.5 -30.5t-65 -75.5t-40.5 -96t-14 -92q0 -29 5 -56.5t17.5 -50t34.5 -36t56 -13.5q36 0 69 13.5t62 35.5q1 32 10.5 67.5t24.5 70t34.5 65.5t40.5 55l13 -8q-11 -34 -16 -70 t-5 -71q0 -36 6 -68t21 -55.5t41 -37t67 -13.5q50 0 92 23t74 58l8 -4q-18 -35 -47 -67t-64.5 -57.5t-75.5 -40.5t-79 -15q-55 0 -90 31.5t-48 79.5q-42 -42 -93.5 -70.5t-108.5 -28.5q-42 0 -74.5 15.5t-54.5 41.5t-33.5 61.5t-11.5 74.5q0 45 14.5 92.5t40 93.5t60.5 87 t76.5 72t87.5 49t94 18q11 0 27 -2.5t31 -8.5t25.5 -17t10.5 -28zM175 662q31 36 58 70.5t53 71t51.5 78t53.5 92.5h60q28 -51 53.5 -92.5t51.5 -78t53 -71t58 -70.5l-11 -14q-35 18 -63.5 36t-56 37.5t-55.5 41.5t-60 49q-32 -27 -60 -49t-55.5 -42t-56.5 -37.5t-63 -35.5z "/>
<glyph glyph-name="atilde" horiz-adv-x="735" unicode="" d="M522 524q0 -11 -8 -19.5t-19 -8.5q-9 0 -19 5.5t-22.5 12.5t-29 12.5t-37.5 5.5q-49 0 -87.5 -30.5t-65 -75.5t-40.5 -96t-14 -92q0 -29 5 -56.5t17.5 -50t34.5 -36t56 -13.5q36 0 69 13.5t62 35.5q1 32 10.5 67.5t24.5 70t34.5 65.5t40.5 55l13 -8q-11 -34 -16 -70 t-5 -71q0 -36 6 -68t21 -55.5t41 -37t67 -13.5q50 0 92 23t74 58l8 -4q-18 -35 -47 -67t-64.5 -57.5t-75.5 -40.5t-79 -15q-55 0 -90 31.5t-48 79.5q-42 -42 -93.5 -70.5t-108.5 -28.5q-42 0 -74.5 15.5t-54.5 41.5t-33.5 61.5t-11.5 74.5q0 45 14.5 92.5t40 93.5t60.5 87 t76.5 72t87.5 49t94 18q11 0 27 -2.5t31 -8.5t25.5 -17t10.5 -28zM209 716q3 47 18 85q6 16 15 31.5t22 27.5t30 19.5t39 7.5q25 0 49 -11t47.5 -23.5t47.5 -23.5t48 -11q25 0 39.5 8.5t22.5 19.5q9 12 12 28h34q-5 -47 -21 -83q-14 -32 -39.5 -57.5t-68.5 -25.5 q-24 0 -49.5 11t-50 23.5t-46.5 23.5t-40 11q-24 0 -39 -10t-23 -21q-10 -13 -13 -30h-34z"/>
<glyph glyph-name="adieresis" horiz-adv-x="735" unicode="" d="M522 524q0 -11 -8 -19.5t-19 -8.5q-9 0 -19 5.5t-22.5 12.5t-29 12.5t-37.5 5.5q-49 0 -87.5 -30.5t-65 -75.5t-40.5 -96t-14 -92q0 -29 5 -56.5t17.5 -50t34.5 -36t56 -13.5q36 0 69 13.5t62 35.5q1 32 10.5 67.5t24.5 70t34.5 65.5t40.5 55l13 -8q-11 -34 -16 -70 t-5 -71q0 -36 6 -68t21 -55.5t41 -37t67 -13.5q50 0 92 23t74 58l8 -4q-18 -35 -47 -67t-64.5 -57.5t-75.5 -40.5t-79 -15q-55 0 -90 31.5t-48 79.5q-42 -42 -93.5 -70.5t-108.5 -28.5q-42 0 -74.5 15.5t-54.5 41.5t-33.5 61.5t-11.5 74.5q0 45 14.5 92.5t40 93.5t60.5 87 t76.5 72t87.5 49t94 18q11 0 27 -2.5t31 -8.5t25.5 -17t10.5 -28zM631 802q0 -37 -24.5 -60.5t-59.5 -23.5q-33 0 -57.5 23.5t-24.5 60.5q0 16 6.5 31t18 26.5t26 18t31.5 6.5q18 0 33 -6.5t26.5 -18t18 -26.5t6.5 -31zM377 802q0 -37 -24.5 -60.5t-59.5 -23.5 q-33 0 -57.5 23.5t-24.5 60.5q0 16 6.5 31t18 26.5t26 18t31.5 6.5q18 0 33 -6.5t26.5 -18t18 -26.5t6.5 -31z"/>
<glyph glyph-name="aring" horiz-adv-x="735" unicode="" d="M522 524q0 -11 -8 -19.5t-19 -8.5q-9 0 -19 5.5t-22.5 12.5t-29 12.5t-37.5 5.5q-49 0 -87.5 -30.5t-65 -75.5t-40.5 -96t-14 -92q0 -29 5 -56.5t17.5 -50t34.5 -36t56 -13.5q36 0 69 13.5t62 35.5q1 32 10.5 67.5t24.5 70t34.5 65.5t40.5 55l13 -8q-11 -34 -16 -70 t-5 -71q0 -36 6 -68t21 -55.5t41 -37t67 -13.5q50 0 92 23t74 58l8 -4q-18 -35 -47 -67t-64.5 -57.5t-75.5 -40.5t-79 -15q-55 0 -90 31.5t-48 79.5q-42 -42 -93.5 -70.5t-108.5 -28.5q-42 0 -74.5 15.5t-54.5 41.5t-33.5 61.5t-11.5 74.5q0 45 14.5 92.5t40 93.5t60.5 87 t76.5 72t87.5 49t94 18q11 0 27 -2.5t31 -8.5t25.5 -17t10.5 -28zM348 802q0 -30 21.5 -51.5t51.5 -21.5t51.5 21.5t21.5 51.5t-21.5 51.5t-51.5 21.5t-51.5 -21.5t-21.5 -51.5zM267 802q0 32 12 60t33 49t49 33t60 12t60 -12t49 -33t33 -49t12 -60t-12 -60t-33 -49t-49 -33 t-60 -12t-60 12t-49 33t-33 49t-12 60z"/>
<glyph glyph-name="ae" horiz-adv-x="1003" unicode="" d="M620 266q36 0 74 12t68 34t51 55q20 33 20 75q1 41 -17 68t-61 27q-45 0 -75 -27q-30 -28 -49 -68t-27 -88t-9 -88h25zM1113 143q-27 -38 -63 -71t-80 -57t-90 -38q-48 -14 -96 -14q-53 1 -100 11q-46 10 -86 32t-70 53q-30 32 -47 75q-22 -31 -50 -60q-29 -29 -61 -51 t-68 -35t-73 -13q-43 -1 -75 15t-54 42t-34 62t-11 74q1 44 15 92t40 94t60 87t76 72t88 49t94 18q11 0 27 -2t31 -9q16 -6 26 -17t10 -28q0 -12 -8 -20t-19 -8q-9 0 -19 6t-22 12t-30 12q-16 6 -37 6q-49 0 -87 -30t-66 -76q-26 -45 -40 -96t-14 -92q0 -28 5 -56t17 -50 t35 -36q22 -14 56 -14q53 0 97 26t79 64q-9 37 -9 80q0 72 26 134t74 110q46 46 109 73t135 27q34 0 64 -10t51 -28q23 -18 35 -45t12 -62q0 -42 -17 -74t-45 -56t-64 -40t-74 -26q-38 -11 -76 -15t-68 -4h-24q13 -91 72 -139t163 -48q75 0 145 26t127 72z"/>
<glyph glyph-name="ccedilla" horiz-adv-x="582" unicode="" d="M269 -36q-51 7 -94 28q-43 20 -74 54t-49 79t-17 100q-1 70 25 137t72 119q46 51 108 83t135 32q24 0 48 -5t44 -17q21 -12 33 -30q12 -19 12 -48q0 -28 -15 -50t-38 -36t-49 -22t-51 -13v14q15 4 31 11t30 18t24 26t9 33q-1 13 -7 23t-16 16t-21 9q-12 3 -24 3 q-51 0 -91 -22t-69 -60q-29 -37 -43 -83t-14 -93q0 -54 16 -96t47 -73q30 -30 73 -46t96 -16q34 -1 72 7t76 22q36 14 69 34t57 45l8 -4q-26 -43 -68 -77t-90 -56q-50 -24 -104 -36t-102 -13h-15l-11 -46q18 3 37 3q26 0 49 -7t40 -21t27 -34t10 -47q1 -31 -13 -54t-36 -39 t-48 -22q-26 -8 -53 -8q-30 0 -57 8q-26 8 -50 22q-24 12 -42 28t-30 30l13 15q36 -26 66 -35t67 -9q38 -1 62 15t24 47q0 27 -22 40t-49 13q-13 0 -25 -2t-18 -4z"/>
<glyph glyph-name="egrave" horiz-adv-x="588" unicode="" d="M170 266h25q36 0 74 11.5t68.5 34t50.5 55.5t20 75q0 41 -17.5 68t-60.5 27q-44 0 -74.5 -26.5t-49.5 -65t-27.5 -81t-8.5 -75.5v-23zM688 143q-26 -38 -62.5 -71t-80 -57t-91 -38t-95.5 -14q-68 0 -127 17.5t-103 53.5t-69 90.5t-25 127.5q0 72 26.5 134.5t73 109 t109.5 73.5t135 27q34 0 63.5 -9.5t51.5 -28t34.5 -45.5t12.5 -62q0 -42 -17 -74t-45 -56t-63.5 -40t-74 -26t-76 -14.5t-68.5 -4.5h-24q13 -91 72 -139t163 -48q74 0 144.5 26t127.5 72zM478 666q-98 46 -174.5 105.5t-138.5 144.5l128 86q17 -51 38 -94t45.5 -81.5 t53 -74.5t59.5 -72z"/>
<glyph glyph-name="eacute" horiz-adv-x="588" unicode="" d="M170 266h25q36 0 74 11.5t68.5 34t50.5 55.5t20 75q0 41 -17.5 68t-60.5 27q-44 0 -74.5 -26.5t-49.5 -65t-27.5 -81t-8.5 -75.5v-23zM688 143q-26 -38 -62.5 -71t-80 -57t-91 -38t-95.5 -14q-68 0 -127 17.5t-103 53.5t-69 90.5t-25 127.5q0 72 26.5 134.5t73 109 t109.5 73.5t135 27q34 0 63.5 -9.5t51.5 -28t34.5 -45.5t12.5 -62q0 -42 -17 -74t-45 -56t-63.5 -40t-74 -26t-76 -14.5t-68.5 -4.5h-24q13 -91 72 -139t163 -48q74 0 144.5 26t127.5 72zM249 680q31 36 59 72t53 74.5t46 81.5t38 94l128 -86q-62 -85 -138.5 -144.5 t-174.5 -105.5z"/>
<glyph glyph-name="ecircumflex" horiz-adv-x="588" unicode="" d="M170 266h25q36 0 74 11.5t68.5 34t50.5 55.5t20 75q0 41 -17.5 68t-60.5 27q-44 0 -74.5 -26.5t-49.5 -65t-27.5 -81t-8.5 -75.5v-23zM688 143q-26 -38 -62.5 -71t-80 -57t-91 -38t-95.5 -14q-68 0 -127 17.5t-103 53.5t-69 90.5t-25 127.5q0 72 26.5 134.5t73 109 t109.5 73.5t135 27q34 0 63.5 -9.5t51.5 -28t34.5 -45.5t12.5 -62q0 -42 -17 -74t-45 -56t-63.5 -40t-74 -26t-76 -14.5t-68.5 -4.5h-24q13 -91 72 -139t163 -48q74 0 144.5 26t127.5 72zM128 680q31 36 58 70.5t53 71t51.5 78t53.5 92.5h60q28 -51 53.5 -92.5t51.5 -78 t53 -71t58 -70.5l-11 -14q-35 18 -63.5 36t-56 37.5t-55.5 41.5t-60 49q-32 -27 -60 -49t-55.5 -42t-56.5 -37.5t-63 -35.5z"/>
<glyph glyph-name="edieresis" horiz-adv-x="588" unicode="" d="M170 266h25q36 0 74 11.5t68.5 34t50.5 55.5t20 75q0 41 -17.5 68t-60.5 27q-44 0 -74.5 -26.5t-49.5 -65t-27.5 -81t-8.5 -75.5v-23zM688 143q-26 -38 -62.5 -71t-80 -57t-91 -38t-95.5 -14q-68 0 -127 17.5t-103 53.5t-69 90.5t-25 127.5q0 72 26.5 134.5t73 109 t109.5 73.5t135 27q34 0 63.5 -9.5t51.5 -28t34.5 -45.5t12.5 -62q0 -42 -17 -74t-45 -56t-63.5 -40t-74 -26t-76 -14.5t-68.5 -4.5h-24q13 -91 72 -139t163 -48q74 0 144.5 26t127.5 72zM584 820q0 -37 -24.5 -60.5t-59.5 -23.5q-33 0 -57.5 23.5t-24.5 60.5q0 16 6.5 31 t18 26.5t26 18t31.5 6.5q18 0 33 -6.5t26.5 -18t18 -26.5t6.5 -31zM330 820q0 -37 -24.5 -60.5t-59.5 -23.5q-33 0 -57.5 23.5t-24.5 60.5q0 16 6.5 31t18 26.5t26 18t31.5 6.5q18 0 33 -6.5t26.5 -18t18 -26.5t6.5 -31z"/>
<glyph glyph-name="igrave" horiz-adv-x="464" unicode="" d="M564 143q-23 -38 -54.5 -69.5t-69 -55t-80 -36.5t-87.5 -13q-56 0 -99.5 19t-73 52.5t-45 79t-15.5 99.5q0 58 17 110t47 97.5t70.5 83.5t86.5 68l12 -9q-49 -58 -79.5 -130t-30.5 -150q0 -45 10.5 -86.5t33 -73.5t57.5 -51t85 -19q59 0 112.5 25t96.5 63zM401 648 q-98 46 -174.5 105.5t-138.5 144.5l128 86q17 -51 38 -94t45.5 -81.5t53 -74.5t59.5 -72z"/>
<glyph glyph-name="iacute" horiz-adv-x="464" unicode="" d="M564 143q-23 -38 -54.5 -69.5t-69 -55t-80 -36.5t-87.5 -13q-56 0 -99.5 19t-73 52.5t-45 79t-15.5 99.5q0 58 17 110t47 97.5t70.5 83.5t86.5 68l12 -9q-49 -58 -79.5 -130t-30.5 -150q0 -45 10.5 -86.5t33 -73.5t57.5 -51t85 -19q59 0 112.5 25t96.5 63zM171 662 q31 36 59 72t53 74.5t46 81.5t38 94l128 -86q-62 -85 -138.5 -144.5t-174.5 -105.5z"/>
<glyph glyph-name="icircumflex" horiz-adv-x="464" unicode="" d="M564 143q-23 -38 -54.5 -69.5t-69 -55t-80 -36.5t-87.5 -13q-56 0 -99.5 19t-73 52.5t-45 79t-15.5 99.5q0 58 17 110t47 97.5t70.5 83.5t86.5 68l12 -9q-49 -58 -79.5 -130t-30.5 -150q0 -45 10.5 -86.5t33 -73.5t57.5 -51t85 -19q59 0 112.5 25t96.5 63zM50 662 q31 36 58 70.5t53 71t51.5 78t53.5 92.5h60q28 -51 53.5 -92.5t51.5 -78t53 -71t58 -70.5l-11 -14q-35 18 -63.5 36t-56 37.5t-55.5 41.5t-60 49q-32 -27 -60 -49t-55.5 -42t-56.5 -37.5t-63 -35.5z"/>
<glyph glyph-name="idieresis" horiz-adv-x="464" unicode="" d="M564 143q-23 -38 -54.5 -69.5t-69 -55t-80 -36.5t-87.5 -13q-56 0 -99.5 19t-73 52.5t-45 79t-15.5 99.5q0 58 17 110t47 97.5t70.5 83.5t86.5 68l12 -9q-49 -58 -79.5 -130t-30.5 -150q0 -45 10.5 -86.5t33 -73.5t57.5 -51t85 -19q59 0 112.5 25t96.5 63zM506 802 q0 -37 -24.5 -60.5t-59.5 -23.5q-33 0 -57.5 23.5t-24.5 60.5q0 16 6.5 31t18 26.5t26 18t31.5 6.5q18 0 33 -6.5t26.5 -18t18 -26.5t6.5 -31zM252 802q0 -37 -24.5 -60.5t-59.5 -23.5q-33 0 -57.5 23.5t-24.5 60.5q0 16 6.5 31t18 26.5t26 18t31.5 6.5q18 0 33 -6.5 t26.5 -18t18 -26.5t6.5 -31z"/>
<glyph glyph-name="eth" horiz-adv-x="672" unicode="" d="M630 1131q-32 -11 -88 -39t-118 -67q43 -65 80 -141q36 -76 64 -154q28 -80 44 -162t15 -160q0 -104 -23 -186t-65 -138q-43 -57 -101 -87t-129 -30q-63 -1 -113 19t-87 54q-36 34 -55 82t-19 104q0 66 22 124q23 58 65 104t105 79q63 32 144 45l5 -18q-64 -19 -106 -55 q-42 -37 -65 -79t-33 -85t-10 -76q0 -52 14 -92q14 -39 38 -67t54 -42q32 -14 67 -14q50 0 84 21q35 21 55 61t28 95q8 56 9 126q-1 52 -9 129t-26 164q-18 86 -46 176t-64 166q-49 -32 -93 -64t-75 -60q-14 -10 -28 -10q-20 0 -34 18t-14 37q0 21 14 39t36 31q20 14 42 25 l38 19q14 7 34 15t43 19q-41 67 -93 108t-115 41q-35 0 -57 -20t-23 -56q0 -13 3 -26l-19 -20q-7 16 -11 36t-4 39q0 25 5 47t16 40t27 29t39 11q33 0 69 -15t73 -42t74 -65t72 -85q33 13 68 25t67 22t62 16q28 6 48 7v-18z"/>
<glyph glyph-name="ntilde" horiz-adv-x="815" unicode="" d="M915 143q-19 -36 -40.5 -69t-48.5 -58t-61 -40t-78 -15q-50 0 -86 24.5t-61.5 65t-41 92.5t-25.5 106t-15 106.5l-9 94.5q-19 -15 -46 -57.5t-55 -99.5t-53.5 -124t-41.5 -132q-3 -14 -9.5 -29t-16 -27.5t-22.5 -21t-29 -8.5q-26 0 -37.5 18t-16.5 41q-29 127 -40.5 243 t-11.5 232q0 28 9.5 48.5t25.5 34t38 20t46 6.5h9.5t12.5 -1.5t10 -4.5t3 -8q-25 -126 -25 -256v-10q1 -136 14 -261q11 50 32.5 113.5t50 128t62 123t68.5 98.5q17 19 34.5 32.5t43.5 13.5q15 0 25 -6t16.5 -15t10 -20.5t5.5 -22.5q5 -29 10 -75t12.5 -98t18.5 -104.5 t28 -95t41 -69.5t57 -27q27 0 52.5 10.5t48.5 27t43 38t36 42.5zM135 716q3 47 18 85q6 16 15 31.5t22 27.5t30 19.5t39 7.5q25 0 49 -11t47.5 -23.5t47.5 -23.5t48 -11q25 0 39.5 8.5t22.5 19.5q9 12 12 28h34q-5 -47 -21 -83q-14 -32 -39.5 -57.5t-68.5 -25.5 q-24 0 -49.5 11t-50 23.5t-46.5 23.5t-40 11q-24 0 -39 -10t-23 -21q-10 -13 -13 -30h-34z"/>
<glyph glyph-name="ograve" horiz-adv-x="662" unicode="" d="M627 295q0 -70 -23 -130t-65 -104t-100.5 -69t-129.5 -25q-63 0 -113.5 23.5t-86.5 63.5t-55 93.5t-19 114.5q0 51 14.5 97t40.5 85.5t62 73t78 60.5l12 -9q-42 -49 -66 -108t-24 -125q0 -48 14.5 -97.5t42.5 -90.5t70 -67t96 -26q34 0 64 14t52.5 38t36 54.5t13.5 63.5 q0 32 -9.5 62.5t-26.5 57t-41 48t-52 35.5q-16 8 -30.5 12t-31.5 9q-7 1 -15 3.5t-15 6t-12 9.5t-5 15q0 18 13 33t31 26.5t38 18t35 6.5q51 0 90 -26t65 -66t39 -88t13 -92zM435 649q-98 46 -174.5 105.5t-138.5 144.5l128 86q17 -51 38 -94t45.5 -81.5t53 -74.5t59.5 -72z "/>
<glyph glyph-name="oacute" horiz-adv-x="662" unicode="" d="M627 295q0 -70 -23 -130t-65 -104t-100.5 -69t-129.5 -25q-63 0 -113.5 23.5t-86.5 63.5t-55 93.5t-19 114.5q0 51 14.5 97t40.5 85.5t62 73t78 60.5l12 -9q-42 -49 -66 -108t-24 -125q0 -48 14.5 -97.5t42.5 -90.5t70 -67t96 -26q34 0 64 14t52.5 38t36 54.5t13.5 63.5 q0 32 -9.5 62.5t-26.5 57t-41 48t-52 35.5q-16 8 -30.5 12t-31.5 9q-7 1 -15 3.5t-15 6t-12 9.5t-5 15q0 18 13 33t31 26.5t38 18t35 6.5q51 0 90 -26t65 -66t39 -88t13 -92zM206 663q31 36 59 72t53 74.5t46 81.5t38 94l128 -86q-62 -85 -138.5 -144.5t-174.5 -105.5z"/>
<glyph glyph-name="ocircumflex" horiz-adv-x="662" unicode="" d="M627 295q0 -70 -23 -130t-65 -104t-100.5 -69t-129.5 -25q-63 0 -113.5 23.5t-86.5 63.5t-55 93.5t-19 114.5q0 51 14.5 97t40.5 85.5t62 73t78 60.5l12 -9q-42 -49 -66 -108t-24 -125q0 -48 14.5 -97.5t42.5 -90.5t70 -67t96 -26q34 0 64 14t52.5 38t36 54.5t13.5 63.5 q0 32 -9.5 62.5t-26.5 57t-41 48t-52 35.5q-16 8 -30.5 12t-31.5 9q-7 1 -15 3.5t-15 6t-12 9.5t-5 15q0 18 13 33t31 26.5t38 18t35 6.5q51 0 90 -26t65 -66t39 -88t13 -92zM85 663q31 36 58 70.5t53 71t51.5 78t53.5 92.5h60q28 -51 53.5 -92.5t51.5 -78t53 -71t58 -70.5 l-11 -14q-35 18 -63.5 36t-56 37.5t-55.5 41.5t-60 49q-32 -27 -60 -49t-55.5 -42t-56.5 -37.5t-63 -35.5z"/>
<glyph glyph-name="otilde" horiz-adv-x="662" unicode="" d="M627 295q0 -70 -23 -130t-65 -104t-100.5 -69t-129.5 -25q-63 0 -113.5 23.5t-86.5 63.5t-55 93.5t-19 114.5q0 51 14.5 97t40.5 85.5t62 73t78 60.5l12 -9q-42 -49 -66 -108t-24 -125q0 -48 14.5 -97.5t42.5 -90.5t70 -67t96 -26q34 0 64 14t52.5 38t36 54.5t13.5 63.5 q0 32 -9.5 62.5t-26.5 57t-41 48t-52 35.5q-16 8 -30.5 12t-31.5 9q-7 1 -15 3.5t-15 6t-12 9.5t-5 15q0 18 13 33t31 26.5t38 18t35 6.5q51 0 90 -26t65 -66t39 -88t13 -92zM119 717q3 47 18 85q6 16 15 31.5t22 27.5t30 19.5t39 7.5q25 0 49 -11t47.5 -23.5t47.5 -23.5 t48 -11q25 0 39.5 8.5t22.5 19.5q9 12 12 28h34q-5 -47 -21 -83q-14 -32 -39.5 -57.5t-68.5 -25.5q-24 0 -49.5 11t-50 23.5t-46.5 23.5t-40 11q-24 0 -39 -10t-23 -21q-10 -13 -13 -30h-34z"/>
<glyph glyph-name="odieresis" horiz-adv-x="662" unicode="" d="M627 295q0 -70 -23 -130t-65 -104t-100.5 -69t-129.5 -25q-63 0 -113.5 23.5t-86.5 63.5t-55 93.5t-19 114.5q0 51 14.5 97t40.5 85.5t62 73t78 60.5l12 -9q-42 -49 -66 -108t-24 -125q0 -48 14.5 -97.5t42.5 -90.5t70 -67t96 -26q34 0 64 14t52.5 38t36 54.5t13.5 63.5 q0 32 -9.5 62.5t-26.5 57t-41 48t-52 35.5q-16 8 -30.5 12t-31.5 9q-7 1 -15 3.5t-15 6t-12 9.5t-5 15q0 18 13 33t31 26.5t38 18t35 6.5q51 0 90 -26t65 -66t39 -88t13 -92zM541 803q0 -37 -24.5 -60.5t-59.5 -23.5q-33 0 -57.5 23.5t-24.5 60.5q0 16 6.5 31t18 26.5t26 18 t31.5 6.5q18 0 33 -6.5t26.5 -18t18 -26.5t6.5 -31zM287 803q0 -37 -24.5 -60.5t-59.5 -23.5q-33 0 -57.5 23.5t-24.5 60.5q0 16 6.5 31t18 26.5t26 18t31.5 6.5q18 0 33 -6.5t26.5 -18t18 -26.5t6.5 -31z"/>
<glyph glyph-name="divide" d="M229 385q0 19 7 36q8 17 20 29t29 20q17 7 36 7t36 -7q17 -8 29 -20t20 -29q7 -17 7 -36t-7 -36q-8 -17 -20 -29t-29 -20q-17 -7 -36 -7t-36 7q-17 8 -29 20t-20 29q-7 17 -7 36zM229 762q0 19 7 36q8 18 20 30t29 19t36 7t36 -7t29 -19t20 -30q7 -17 7 -36t-7 -36 q-8 -18 -20 -30t-29 -19t-36 -7t-36 7t-29 19t-20 30q-7 17 -7 36zM603 596q-40 -22 -99 -38t-123 -24q-63 -10 -125 -14t-107 -4q-21 0 -41 1t-34 7q-16 6 -25 20t-9 40q0 31 20 46q16 12 39 12q6 0 13 -1q139 -17 256 -23q89 -5 177 -4h54z" unicode=""/>
<glyph glyph-name="oslash" horiz-adv-x="662" unicode="" d="M375 55q34 0 64 14q31 14 53 38q22 25 36 55t13 63q1 56 -27 105t-73 81l-172 -324q23 -15 49 -23t57 -9zM627 295q0 -70 -23 -130t-65 -104q-43 -44 -101 -69t-129 -25q-50 0 -96 16l-79 -149l-23 14l70 150q-69 36 -107 106t-39 158q1 51 15 97q14 45 40 85t62 74 t78 60l12 -9q-42 -49 -66 -108t-24 -125q0 -59 21 -119t63 -102l151 323q-9 4 -18 6t-19 5q-7 1 -15 3t-15 6t-12 10t-5 15q0 18 13 33q13 14 31 26t38 18t35 7q8 -1 14 -1t12 -1l68 144l63 -42l-67 -126q29 -19 51 -47q23 -28 37 -62t22 -68q8 -36 7 -69z"/>
<glyph glyph-name="ugrave" horiz-adv-x="742" unicode="" d="M852 143q-17 -35 -46 -67t-65 -57.5t-76 -40.5t-79 -15q-54 0 -89.5 32.5t-52.5 78.5q-39 -39 -86 -64.5t-104 -25.5q-51 0 -90.5 18.5t-65.5 50.5t-39.5 74t-13.5 90q0 54 15 105.5t42 98t64 86.5t80 71l12 -9q-42 -60 -67 -132.5t-25 -147.5q0 -32 7 -68t23 -67 t42.5 -51.5t66.5 -20.5q34 0 65 11.5t60 31.5q-2 12 -3 23.5t-1 23.5q0 48 14 104t37 111.5t52.5 106t60.5 86.5l12 -9q-23 -77 -38 -159t-15 -162q0 -36 4.5 -69.5t19 -60t40.5 -42t69 -15.5q48 0 90 24.5t74 59.5zM551 648q-98 46 -174.5 105.5t-138.5 144.5l128 86 q17 -51 38 -94t45.5 -81.5t53 -74.5t59.5 -72z"/>
<glyph glyph-name="uacute" horiz-adv-x="742" unicode="" d="M852 143q-17 -35 -46 -67t-65 -57.5t-76 -40.5t-79 -15q-54 0 -89.5 32.5t-52.5 78.5q-39 -39 -86 -64.5t-104 -25.5q-51 0 -90.5 18.5t-65.5 50.5t-39.5 74t-13.5 90q0 54 15 105.5t42 98t64 86.5t80 71l12 -9q-42 -60 -67 -132.5t-25 -147.5q0 -32 7 -68t23 -67 t42.5 -51.5t66.5 -20.5q34 0 65 11.5t60 31.5q-2 12 -3 23.5t-1 23.5q0 48 14 104t37 111.5t52.5 106t60.5 86.5l12 -9q-23 -77 -38 -159t-15 -162q0 -36 4.5 -69.5t19 -60t40.5 -42t69 -15.5q48 0 90 24.5t74 59.5zM322 662q31 36 59 72t53 74.5t46 81.5t38 94l128 -86 q-62 -85 -138.5 -144.5t-174.5 -105.5z"/>
<glyph glyph-name="ucircumflex" horiz-adv-x="742" unicode="" d="M852 143q-17 -35 -46 -67t-65 -57.5t-76 -40.5t-79 -15q-54 0 -89.5 32.5t-52.5 78.5q-39 -39 -86 -64.5t-104 -25.5q-51 0 -90.5 18.5t-65.5 50.5t-39.5 74t-13.5 90q0 54 15 105.5t42 98t64 86.5t80 71l12 -9q-42 -60 -67 -132.5t-25 -147.5q0 -32 7 -68t23 -67 t42.5 -51.5t66.5 -20.5q34 0 65 11.5t60 31.5q-2 12 -3 23.5t-1 23.5q0 48 14 104t37 111.5t52.5 106t60.5 86.5l12 -9q-23 -77 -38 -159t-15 -162q0 -36 4.5 -69.5t19 -60t40.5 -42t69 -15.5q48 0 90 24.5t74 59.5zM201 662q31 36 58 70.5t53 71t51.5 78t53.5 92.5h60 q28 -51 53.5 -92.5t51.5 -78t53 -71t58 -70.5l-11 -14q-35 18 -63.5 36t-56 37.5t-55.5 41.5t-60 49q-32 -27 -60 -49t-55.5 -42t-56.5 -37.5t-63 -35.5z"/>
<glyph glyph-name="udieresis" horiz-adv-x="742" unicode="" d="M852 143q-17 -35 -46 -67t-65 -57.5t-76 -40.5t-79 -15q-54 0 -89.5 32.5t-52.5 78.5q-39 -39 -86 -64.5t-104 -25.5q-51 0 -90.5 18.5t-65.5 50.5t-39.5 74t-13.5 90q0 54 15 105.5t42 98t64 86.5t80 71l12 -9q-42 -60 -67 -132.5t-25 -147.5q0 -32 7 -68t23 -67 t42.5 -51.5t66.5 -20.5q34 0 65 11.5t60 31.5q-2 12 -3 23.5t-1 23.5q0 48 14 104t37 111.5t52.5 106t60.5 86.5l12 -9q-23 -77 -38 -159t-15 -162q0 -36 4.5 -69.5t19 -60t40.5 -42t69 -15.5q48 0 90 24.5t74 59.5zM657 802q0 -37 -24.5 -60.5t-59.5 -23.5 q-33 0 -57.5 23.5t-24.5 60.5q0 16 6.5 31t18 26.5t26 18t31.5 6.5q18 0 33 -6.5t26.5 -18t18 -26.5t6.5 -31zM403 802q0 -37 -24.5 -60.5t-59.5 -23.5q-33 0 -57.5 23.5t-24.5 60.5q0 16 6.5 31t18 26.5t26 18t31.5 6.5q18 0 33 -6.5t26.5 -18t18 -26.5t6.5 -31z"/>
<glyph glyph-name="yacute" horiz-adv-x="682" unicode="" d="M679 -303q0 -57 -11 -114t-32.5 -110.5t-53.5 -100t-73 -80.5t-91.5 -54t-109.5 -20q-55 0 -104 22t-85.5 59t-57.5 86.5t-21 104.5q0 60 24.5 115t64.5 101t90.5 81t103.5 55l6 -12q-97 -53 -150 -143t-53 -201q0 -45 12.5 -86.5t37.5 -73.5t62.5 -51.5t86.5 -19.5 q68 0 113 37t72 92.5t38.5 120.5t11.5 122q0 61 -9.5 120t-23 118t-27.5 118t-23 119q-21 -25 -45 -47.5t-51.5 -39t-58.5 -26t-65 -9.5q-51 0 -89.5 18.5t-64.5 50.5t-39.5 74t-13.5 90q0 54 15 106t42 98t64 86t80 70l12 -6q-43 -62 -67.5 -133.5t-24.5 -146.5 q0 -32 7 -69t22.5 -68t42 -51.5t65.5 -20.5q47 0 88 20.5t75 52.5q-3 37 -3 74q0 51 7 106t25.5 105.5t50.5 92t83 67.5l8 -4q-24 -25 -40 -55.5t-25.5 -63.5t-13 -67.5t-3.5 -67.5q0 -92 18.5 -171t41 -155t41 -152.5t18.5 -162.5zM310 662q31 36 59 72t53 74.5t46 81.5 t38 94l128 -86q-62 -85 -138.5 -144.5t-174.5 -105.5z"/>
<glyph glyph-name="thorn" horiz-adv-x="727" unicode="" d="M225 -72q0 -146 -8 -262t-22 -210t-33 -166t-41 -130h-25v478q0 110 -3 224t-7 230t-7 232q-3 115 -3 224q0 66 4 140t16 148q10 74 28 148t46 140t64 124q38 58 89 99q23 19 53 33t58 14q12 0 28 -6t15 -20q0 -8 -8 -19q-71 -99 -123 -193t-86 -193t-49 -207 q-16 -108 -16 -231q0 -70 4 -137t8 -130q9 68 33 129t60 107t84 72t106 26q50 0 88 -20t62 -53q26 -33 39 -76t13 -89q0 -56 -22 -116t-59 -111q-39 -51 -91 -83t-114 -32q-22 0 -44 8t-42 22q-18 14 -30 34t-11 45q0 13 10 21t22 8q15 0 25 -15t24 -33q12 -18 30 -32 q18 -15 46 -15q36 1 64 25t47 59t29 75t10 69q0 38 -10 75q-10 38 -30 66t-52 46t-74 17q-48 0 -82 -33q-34 -32 -56 -84t-32 -116q-12 -64 -18 -126t-6 -116q-1 -53 -1 -84z"/>
<glyph glyph-name="dotlessi" horiz-adv-x="464" unicode="" d="M564 143q-23 -38 -54.5 -69.5t-69 -55t-80 -36.5t-87.5 -13q-56 0 -99.5 19t-73 52.5t-45 79t-15.5 99.5q0 58 17 110t47 97.5t70.5 83.5t86.5 68l12 -9q-49 -58 -79.5 -130t-30.5 -150q0 -45 10.5 -86.5t33 -73.5t57.5 -51t85 -19q59 0 112.5 25t96.5 63z"/>
<glyph glyph-name="OE" horiz-adv-x="2053" unicode="" d="M2103 1120q1 -72 -23 -128t-64 -101q-40 -44 -94 -76t-113 -54q-59 -23 -123 -35t-124 -17v18q66 23 136 61t128 90t96 116q38 66 37 145q0 86 -47 137t-135 51q-69 1 -137 -21t-130 -60t-116 -91q-54 -51 -92 -113q-40 -62 -62 -130t-22 -136q0 -75 31 -138t81 -112 q50 -48 114 -82t130 -51v-18q-32 -13 -68 -35t-72 -51t-70 -65t-60 -76t-42 -84t-15 -88q-1 -116 57 -176t174 -60q64 0 124 18t112 50t94 78q43 46 75 102l13 -6q-27 -72 -78 -137t-118 -114q-66 -49 -146 -77t-164 -29q-65 0 -120 19t-95 56q-40 38 -63 92t-23 126 q0 144 85 252t253 180q-89 0 -159 29t-120 83q-3 -82 -19 -175q-15 -93 -47 -184t-78 -175t-108 -148t-142 -102t-177 -38q-99 0 -177 38t-136 100t-98 144t-64 171t-36 179q-11 90 -11 170q0 86 8 176q7 90 27 180t52 174q32 86 80 160t112 136q64 60 149 100l8 -14 q-59 -49 -105 -113q-46 -63 -80 -137t-56 -154t-36 -162t-20 -162t-6 -155q0 -69 10 -152t31 -168q22 -85 58 -165t88 -142t122 -100t160 -37q73 -1 129 35t98 94t71 132t47 150t26 148t8 125q0 41 -4 99t-16 123q-10 65 -26 134t-40 135t-56 123q-32 58 -72 102 q-41 43 -91 69t-111 26q-54 0 -92 -26t-62 -65q-24 -41 -34 -89t-10 -94v-14t2 -13l-15 -2q-3 23 -5 45t-3 45q1 63 17 121t49 103t83 73t119 27q85 1 153 -33t118 -90q51 -56 88 -130t61 -154q26 64 68 124t96 113t117 97q64 44 132 74t140 48t143 18q64 0 122 -14 q57 -14 101 -44t70 -80t25 -122z"/>
<glyph glyph-name="oe" horiz-adv-x="1115" unicode="" d="M702 266q36 0 74 12t68 34t51 55q20 33 20 75q1 41 -17 68t-61 27q-45 0 -75 -27q-30 -28 -49 -68t-27 -88t-9 -88h25zM1195 143q-27 -38 -63 -71t-80 -57t-90 -38q-48 -14 -96 -14q-97 -1 -174 35t-117 110q-41 -65 -109 -103t-157 -38q-63 -1 -113 23t-87 64 q-36 40 -55 94t-19 114q1 51 15 97q14 45 40 85t62 74t78 60l12 -9q-42 -49 -66 -108t-24 -125q0 -48 14 -98t43 -90q28 -41 70 -67t96 -26q34 0 64 14q31 14 53 38q22 25 36 55t13 63q1 33 -9 63t-27 56t-41 48t-52 36q-16 8 -30 12t-32 9q-7 2 -15 4t-15 6q-7 3 -12 9 t-5 15q0 18 13 33q13 14 31 26t38 18t35 7q62 0 106 -38t69 -92q46 71 122 115t169 44q34 0 64 -10t51 -28q23 -18 35 -45t12 -62q0 -42 -17 -74t-45 -56t-64 -40t-74 -26q-38 -11 -76 -15t-68 -4h-24q13 -91 72 -139t163 -48q75 0 145 26t127 72z"/>
<glyph glyph-name="Scaron" horiz-adv-x="1124" unicode="" d="M1154 1098q0 -82 -40.5 -153t-105 -123t-143.5 -82q-74 -28 -146 -27h-10h-16v18q66 14 124.5 48.5t102 84.5t69 112t25.5 130q0 45 -11 85t-34 69t-58.5 46t-84.5 17q-70 0 -142 -21t-139 -59t-125.5 -90t-102 -114t-68.5 -132t-25 -143q0 -78 22.5 -134.5t61 -99 t89.5 -72.5t109 -54.5t118.5 -45.5t118.5 -45t109 -53.5t89.5 -70t61 -96t22.5 -130.5q0 -82 -33.5 -146t-88.5 -107.5t-126 -66t-146 -22.5q-81 0 -150 27.5t-124 74t-96 107t-66 125.5l15 8q30 -53 69 -104.5t88 -92t108.5 -65.5t129.5 -25q57 0 106 16t85 46t56.5 74 t20.5 100q0 82 -35 135t-92 90t-130 63t-149.5 52.5t-149.5 60t-130 84.5t-92 126.5t-35 185.5q0 100 31 188.5t85.5 162.5t128.5 132.5t159.5 99.5t178.5 62.5t187 21.5q67 0 126.5 -16t103 -49.5t69 -86.5t25.5 -126zM525 1762q34 -18 63 -35.5t56.5 -37.5t55.5 -42 t60 -49q32 27 60 49t55.5 41.5t56 37.5t63.5 36l11 -14q-31 -36 -58 -70.5t-53 -71.5t-51.5 -78t-53.5 -92h-60q-28 51 -53.5 92t-51.5 78t-53 71.5t-58 70.5z"/>
<glyph glyph-name="scaron" horiz-adv-x="660" unicode="" d="M610 215q0 -52 -19 -98t-53 -80t-79.5 -54t-98.5 -20q-35 0 -69 11t-62.5 31.5t-49.5 49.5t-30 64l23 6q26 -32 60.5 -53t78.5 -21q37 0 68.5 16t54 42t35 60.5t12.5 70.5q0 43 -12 71.5t-31.5 48t-43.5 34t-48.5 29.5t-47 34t-38.5 49q-1 -59 -20 -124t-51.5 -126 t-74.5 -114t-89 -89l-8 14q32 34 56 85t39.5 107.5t23 113.5t7.5 104q0 25 -5 49t-5 47q0 28 16.5 43t42.5 15q20 0 32 -9t22 -23.5t20 -33t25.5 -38t39 -38t60.5 -32.5q43 -16 82.5 -36.5t70 -48.5t48.5 -66.5t18 -90.5zM68 1017q34 -18 63 -35.5t56.5 -37.5t55.5 -42 t60 -49q32 27 60 49t55.5 41.5t56 37.5t63.5 36l11 -14q-31 -36 -58 -70.5t-53 -71.5t-51.5 -78t-53.5 -92h-60q-28 51 -53.5 92t-51.5 78t-53 71.5t-58 70.5z"/>
<glyph glyph-name="Ydieresis" horiz-adv-x="985" unicode="" d="M1085 1262q0 -39 -12.5 -80.5t-28.5 -75.5q-42 -97 -95.5 -186.5t-114.5 -176.5q-16 -22 -42.5 -52.5t-57.5 -65.5t-63 -73t-60 -75.5t-48.5 -72t-27.5 -62.5q-7 -25 -7 -52v-50q0 -24 1.5 -68.5t4 -99t7.5 -113.5t11.5 -112t16 -94.5t21.5 -61.5l4 -8t2 -9 q0 -7 -4.5 -11t-10.5 -6t-12 -2.5t-10 -0.5q-22 0 -42.5 4t-39.5 10q-30 10 -47 30t-26 45.5t-11 54t-2 55.5q0 51 4 112t10.5 123.5t15.5 123.5t19 114q-8 18 -29.5 46.5t-48 59t-51.5 58.5t-39 45q-48 58 -96.5 125t-87.5 140.5t-63.5 151.5t-24.5 158q0 59 19.5 112 t62.5 91q9 8 23 19.5t29.5 22t31.5 18t29 7.5q20 0 20 -22v-7t-2 -8q-11 -48 -17 -95t-6 -97q0 -114 26 -212t69 -189t98 -178.5t113 -178.5q37 56 80 119t86 130t83.5 137.5t71.5 142t49.5 143t18.5 141.5q0 26 -3.5 50t-11.5 47v8q0 15 12.5 24t29 14t34 7t27.5 2 q25 0 45.5 -4.5t35.5 -15.5t23 -29.5t8 -46.5zM778 1585q0 -37 -24.5 -60.5t-59.5 -23.5q-33 0 -57.5 23.5t-24.5 60.5q0 16 6.5 31t18 26.5t26 18t31.5 6.5q18 0 33 -6.5t26.5 -18t18 -26.5t6.5 -31zM524 1585q0 -37 -24.5 -60.5t-59.5 -23.5q-33 0 -57.5 23.5t-24.5 60.5 q0 16 6.5 31t18 26.5t26 18t31.5 6.5q18 0 33 -6.5t26.5 -18t18 -26.5t6.5 -31z"/>
<glyph glyph-name="circumflex" horiz-adv-x="500" unicode="" d="M4 652q31 36 58 70.5t53 71t51.5 78t53.5 92.5h60q28 -51 53.5 -92.5t51.5 -78t53 -71t58 -70.5l-11 -14q-35 18 -63.5 36t-56 37.5t-55.5 41.5t-60 49q-32 -27 -60 -49t-55.5 -42t-56.5 -37.5t-63 -35.5z"/>
<glyph glyph-name="caron" horiz-adv-x="500" unicode="" d="M15 964q34 -18 63 -35.5t56.5 -37.5t55.5 -42t60 -49q32 27 60 49t55.5 41.5t56 37.5t63.5 36l11 -14q-31 -36 -58 -70.5t-53 -71.5t-51.5 -78t-53.5 -92h-60q-28 51 -53.5 92t-51.5 78t-53 71.5t-58 70.5z"/>
<glyph glyph-name="ring" horiz-adv-x="500" unicode="" d="M199 802q0 -30 21.5 -51.5t51.5 -21.5t51.5 21.5t21.5 51.5t-21.5 51.5t-51.5 21.5t-51.5 -21.5t-21.5 -51.5zM118 802q0 32 12 60t33 49t49 33t60 12t60 -12t49 -33t33 -49t12 -60t-12 -60t-33 -49t-49 -33t-60 -12t-60 12t-49 33t-33 49t-12 60z"/>
<glyph glyph-name="tilde" horiz-adv-x="500" unicode="" d="M38 706q3 47 18 85q6 16 15 31.5t22 27.5t30 19.5t39 7.5q25 0 49 -11t47.5 -23.5t47.5 -23.5t48 -11q25 0 39.5 8.5t22.5 19.5q9 12 12 28h34q-5 -47 -21 -83q-14 -32 -39.5 -57.5t-68.5 -25.5q-24 0 -49.5 11t-50 23.5t-46.5 23.5t-40 11q-24 0 -39 -10t-23 -21 q-10 -13 -13 -30h-34z"/>
<glyph glyph-name="micro" horiz-adv-x="742" unicode="" d="M772 143q-8 -38 -23 -71t-38 -57t-53 -38t-67 -14q-58 1 -94 33t-53 78q-20 -20 -40 -38t-40 -32t-42 -22t-45 -8q-17 0 -37 6t-38 20t-34 38q-14 24 -21 64v-11q0 -37 -6 -77q-7 -46 -15 -89q-8 -44 -16 -82t-8 -65q0 -56 7 -96t16 -66t17 -37q8 -12 10 -13l-5 -10 q-35 0 -65 13t-52 37t-34 58t-13 76q0 36 18 70t39 70t37 74q13 32 13 68v13q-2 27 -8 49t-14 45q-6 23 -12 47t-6 55q0 54 14 103t41 93q26 44 62 82t79 69l12 -9q-42 -61 -67 -133t-25 -147q0 -32 7 -68t23 -67q16 -32 42 -52t67 -20q34 0 65 12t60 31q-2 11 -3 23t-1 24 q0 48 14 104t37 112t53 106t60 86l12 -9q-12 -38 -22 -81q-10 -44 -16 -88q-7 -44 -11 -88t-4 -83q-1 -51 9 -84t25 -51t33 -26q18 -7 34 -7q12 1 26 3t29 11t31 25t30 45z"/>
<glyph glyph-name="endash" horiz-adv-x="600" unicode="" d="M533 424q27 0 41 -14t15 -34v-8q1 -8 -1 -16q-2 -10 -12 -18q-9 -6 -25 -10t-43 -4q-94 0 -196 1t-193 1h-41t-34 6q-16 5 -25 18t-9 39q0 29 17 41t43 12h6t6 -1q37 -5 96 -7q60 -2 124 -4t126 -2h105z"/>
<glyph glyph-name="emdash" horiz-adv-x="1000" unicode="" d="M944 424q28 0 42 -14t14 -34q0 -14 -2 -24t-12 -18q-8 -6 -24 -10t-43 -4h-95h-144t-168 1t-168 1h-142h-93h-41t-34 6q-16 5 -25 18t-9 39q0 29 17 41t43 12h6t6 -1q20 -1 62 -3t100 -4t127 -2q69 -2 141 -2h142t130 -2h104h66z"/>
<glyph glyph-name="quoteleft" horiz-adv-x="245" unicode="" d="M145 1326q-7 -14 -11 -30t-4 -30t4 -26q5 -12 18 -18q26 -14 44 -36t19 -52q0 -19 -7 -36q-8 -18 -20 -30t-29 -19t-36 -7q-38 0 -64 27t-28 65q-1 7 -1 14q0 32 12 60q14 34 32 61t36 43t25 21q2 -1 5 -3l3 -3q1 -1 2 -1z"/>
<glyph glyph-name="quotesinglbase" horiz-adv-x="245" unicode="" d="M100 -120q6 14 10 30t6 30q0 14 -5 26t-18 18q-27 14 -45 36t-18 52q0 19 7 36q7 18 19 30t30 19q17 7 36 7q38 0 64 -27t28 -65q1 -7 1 -14q1 -32 -11 -60q-14 -34 -32 -61t-37 -43q-18 -16 -25 -21q-3 1 -5 3q-5 3 -5 4z"/>
<glyph glyph-name="quotedblleft" horiz-adv-x="475" unicode="" d="M145 1323q-7 -13 -11 -29t-4 -30t4 -26q5 -12 18 -19q26 -13 44 -35t19 -53q0 -19 -7 -36q-8 -17 -20 -29t-29 -20q-17 -7 -36 -7q-38 0 -64 27t-28 65q-1 7 -1 14q0 33 12 61q14 34 32 60t36 42t25 22q2 -1 5 -3l3 -3q1 -1 2 -1zM375 1323q-7 -13 -11 -29t-4 -30t4 -26 q5 -12 18 -19q26 -13 44 -35t19 -53q0 -19 -7 -36q-8 -17 -20 -29t-29 -20q-17 -7 -36 -7q-38 0 -64 27t-28 65q-1 7 -1 14q0 33 12 61q14 34 32 60t36 42t25 22q2 -1 5 -3l3 -3q1 -1 2 -1z"/>
<glyph glyph-name="quotedblright" horiz-adv-x="475" unicode="" d="M330 1046q6 14 10 30t6 30q0 14 -5 26t-18 18q-27 14 -45 36t-18 52q0 19 7 36q7 18 19 30t30 19q17 7 36 7q38 0 64 -27t28 -65q1 -7 1 -14q1 -32 -11 -60q-14 -34 -32 -61t-37 -43q-18 -16 -25 -21q-3 1 -5 3q-5 3 -5 4zM100 1046q6 14 10 30t6 30q0 14 -5 26t-18 18 q-27 14 -45 36t-18 52q0 19 7 36q7 18 19 30t30 19q17 7 36 7q38 0 64 -27t28 -65q1 -7 1 -14q1 -32 -11 -60q-14 -34 -32 -61t-37 -43q-18 -16 -25 -21q-3 1 -5 3q-5 3 -5 4z"/>
<glyph glyph-name="dagger" horiz-adv-x="830" unicode="" d="M764 782q-20 2 -42 2t-43 1q-53 0 -115 -3t-126 -9q-13 -123 -16 -258q-1 -62 -1 -125q-1 -72 1 -146q4 -136 14 -270q10 -132 25 -252l-15 -6q-26 66 -46 144t-35 161t-25 169t-15 172q-7 86 -9 168t-2 155v35t1 39q-50 -7 -96 -15t-86 -15q-5 -1 -9 -1h-8q-28 0 -42 16 t-14 32q0 28 26 42t64 21q36 7 76 7h66h27q4 55 12 113t22 110q15 52 37 93t54 63q16 11 34 20t36 9q10 0 20 -6t10 -23q0 -9 -2 -17t-5 -15q-14 -36 -28 -70t-23 -70q-12 -48 -22 -101t-18 -110q44 -2 90 -5t89 -8t81 -12t64 -16z"/>
<glyph glyph-name="daggerdbl" horiz-adv-x="830" unicode="" d="M764 272q-20 2 -42 2t-43 1q-57 1 -123 -3t-134 -11q4 -141 14 -277t25 -262l-15 -6q-22 56 -40 120t-31 132q-14 68 -24 140t-17 143q-111 -14 -201 -32q-5 -1 -9 -1h-8q-28 0 -42 16t-14 32q0 28 26 42t64 21q36 7 76 7h66h34q-8 93 -10 181t-2 168v35t1 39 q-50 -7 -96 -15t-86 -15q-5 -1 -9 -1h-8q-28 0 -42 16t-14 32q0 28 26 42t64 21q36 7 76 7h66h27q4 55 12 113t22 110q15 52 37 93t54 63q16 11 34 20t36 9q10 0 20 -6t10 -23q0 -9 -2 -17t-5 -15q-14 -36 -28 -70t-23 -70q-12 -48 -22 -101t-18 -110q44 -2 90 -5t89 -8 t81 -12t64 -16l-6 -19q-20 2 -42 2t-43 1q-53 0 -115 -3t-126 -9q-11 -105 -15 -215q-3 -74 -3 -149q0 -38 1 -76q45 -2 95 -5t96 -8t88 -12q41 -7 70 -17z"/>
<glyph glyph-name="ellipsis" horiz-adv-x="1352" unicode="" d="M968 72q0 19 7 36q7 18 19 30t30 19q17 7 36 7t36 -7q18 -7 30 -19t19 -30q7 -17 7 -36t-7 -36q-7 -18 -19 -30t-30 -19q-17 -7 -36 -7t-36 7q-18 7 -30 19t-19 30q-7 17 -7 36zM584 72q0 19 7 36q7 18 19 30t30 19q17 7 36 7t36 -7q18 -7 30 -19t19 -30q7 -17 7 -36 t-7 -36q-7 -18 -19 -30t-30 -19q-17 -7 -36 -7t-36 7q-18 7 -30 19t-19 30q-7 17 -7 36zM200 72q0 19 7 36q7 18 19 30t30 19q17 7 36 7t36 -7q18 -7 30 -19t19 -30q7 -17 7 -36t-7 -36q-7 -18 -19 -30t-30 -19q-17 -7 -36 -7t-36 7q-18 7 -30 19t-19 30q-7 17 -7 36z"/>
<glyph glyph-name="perthousand" horiz-adv-x="1638" unicode="" d="M996 1268q14 0 22 -5t7 -13q1 -6 -3 -13t-10 -14t-10 -13q-6 -6 -9 -11q-37 -45 -75 -85t-75 -87q-97 -123 -185 -245t-174 -252t-170 -269t-174 -294l-31 17q67 132 143 270t154 272q80 134 163 261q83 126 165 234q18 23 46 58t58 70q32 35 64 65t57 44q7 2 15 6t22 4z M1588 317q0 -49 -14 -105t-44 -104t-78 -80t-115 -31q-67 0 -115 30q-48 31 -78 75t-42 96q-14 52 -14 97q0 47 9 97t31 96t62 86q38 40 97 65l9 -16q-38 -28 -60 -66t-32 -80q-11 -41 -14 -85t-3 -83q-1 -35 7 -83t26 -90t50 -72q31 -30 78 -30q54 0 84 28t45 66 q14 38 17 80t3 70q0 38 -8 86q-7 48 -25 92q-18 42 -46 72t-71 29q-21 -1 -36 -9t-25 -22t-14 -30t-4 -32v-10t1 -9l-16 -1q-3 8 -3 16v18q0 24 8 48t24 44t38 34q22 13 52 13q54 0 94 -26q40 -27 67 -69t41 -96t14 -109zM1018 317q0 -49 -14 -105t-44 -104t-78 -80 t-115 -31q-67 0 -115 30q-48 31 -78 75t-42 96q-14 52 -14 97q0 47 9 97t31 96t62 86q38 40 97 65l9 -16q-38 -28 -60 -66t-32 -80q-11 -41 -14 -85t-3 -83q-1 -35 7 -83t26 -90t50 -72q31 -30 78 -30q54 0 84 28t45 66q14 38 17 80t3 70q0 38 -8 86q-7 48 -25 92 q-18 42 -46 72t-71 29q-21 -1 -36 -9t-25 -22t-14 -30t-4 -32v-10t1 -9l-16 -1q-3 8 -3 16v18q0 24 8 48t24 44t38 34q22 13 52 13q54 0 94 -26q40 -27 67 -69t41 -96t14 -109zM550 997q0 -49 -14 -105t-44 -104t-78 -80t-115 -31q-67 0 -115 30q-48 31 -78 75t-42 96 q-14 52 -14 97q0 47 9 97t31 96t62 86q38 40 97 65l9 -16q-38 -28 -60 -66t-32 -80q-11 -41 -14 -85t-3 -83q-1 -35 7 -83t26 -90t50 -72q31 -30 78 -30q54 0 84 28t45 66q14 38 17 80t3 70q0 38 -8 86q-7 48 -25 92q-18 42 -46 72t-71 29q-21 -1 -36 -9t-25 -22t-14 -30 t-4 -32v-10t1 -9l-16 -1q-3 8 -3 16v18q0 24 8 48t24 44t38 34q22 13 52 13q54 0 94 -26q40 -27 67 -69t41 -96t14 -109z"/>
<glyph glyph-name="guilsinglleft" horiz-adv-x="378" unicode="" d="M192 315q0 -13 6 -32t18 -41q10 -22 24 -45q14 -24 27 -46q33 -53 76 -112l-18 -13q-77 62 -138 118q-27 24 -51 48t-44 48q-20 22 -30 42q-12 20 -12 33t12 33t30 42q20 22 44 47t51 49q61 55 138 118l23 -12q-44 -59 -78 -112q-15 -22 -29 -46t-25 -46q-12 -22 -18 -41 t-6 -32z"/>
<glyph glyph-name="guilsinglright" horiz-adv-x="378" unicode="" d="M186 315q0 13 -6 32t-18 41q-10 22 -24 44q-14 24 -28 47q-33 53 -75 112l18 13q76 -63 137 -118q26 -24 50 -49t44 -47t32 -42t12 -33t-12 -33t-32 -42q-20 -24 -44 -48t-50 -48q-61 -56 -137 -118l-23 12q44 58 78 112q15 22 29 46t25 46q12 22 18 41t6 32z"/>
<glyph glyph-name="fraction" horiz-adv-x="202" unicode="" d="M377 1294q14 0 20 -12t6 -20t-16 -40q-15 -32 -37 -70t-43 -72q-21 -36 -30 -54q-50 -94 -92 -180t-80 -170t-72 -169q-33 -85 -67 -176t-68 -191t-71 -212l-28 6q39 144 85 290t95 284t99 264t94 226q8 18 22 47t30 62t36 66t40 60t40 44t37 17z"/>
<glyph glyph-name="Euro" horiz-adv-x="1031" unicode="" d="M559 450q-15 2 -31 2t-32 1q-42 1 -94 -3t-110 -11q8 -73 30 -139t58 -117q38 -51 93 -81t131 -31q42 0 82 14t75 37t64 54t48 64l15 -8q-18 -48 -50 -94t-74 -82t-95 -58t-114 -22q-93 0 -164 36t-119 98t-77 142q-28 80 -35 168q-62 -11 -106 -24q-5 -1 -13 -1 q-21 0 -31 16t-10 33q0 26 16 40t42 22q24 6 51 8t48 2q1 42 6 86q-19 -2 -36 -6t-34 -7q-5 -1 -9 -1h-8q-28 0 -42 16t-14 32q0 20 14 33t38 21t52 10q28 4 55 5q25 120 75 229q50 108 124 192t168 133t207 49q57 0 105 -16t82 -44q34 -29 52 -71t19 -95q-1 -56 -21 -100 t-55 -79t-81 -61t-96 -42t-104 -25q-52 -8 -100 -8h-5v20q69 9 133 31t111 60q48 38 77 94q29 54 29 126q0 78 -42 124t-112 46q-101 0 -177 -51t-130 -132t-89 -181q-34 -100 -49 -199q49 -1 109 -3q59 -2 119 -8q60 -5 113 -13t89 -20l-6 -19q-20 2 -42 2t-43 1 q-77 -1 -167 -7t-182 -17q-3 -44 -3 -82v-27q38 -3 79 -7q41 -3 79 -9t70 -14t52 -16z"/>
<glyph glyph-name="trademark" horiz-adv-x="1497" unicode="" d="M381 1324q-1 -6 -3 -14t-4 -20q52 -5 106 -15t100 -27q11 22 30 38t51 16q12 0 21 -5t9 -17v-7q-3 -14 -5 -27t-4 -27l-4 -24l-4 -23q-10 -85 -16 -169t-7 -170q-1 -17 -1 -24v-13t-1 -12q0 -8 2 -24q45 142 72 228t41 136q14 48 20 66t8 25q1 2 1 5q9 18 23 32t39 14 q15 0 27 -7t18 -17q8 -10 12 -23q4 -12 4 -22q-2 -45 -2 -87t-2 -85q-2 -49 -4 -97t-2 -97q0 -18 -1 -30t-2 -23t-1 -23t1 -30q15 48 31 102q16 53 34 111t38 117t45 116q9 17 25 34t42 17q16 0 28 -10t18 -22q6 -14 10 -28q3 -14 3 -25q0 -25 -1 -51t-3 -55q-2 -33 -3 -69 t-1 -73q0 -67 9 -135t36 -121t77 -86t132 -33q14 0 44 14l10 -20q-21 -14 -41 -18t-40 -4q-68 0 -119 22t-88 58q-37 38 -61 88t-38 104q-14 56 -21 116q-6 60 -6 115q-1 32 3 54t7 50q-13 -33 -29 -77t-31 -92t-31 -98q-16 -48 -29 -90t-22 -72t-12 -38q-2 -6 -7 -15 q-4 -9 -12 -17t-18 -14t-19 -6q-11 0 -19 6t-13 14t-7 18t-4 16v2q0 2 -1 3q-3 19 -5 53t-2 78q-2 42 -3 90t-1 95t-2 89v73q-16 -41 -35 -103t-38 -130t-37 -138t-31 -124l-1 -2q-4 -14 -12 -28t-28 -14q-10 0 -18 4t-15 12q-7 6 -12 14t-6 14q-5 20 -7 50t-2 50 q-4 58 -6 116t-2 116q0 57 1 113t6 113q1 12 3 24t5 25q-87 9 -160 9q-13 -1 -23 -1t-21 -1q-4 -37 -8 -82q-4 -44 -7 -94q-2 -50 -4 -102t-2 -102q0 -78 5 -144t16 -110q0 -1 2 -5l2 -4t1 -5q0 -10 -8 -18t-21 -7q-12 0 -29 6t-25 11q-15 10 -23 30t-11 42q-5 22 -5 44v36 q0 48 4 109t14 127t22 134t27 130q-69 -8 -119 -20t-95 -27h2q-7 -4 -18 -4t-19 6t-8 17q0 8 6 19t11 20q13 15 41 26t59 18q32 7 62 11t48 3q11 -1 23 -1t25 -1q3 11 7 20t6 19z"/>
<glyph glyph-name="partialdiff" horiz-adv-x="672" unicode="" d="M25 1084q-7 16 -11 36t-4 39q0 25 5 47t16 40t27 29t39 11q55 0 115 -38t118 -102q58 -66 113 -152t95 -184t64 -200q24 -104 25 -202q0 -104 -23 -186t-65 -138q-43 -57 -101 -87t-129 -30q-63 -1 -113 19t-87 54q-36 34 -55 82t-19 104q0 66 22 124q23 58 65 104 t105 79q63 32 144 45l5 -18q-64 -19 -106 -55q-42 -37 -65 -79t-33 -85t-10 -76q0 -52 14 -92q14 -39 38 -67t54 -42q32 -14 67 -14q50 0 84 21q35 21 55 61t28 95q8 56 9 126q1 42 -5 101t-18 127q-12 69 -30 141t-41 142q-24 70 -54 132t-67 108q-36 46 -80 74t-95 28 q-35 0 -57 -20t-23 -56q0 -13 3 -26z"/>
<glyph glyph-name="minus" d="M603 596q-40 -22 -99 -38t-123 -24q-63 -10 -125 -14t-107 -4q-21 0 -41 1t-34 7q-16 6 -25 20t-9 40q0 31 20 46q16 12 39 12q6 0 13 -1q139 -17 256 -23q89 -5 177 -4h54z" unicode=""/>
<glyph glyph-name="approxequal" d="M63 392q5 45 22 81q15 31 43 57t78 25q31 1 63 -9t65 -22t65 -20q32 -10 63 -10q24 0 44 10t36 20q18 13 33 31l5 -3q-6 -45 -24 -79q-14 -31 -44 -55t-80 -24q-32 0 -64 10t-65 20q-33 12 -65 22t-62 9q-22 -1 -42 -11t-34 -23q-17 -15 -30 -33zM63 602q5 45 22 81 q15 31 43 57t78 25q31 1 63 -9t65 -22t65 -20q32 -10 63 -10q24 0 44 10t36 20q18 13 33 31l5 -3q-6 -45 -24 -79q-14 -31 -44 -55t-80 -24q-32 0 -64 10t-65 20q-33 12 -65 22t-62 9q-22 -1 -42 -11t-34 -23q-17 -15 -30 -33z" unicode=""/>
<glyph glyph-name="notequal" d="M603 496q-29 -16 -68 -28t-83 -22q-44 -9 -90 -15t-91 -10l-124 -283l-35 12l100 267q-17 -1 -33 -1h-30q-21 0 -41 1t-34 7q-16 6 -25 20t-9 40q0 31 20 46t52 11q37 -5 72 -8t69 -6l36 95q-39 -4 -75 -5t-65 -1q-21 0 -41 1t-34 7q-16 6 -25 20t-9 40q0 31 20 46t52 11 q58 -7 110 -12t103 -8l96 255l83 -26l-103 -234q51 -2 99 -3h33q33 0 66 1l4 -18q-43 -24 -107 -40t-133 -25l-48 -109q75 -6 145 -8q39 -1 77 -1q31 0 62 1z" unicode=""/>
<glyph glyph-name="lessequal" d="M129 551q-26 17 -47 35t-21 43q0 11 5 23t13 21q9 9 19 15t22 5h8t9 -2q45 42 101 82q56 39 108 71t95 52q42 20 62 19q7 0 17 -4t20 -12q10 -9 16 -21t6 -29q0 -19 -12 -33t-33 -22q-94 -36 -173 -70t-154 -70q100 -82 188 -147t180 -121l-6 -18q-48 8 -106 29t-116 47 t-110 54q-53 28 -91 53zM603 227q-40 -21 -99 -37t-123 -26q-63 -10 -125 -13q-62 -4 -107 -4q-21 0 -41 1q-20 2 -34 8q-16 6 -25 20t-9 39q0 31 20 46q16 12 39 12q6 0 13 -1q139 -16 256 -22q89 -5 177 -5h54z" unicode=""/>
<glyph glyph-name="greaterequal" d="M75 386q45 28 89 56t88 58q44 32 90 69t99 84q-73 37 -152 71t-173 70q-28 11 -40 34t3 50q11 22 25 30q12 7 26 7q2 -1 5 -1q16 -2 34 -9q18 -8 37 -17q30 -15 66 -37q36 -21 75 -47q38 -26 76 -54t70 -59q19 7 36 1t30 -25q14 -21 14 -38q1 -17 -9 -31t-26 -24 q-16 -12 -34 -23q-36 -25 -88 -53t-110 -52q-58 -26 -116 -47t-109 -31zM603 227q-40 -21 -99 -37t-123 -26q-63 -10 -125 -13q-62 -4 -107 -4q-21 0 -41 1q-20 2 -34 8q-16 6 -25 20t-9 39q0 31 20 46q16 12 39 12q6 0 13 -1q139 -16 256 -22q89 -5 177 -5h54z" unicode=""/>
</font>
</defs>
</svg>
